<svg xmlns="http://www.w3.org/2000/svg" xmlns:xlink="http://www.w3.org/1999/xlink" width="994.757" height="623.49" viewBox="0 0 994.757 623.49">
  <defs>
    <style>
      .cls-1 {
        fill: #ecd7ee;
        opacity: 0.76;
      }

      .cls-2 {
        fill: #fb64a5;
      }

      .cls-17, .cls-22, .cls-3, .cls-38, .cls-46 {
        fill: none;
        stroke-miterlimit: 10;
      }

      .cls-3 {
        stroke: #ac6ab1;
      }

      .cls-4 {
        fill: #c6c6c6;
      }

      .cls-5 {
        fill: url(#linear-gradient);
      }

      .cls-6 {
        opacity: 0.09;
      }

      .cls-7 {
        fill: url(#linear-gradient-2);
      }

      .cls-8 {
        fill: url(#linear-gradient-3);
      }

      .cls-15, .cls-19, .cls-20, .cls-9 {
        fill: #f5f5f5;
      }

      .cls-10 {
        fill: #e90075;
      }

      .cls-11, .cls-16, .cls-35 {
        fill: #67016f;
      }

      .cls-12 {
        fill: #ac6ab1;
      }

      .cls-13 {
        fill: #9e0071;
      }

      .cls-14 {
        fill: #479d4f;
      }

      .cls-15 {
        font-size: 5px;
      }

      .cls-15, .cls-19 {
        font-family: OpenSans-Semibold, Open Sans;
        font-weight: 600;
        letter-spacing: 0.08em;
      }

      .cls-16 {
        font-size: 9px;
      }

      .cls-16, .cls-20, .cls-35 {
        font-family: OpenSans-Bold, Open Sans;
        font-weight: 700;
      }

      .cls-17 {
        stroke: #adadad;
        stroke-width: 0.35px;
      }

      .cls-18 {
        fill: #ff4141;
      }

      .cls-19 {
        font-size: 6px;
      }

      .cls-20 {
        font-size: 16px;
      }

      .cls-21 {
        fill: url(#linear-gradient-4);
      }

      .cls-22 {
        stroke: #f5f5f5;
      }

      .cls-22, .cls-46 {
        stroke-width: 0.5px;
      }

      .cls-23 {
        fill: url(#linear-gradient-5);
      }

      .cls-24 {
        fill: url(#linear-gradient-6);
      }

      .cls-25 {
        fill: url(#linear-gradient-7);
      }

      .cls-26 {
        fill: #b2b2b2;
      }

      .cls-27 {
        fill: #e05150;
      }

      .cls-28 {
        fill: url(#linear-gradient-8);
      }

      .cls-29 {
        fill: url(#linear-gradient-9);
      }

      .cls-30 {
        fill: url(#linear-gradient-10);
      }

      .cls-31 {
        fill: url(#linear-gradient-11);
      }

      .cls-32 {
        opacity: 0.15;
      }

      .cls-33 {
        fill: #5d9fe8;
      }

      .cls-34 {
        fill: #1e3fd1;
      }

      .cls-35 {
        font-size: 15px;
      }

      .cls-36 {
        fill: url(#linear-gradient-12);
      }

      .cls-37 {
        fill: url(#linear-gradient-13);
      }

      .cls-38 {
        stroke: #0e1d61;
        stroke-width: 0.32px;
      }

      .cls-39 {
        fill: #c0e2e8;
      }

      .cls-40 {
        fill: url(#linear-gradient-14);
      }

      .cls-41 {
        fill: #ffcbc7;
      }

      .cls-42 {
        fill: #e0c180;
      }

      .cls-43 {
        fill: #232323;
      }

      .cls-44 {
        fill: #420149;
      }

      .cls-45 {
        fill: #0e1d61;
      }

      .cls-46 {
        stroke: #0b184f;
      }

      .cls-47 {
        fill: #5b5b5b;
      }

      .cls-48 {
        fill: #f9b776;
      }

      .cls-49 {
        fill: url(#linear-gradient-15);
      }

      .cls-50 {
        fill: url(#linear-gradient-16);
      }

      .cls-51 {
        fill: url(#linear-gradient-17);
      }

      .cls-52 {
        fill: url(#linear-gradient-18);
      }

      .cls-53 {
        fill: #d8d8d8;
      }

      .cls-54 {
        fill: #282828;
      }
    </style>
    <linearGradient id="linear-gradient" x1="0.5" y1="0.441" x2="0.5" y2="1.021" gradientUnits="objectBoundingBox">
      <stop offset="0" stop-color="#ac6ab1"/>
      <stop offset="0.02" stop-color="#aa67af"/>
      <stop offset="0.33" stop-color="#8d3b93"/>
      <stop offset="0.61" stop-color="#781b80"/>
      <stop offset="0.84" stop-color="#6c0873"/>
      <stop offset="1" stop-color="#67016f"/>
    </linearGradient>
    <linearGradient id="linear-gradient-2" x1="0.635" y1="0.5" x2="0.803" y2="0.5" gradientUnits="objectBoundingBox">
      <stop offset="0.07" stop-color="#f5f5f5"/>
      <stop offset="0.16" stop-color="#eef0f0"/>
      <stop offset="0.29" stop-color="#dae2e4"/>
      <stop offset="0.45" stop-color="#b9cccf"/>
      <stop offset="0.63" stop-color="#8cacb3"/>
      <stop offset="0.83" stop-color="#52858e"/>
      <stop offset="1" stop-color="#1a5e6b"/>
    </linearGradient>
    <linearGradient id="linear-gradient-3" x1="0.5" y1="0.916" x2="0.5" y2="0.223" gradientUnits="objectBoundingBox">
      <stop offset="0" stop-color="#67016f" stop-opacity="0"/>
      <stop offset="1" stop-color="#67016f"/>
    </linearGradient>
    <linearGradient id="linear-gradient-4" x1="0.5" y1="0.952" x2="0.5" y2="0.3" gradientUnits="objectBoundingBox">
      <stop offset="0" stop-color="#1a5e6b"/>
      <stop offset="0.96" stop-color="#20853e"/>
    </linearGradient>
    <linearGradient id="linear-gradient-5" x1="0.305" y1="0.847" x2="0.777" y2="-0.013" xlink:href="#linear-gradient-4"/>
    <linearGradient id="linear-gradient-6" x1="15.546" y1="0.952" x2="15.546" y2="0.3" xlink:href="#linear-gradient-4"/>
    <linearGradient id="linear-gradient-7" x1="13.365" y1="0.847" x2="13.837" y2="-0.013" xlink:href="#linear-gradient-4"/>
    <linearGradient id="linear-gradient-8" x1="0.5" y1="0.896" x2="0.5" y2="0.344" xlink:href="#linear-gradient-3"/>
    <linearGradient id="linear-gradient-9" x1="0.5" y1="0.918" x2="0.5" y2="0.482" xlink:href="#linear-gradient-3"/>
    <linearGradient id="linear-gradient-10" x1="0.5" y1="0.947" x2="0.5" y2="0.666" xlink:href="#linear-gradient-3"/>
    <linearGradient id="linear-gradient-11" x1="0.5" y1="0.923" x2="0.5" y2="0.514" xlink:href="#linear-gradient-3"/>
    <linearGradient id="linear-gradient-12" x1="0.5" y1="0.938" x2="0.5" y2="0.207" gradientUnits="objectBoundingBox">
      <stop offset="0" stop-color="#ff4141" stop-opacity="0"/>
      <stop offset="0.97" stop-color="#ff4141"/>
    </linearGradient>
    <linearGradient id="linear-gradient-13" x1="0.5" y1="-0.036" x2="0.5" y2="0.595" gradientUnits="objectBoundingBox">
      <stop offset="0" stop-color="#42866f" stop-opacity="0"/>
      <stop offset="1" stop-color="#479d4f"/>
    </linearGradient>
    <linearGradient id="linear-gradient-14" x1="0.474" y1="0.882" x2="0.521" y2="0.132" gradientUnits="objectBoundingBox">
      <stop offset="0" stop-color="#344dbf" stop-opacity="0"/>
      <stop offset="1" stop-color="#344dbf"/>
    </linearGradient>
    <linearGradient id="linear-gradient-15" x1="-0.423" y1="-0.548" x2="0.228" y2="0.664" gradientUnits="objectBoundingBox">
      <stop offset="0.61" stop-color="#67016f"/>
      <stop offset="1" stop-color="#e90075"/>
    </linearGradient>
    <linearGradient id="linear-gradient-16" x1="-180.873" y1="1.886" x2="-181.104" y2="0.326" gradientUnits="objectBoundingBox">
      <stop offset="0" stop-color="#f9b776"/>
      <stop offset="1" stop-color="#f47960"/>
    </linearGradient>
    <linearGradient id="linear-gradient-17" x1="-49.133" y1="3.067" x2="-49.872" y2="5.502" gradientUnits="objectBoundingBox">
      <stop offset="0" stop-color="#2b3582"/>
      <stop offset="1" stop-color="#150e42"/>
    </linearGradient>
    <linearGradient id="linear-gradient-18" x1="-36.866" y1="0.134" x2="-37.267" y2="0.8" xlink:href="#linear-gradient-17"/>
  </defs>
  <g id="Stock_vector" data-name="Stock vector" transform="translate(0.001 0.006)">
    <g id="OBJECTS" transform="translate(-0.001 -0.006)">
      <path id="Path_13747" data-name="Path 13747" class="cls-1" d="M933.63,113.469c-25.086-49.77-80.163-87.2-133.763-75.716-32.091,6.906-63.985,29.966-94.714,18.386-22.19-8.348-34.71-32.062-53.358-46.86-28.7-22.85-69.432-22.591-104.407-12.332S480.4,26.026,445.842,37.642A262.546,262.546,0,0,1,263.66,31.673c-25.248-10.4-48.892-24.663-74.6-33.863s-54.858-12.7-79.621-1.233S66.765,37.889,75.374,64.291c1.719,5.266,4.408,10.445,4.062,16.031C78.87,89.2,70.481,95.7,62,97.672s-17.309.691-26.033.913C-3.082,99.6-37.965,136.011-38.15,175.928c-.162,33.11,19.813,62.2,36.926,90.329S31.2,328.15,21.035,359.571C15,378.216.841,392.792-8.425,409.982-32.461,454.561-19.606,513.568,13.95,551.167s83.821,55.985,133.429,60.425,99.353-3.835,148.5-11.962,98.868-16.327,148.487-11.666l-2.666-1.48a791.772,791.772,0,0,0,297.136,17.264c20.713-2.75,44.5-8.632,53.242-28.042,7.4-16.364.761-35.552,2.308-53.507,2.193-25.9,21.186-47.082,41.9-62.139s44.218-26.242,62.889-43.876c36.51-34.528,48.9-87.875,54.35-138.385C959.49,222.11,958.716,163.264,933.63,113.469Z" transform="translate(38.151 10.656)"/>
      <path id="Path_13748" data-name="Path 13748" class="cls-2" d="M200.835,84.167H749.912a33.135,33.135,0,0,1,33.135,33.1V471.071H167.7V117.265A33.135,33.135,0,0,1,200.835,84.13Z" transform="translate(39.102 19.623)"/>
      <rect id="Rectangle_1813" data-name="Rectangle 1813" class="cls-3" width="268.952" height="96.778" rx="8" transform="translate(351.538 93.074)"/>
      <rect id="Rectangle_1814" data-name="Rectangle 1814" class="cls-4" width="169.054" height="148.83" rx="9.11" transform="translate(170.596 179.593)"/>
      <rect id="Rectangle_1815" data-name="Rectangle 1815" class="cls-4" width="100.17" height="171.939" rx="7.52" transform="translate(665.389 95.861)"/>
      <path id="Path_13749" data-name="Path 13749" class="cls-5" d="M539.516,323.248a43.3,43.3,0,0,0,0-11.3H528.96a34.413,34.413,0,0,0-1.7-6.4l9.15-5.29a44.572,44.572,0,0,0-5.673-9.779l-9.113,5.266a33.832,33.832,0,0,0-4.7-4.7l5.266-9.113a44.049,44.049,0,0,0-9.779-5.66l-5.29,9.113a33.505,33.505,0,0,0-6.4-1.714V273.12a43.3,43.3,0,0,0-11.3,0v10.556a33.511,33.511,0,0,0-6.4,1.714l-5.29-9.15a44.047,44.047,0,0,0-9.779,5.66l5.266,9.113a33.829,33.829,0,0,0-4.7,4.7l-9.113-5.266a44.048,44.048,0,0,0-5.66,9.779l9.15,5.29a33.509,33.509,0,0,0-1.714,6.4H450.63a43.3,43.3,0,0,0,0,11.3h10.556a33.508,33.508,0,0,0,1.714,6.4l-9.15,5.29a44.048,44.048,0,0,0,5.66,9.779l9.113-5.266a33.83,33.83,0,0,0,4.7,4.7l-5.266,9.1a44.579,44.579,0,0,0,9.779,5.672l5.29-9.15a33.482,33.482,0,0,0,6.375,1.751v10.556a43.3,43.3,0,0,0,11.3,0V351.487a33.477,33.477,0,0,0,6.4-1.7l5.29,9.15a44.579,44.579,0,0,0,9.779-5.673L516.9,344.15a33.833,33.833,0,0,0,4.7-4.7l9.113,5.266a44.58,44.58,0,0,0,5.673-9.779l-9.15-5.29a34.424,34.424,0,0,0,1.7-6.4Zm-44.394,9.865a7.84,7.84,0,1,0-.049-.025Z" transform="translate(152.029 76.735)"/>
      <rect id="Rectangle_1816" data-name="Rectangle 1816" class="cls-6" width="411.801" height="253.994" rx="8" transform="translate(308.575 133.078)"/>
      <rect id="Rectangle_1817" data-name="Rectangle 1817" class="cls-7" width="411.801" height="253.994" rx="8" transform="translate(305.553 128.959)"/>
      <path id="Path_13750" data-name="Path 13750" class="cls-8" d="M508.92,159.46s-46.626,18.423-69.871,55.233c-16.722,26.5-30.052,38.869-52.718,38.536s-38.845.123-50.868,10.765-18.954,40.263-43.469,34c-22.9-5.845-59.858-22.369-82.375-12.812v37.6a9.865,9.865,0,0,0,9.865,9.865H508.92Z" transform="translate(95.921 50.32)"/>
      <path id="Path_13751" data-name="Path 13751" class="cls-9" d="M558.128,93.93H438.82V347.961H558.128a9.865,9.865,0,0,0,9.865-9.865V103.8A9.865,9.865,0,0,0,558.128,93.93Z" transform="translate(149.361 35.041)"/>
      <path id="Path_13752" data-name="Path 13752" class="cls-10" d="M261.473,275.882v13a30.249,30.249,0,0,1-24.8-47.6l10.642,7.4a17.264,17.264,0,0,0,14.157,27.13Z" transform="translate(100.953 69.397)"/>
      <path id="Path_13753" data-name="Path 13753" class="cls-11" d="M285.9,253.31a24.121,24.121,0,0,1,.111,2.466,30.262,30.262,0,0,1-30.262,30.262V273.078a17.264,17.264,0,0,0,17.264-17.264,13.672,13.672,0,0,0-.074-1.43Z" transform="translate(106.677 72.202)"/>
      <path id="Path_13754" data-name="Path 13754" class="cls-12" d="M283.448,256.623,270.487,257.7a17.14,17.14,0,0,0-4.217-9.964l9.767-8.632a30.053,30.053,0,0,1,7.411,17.523Z" transform="translate(109.13 68.889)"/>
      <path id="Path_13755" data-name="Path 13755" class="cls-2" d="M260.439,230.79V243.8a17.264,17.264,0,0,0-14.157,7.4l-10.642-7.4A30.176,30.176,0,0,1,260.439,230.79Z" transform="translate(101.988 66.952)"/>
      <path id="Path_13756" data-name="Path 13756" class="cls-13" d="M278.489,241.087l-9.767,8.632a17.264,17.264,0,0,0-12.973-5.87V230.79a30.225,30.225,0,0,1,22.739,10.3Z" transform="translate(106.677 66.952)"/>
      <path id="Path_13757" data-name="Path 13757" class="cls-2" d="M329.662,230.79V243.8A17.264,17.264,0,0,0,312.4,261.064a16.6,16.6,0,0,0,.271,3.058l-12.776,2.306a28.463,28.463,0,0,1-.493-5.364A30.274,30.274,0,0,1,329.662,230.79Z" transform="translate(116.854 66.952)"/>
      <path id="Path_13758" data-name="Path 13758" class="cls-10" d="M315.92,265.355l-10.26,7.954a29.594,29.594,0,0,1-5.87-13.182l12.776-2.306a17.14,17.14,0,0,0,3.354,7.535Z" transform="translate(116.945 73.254)"/>
      <path id="Path_13759" data-name="Path 13759" class="cls-11" d="M343.1,262.74l11.037,6.869a30.249,30.249,0,0,1-49.585,2.553l10.26-7.954A17.264,17.264,0,0,0,343.1,262.74Z" transform="translate(118.055 74.401)"/>
      <path id="Path_13760" data-name="Path 13760" class="cls-12" d="M338.276,257.17l12.874,1.7a29.681,29.681,0,0,1-4.3,12.036l-11.037-6.869a16.771,16.771,0,0,0,2.466-6.869Z" transform="translate(125.343 73.102)"/>
      <path id="Path_13761" data-name="Path 13761" class="cls-13" d="M354.192,261.064a27.957,27.957,0,0,1-.271,3.958l-12.874-1.7a15.2,15.2,0,0,0,.148-2.257A17.264,17.264,0,0,0,323.93,243.8V230.79a30.262,30.262,0,0,1,30.262,30.274Z" transform="translate(122.573 66.952)"/>
      <path id="Path_13762" data-name="Path 13762" class="cls-10" d="M397.832,275.234v13a30.249,30.249,0,0,1-26.871-44.172l11.542,5.968a17.066,17.066,0,0,0-1.936,7.942,17.264,17.264,0,0,0,17.264,17.264Z" transform="translate(132.748 70.046)"/>
      <path id="Path_13763" data-name="Path 13763" class="cls-11" d="M409.091,257.94l12.763,2.4a30.262,30.262,0,0,1-29.744,24.663V272A17.264,17.264,0,0,0,409.091,257.94Z" transform="translate(138.47 73.282)"/>
      <path id="Path_13764" data-name="Path 13764" class="cls-12" d="M420.637,260.187a30.15,30.15,0,0,1-.518,5.611l-12.763-2.4a18.232,18.232,0,0,0,.3-3.206,17.264,17.264,0,0,0-8.1-14.625l6.918-11.012a30.25,30.25,0,0,1,14.169,25.637Z" transform="translate(140.205 67.828)"/>
      <path id="Path_13765" data-name="Path 13765" class="cls-13" d="M392.11,230.79a30.127,30.127,0,0,1,16.093,4.637l-6.918,11.012a17.129,17.129,0,0,0-9.175-2.639Z" transform="translate(138.47 66.952)"/>
      <path id="Path_13766" data-name="Path 13766" class="cls-2" d="M397.19,230.79V243.8a17.264,17.264,0,0,0-15.328,9.322l-11.543-5.968A30.237,30.237,0,0,1,397.19,230.79Z" transform="translate(133.39 66.952)"/>
      <rect id="Rectangle_1818" data-name="Rectangle 1818" class="cls-14" width="51.854" height="13.034" transform="translate(634.486 184.168)"/>
      <rect id="Rectangle_1819" data-name="Rectangle 1819" class="cls-11" width="13.034" height="13.034" transform="translate(673.294 184.168)"/>
      <text id="_0.234" data-name="+0.234" class="cls-15" transform="translate(638.815 189.784)"><tspan x="0" y="0">+0.234</tspan></text>
      <path id="Path_13767" data-name="Path 13767" class="cls-14" d="M512.949,146.251l-4.883-6.881-4.9,6.881h2.713V164.7h4.353V146.251Z" transform="translate(117.32 32.503)"/>
      <text id="LOREM" class="cls-16" transform="translate(633.574 177.545)"><tspan x="0" y="0">LOREM</tspan></text>
      <line id="Line_99" data-name="Line 99" class="cls-17" x2="67.133" transform="translate(619.207 201.95)"/>
      <rect id="Rectangle_1820" data-name="Rectangle 1820" class="cls-18" width="51.854" height="13.034" transform="translate(634.486 218.98)"/>
      <rect id="Rectangle_1821" data-name="Rectangle 1821" class="cls-11" width="13.034" height="13.034" transform="translate(673.294 218.98)"/>
      <text id="_-0.234" data-name="-0.234" class="cls-19" transform="translate(638.815 225.609)"><tspan x="0" y="0">-0.234</tspan></text>
      <path id="Path_13768" data-name="Path 13768" class="cls-18" d="M503.17,186.048l4.9,6.893,4.883-6.893h-2.713V167.6h-4.353v18.448Z" transform="translate(117.32 39.085)"/>
      <text id="IPSUM" class="cls-16" transform="translate(633.574 212.357)"><tspan x="0" y="0">IPSUM</tspan></text>
      <line id="Line_100" data-name="Line 100" class="cls-17" x2="67.133" transform="translate(619.207 236.762)"/>
      <rect id="Rectangle_1822" data-name="Rectangle 1822" class="cls-18" width="51.854" height="13.034" transform="translate(634.486 253.804)"/>
      <rect id="Rectangle_1823" data-name="Rectangle 1823" class="cls-11" width="13.034" height="13.034" transform="translate(673.294 253.804)"/>
      <text id="_-1.234" data-name="-1.234" class="cls-19" transform="translate(638.815 260.433)"><tspan x="0" y="0">-1.234</tspan></text>
      <path id="Path_13769" data-name="Path 13769" class="cls-18" d="M503.17,214.288l4.9,6.881,4.883-6.881h-2.713V195.84h-4.353v18.448Z" transform="translate(117.32 45.67)"/>
      <text id="DOLOR" class="cls-16" transform="translate(633.574 247.181)"><tspan x="0" y="0">DOLOR</tspan></text>
      <line id="Line_101" data-name="Line 101" class="cls-17" x2="67.133" transform="translate(619.207 271.586)"/>
      <rect id="Rectangle_1824" data-name="Rectangle 1824" class="cls-14" width="51.854" height="13.034" transform="translate(634.486 288.629)"/>
      <rect id="Rectangle_1825" data-name="Rectangle 1825" class="cls-11" width="13.034" height="13.034" transform="translate(673.294 288.629)"/>
      <text id="_0.234-2" data-name="+0.234" class="cls-15" transform="translate(638.815 294.245)"><tspan x="0" y="0">+0.234</tspan></text>
      <path id="Path_13770" data-name="Path 13770" class="cls-14" d="M512.949,230.963l-4.883-6.893-4.9,6.893h2.713v18.448h4.353V230.963Z" transform="translate(117.32 52.252)"/>
      <text id="AMET" class="cls-16" transform="translate(633.574 282.006)"><tspan x="0" y="0">AMET</tspan></text>
      <line id="Line_102" data-name="Line 102" class="cls-17" x2="67.133" transform="translate(619.207 306.398)"/>
      <rect id="Rectangle_1826" data-name="Rectangle 1826" class="cls-14" width="51.854" height="13.034" transform="translate(634.486 323.441)"/>
      <rect id="Rectangle_1827" data-name="Rectangle 1827" class="cls-11" width="13.034" height="13.034" transform="translate(673.294 323.441)"/>
      <text id="_0.234-3" data-name="+0.234" class="cls-15" transform="translate(638.815 329.07)"><tspan x="0" y="0">+0.234</tspan></text>
      <path id="Path_13771" data-name="Path 13771" class="cls-14" d="M512.949,259.191l-4.883-6.881-4.9,6.881h2.713v18.46h4.353v-18.46Z" transform="translate(117.32 58.836)"/>
      <text id="VENIAM" class="cls-16" transform="translate(633.574 316.818)"><tspan x="0" y="0">VENIAM</tspan></text>
      <line id="Line_103" data-name="Line 103" class="cls-17" x2="67.133" transform="translate(619.207 341.223)"/>
      <circle id="Ellipse_1269" data-name="Ellipse 1269" class="cls-11" cx="30.866" cy="30.866" r="30.866" transform="translate(123.786 147.9)"/>
      <path id="Path_13772" data-name="Path 13772" class="cls-11" d="M147.818,150.88,164.1,165.074l-21.4-4.328Z" transform="translate(33.273 35.187)"/>
      <text id="BUY" class="cls-20" transform="translate(134.28 182.115)"><tspan x="0" y="0">BUY</tspan></text>
      <circle id="Ellipse_1270" data-name="Ellipse 1270" class="cls-10" cx="34.491" cy="34.491" r="34.491" transform="translate(832.877 145.422)"/>
      <path id="Path_13773" data-name="Path 13773" class="cls-10" d="M683.908,152.49,660.17,168.114l29.448-4.587Z" transform="translate(153.926 35.562)"/>
      <text id="SELL" class="cls-20" transform="translate(845.221 181.523)"><tspan x="0" y="0">SELL</tspan></text>
      <path id="Path_13774" data-name="Path 13774" class="cls-21" d="M652.674,267.1c0,6.055-7.707,13.269-17.721,18.078s-17.424,14.872-16.845,32.913-3,25.637-13.7,31.544-15.291,19.435-12.332,29.842-10.889,24.429-7.4,35.762h76.3s4.168-14.292,0-27.82-9.014-14.218-9.7-28.091,9.027-20.125,7.978-30.521-4.859-9.027-4.859-18.732,2.466-7.461,4.859-14.28S657.878,274.376,652.674,267.1Z" transform="translate(183.237 75.418)"/>
      <path id="Path_13775" data-name="Path 13775" class="cls-22" d="M645.921,272.39c.345,11.863-13.17,24.663-16.3,38.031s3.786,24.91-1.406,36.822-13.158,20.249-13.565,32.062,2.466,26.513,0,34.763" transform="translate(190.348 76.651)"/>
      <path id="Path_13776" data-name="Path 13776" class="cls-23" d="M659.813,406.852s-5.081-10.827-2.306-31.409,20.8-19.879,27.968-22.2,11.1-7.165,11.1-16.413,4.624-13.417,14.342-13.873,18.954.69,22.2-6.943,17.807-15.254,30.052-12.023c-9.249,4.624-6.93,16.191-6.7,21.506s-.234,12.258-11.333,14.342-9.717,11.53-6.474,16.87,7.855,15.266-4.624,18.5-20.347,17.72-11.1,31.643Z" transform="translate(200.157 83.842)"/>
      <path id="Path_13777" data-name="Path 13777" class="cls-22" d="M752.739,304.17c-11.777,2.4-13.084,14.169-20.483,22.012s-16.13,7.2-20.7,18.5-.752,19.2-6.733,24.836-27.931,22.061-26.18,37.081" transform="translate(205.254 84.061)"/>
      <path id="Path_13778" data-name="Path 13778" class="cls-14" d="M731.776,263.35s9.249,8.792,8.1,19.891-10.087,18.793-12.023,27.746c-1.85,8.558,1.85,16.413,3,21.506s1.394,12.245-12.948,17.338-15.488,15.488-9.014,22.2,6.943,14.8-8.089,23.356-13.922,20.766-13.922,20.766H621.26s-2.775-1.813,4.39-11.986,11.1-14.564,11.1-23.812-2.306-15.488,3.7-23.812,19.8-8.336,24.971-13.873,1.307-22.443,2.318-30.3,8.089-8.546,18.5-10.4,13.639-4.624,14.564-12.492,5.784-14.8,13.639-16.993S733.169,269.824,731.776,263.35Z" transform="translate(191.776 74.543)"/>
      <path id="Path_13779" data-name="Path 13779" class="cls-22" d="M727.5,267.1c1.381,6.252-6.6,10.753-14.218,17.7s-13.873,18.732-15.957,27.746-10.063,17.264-15.957,26.34S668.4,362.1,666.114,374.964c-4.168,23.43-22.555,40.312-22.555,40.312" transform="translate(197.098 75.418)"/>
      <path id="Path_13780" data-name="Path 13780" class="cls-24" d="M110.918,267.1c0,6.055,7.707,13.269,17.733,18.078s17.412,14.872,16.833,32.913,3,25.637,13.7,31.544,15.291,19.435,12.332,29.842,10.876,24.429,7.4,35.762h-76.3s-4.156-14.292,0-27.82,9.014-14.218,9.717-28.091-9.039-20.125-7.991-30.521,4.933-9.027,4.933-18.732-2.466-7.461-4.933-14.28S105.739,274.376,110.918,267.1Z" transform="translate(70.542 75.418)"/>
      <path id="Path_13781" data-name="Path 13781" class="cls-22" d="M108.741,272.39c-.345,11.863,13.182,24.663,16.3,38.031s-3.773,24.91,1.406,36.822,13.158,20.249,13.565,32.062-2.466,26.513,0,34.763" transform="translate(72.399 76.651)"/>
      <path id="Path_13782" data-name="Path 13782" class="cls-25" d="M109.051,406.852s5.093-10.827,2.318-31.409-20.816-19.879-27.98-22.2-11.1-7.165-11.1-16.413-4.563-13.417-14.329-13.873-18.966.69-22.2-6.943S17.958,300.763,5.7,303.994c9.249,4.624,6.943,16.191,6.708,21.506s.234,12.258,11.333,14.342,9.7,11.53,6.474,16.87-7.868,15.266,4.624,18.5,20.347,17.72,11.1,31.643Z" transform="translate(48.375 83.842)"/>
      <path id="Path_13783" data-name="Path 13783" class="cls-22" d="M10,304.17c11.777,2.4,13.084,14.169,20.5,22.012s16.13,7.2,20.7,18.5.74,19.2,6.721,24.836S85.852,391.576,84.113,406.6" transform="translate(49.378 84.061)"/>
      <path id="Path_13784" data-name="Path 13784" class="cls-14" d="M39.549,263.35s-9.249,8.792-8.09,19.891,10.087,18.793,12.023,27.746c1.85,8.558-1.85,16.413-3.009,21.506s-1.381,12.245,12.948,17.338,15.488,15.488,9.014,22.2-6.93,14.8,8.1,23.356,13.91,20.766,13.91,20.766h65.629s2.775-1.813-4.4-11.986-11.1-14.564-11.1-23.812,2.318-15.488-3.7-23.812-19.8-8.336-25.033-13.873-1.307-22.443-2.306-30.3-8.09-8.546-18.5-10.4S71.4,297.348,70.476,289.481s-5.784-14.8-13.651-16.993S38.106,269.824,39.549,263.35Z" transform="translate(54.358 74.543)"/>
      <path id="Path_13785" data-name="Path 13785" class="cls-22" d="M37.14,267.1c-1.393,6.252,6.585,10.753,14.218,17.7S65.232,303.528,67.316,312.6s10.05,17.264,15.945,26.34S96.2,362.1,98.527,374.964c4.156,23.43,22.542,40.312,22.542,40.312" transform="translate(55.668 75.418)"/>
      <ellipse id="Ellipse_1271" data-name="Ellipse 1271" class="cls-26" cx="91.094" cy="26.821" rx="91.094" ry="26.821" transform="translate(131.691 504.703)"/>
      <rect id="Rectangle_1828" data-name="Rectangle 1828" class="cls-6" width="241.847" height="105.978" rx="8.16" transform="translate(349.331 401.561)"/>
      <rect id="Rectangle_1829" data-name="Rectangle 1829" class="cls-9" width="241.847" height="105.978" rx="8.16" transform="translate(346.334 398.861)"/>
      <rect id="Rectangle_1830" data-name="Rectangle 1830" class="cls-27" width="33.53" height="7.794" rx="1.25" transform="translate(531.53 412.771)"/>
      <rect id="Rectangle_1831" data-name="Rectangle 1831" class="cls-14" width="33.53" height="7.794" rx="1.25" transform="translate(491.045 412.771)"/>
      <path id="Path_13786" data-name="Path 13786" class="cls-12" d="M252.763,415.648h221.71a10.075,10.075,0,0,0,10.075-10.075v-79.4L427.9,384.129,404.17,365.421l-27.919,19.731L343.831,342.5l-47.4,42.285-17.005-16.3-22.887,26.7L242.7,378.419v27.129a10.062,10.062,0,0,0,10.063,10.1Z" transform="translate(103.634 89.19)"/>
      <path id="Path_13787" data-name="Path 13787" class="cls-28" d="M242.7,395.694a10.062,10.062,0,0,0,10.063,10.075h3.773V385.3L242.7,368.54Z" transform="translate(103.634 99.069)"/>
      <path id="Path_13788" data-name="Path 13788" class="cls-29" d="M310.64,371.13l16.993,16.3V418.3H310.64Z" transform="translate(72.43 86.54)"/>
      <path id="Path_13789" data-name="Path 13789" class="cls-30" d="M362.81,350.03,395.242,392.7v30.521H362.81Z" transform="translate(84.594 81.62)"/>
      <path id="Path_13790" data-name="Path 13790" class="cls-31" d="M411.8,368.6l23.714,18.719v31.569H411.8Z" transform="translate(96.016 85.95)"/>
      <path id="Path_13791" data-name="Path 13791" class="cls-27" d="M256.339,382.385a2.022,2.022,0,1,1-.592-1.442,2.035,2.035,0,0,1,.592,1.442Z" transform="translate(105.865 101.823)"/>
      <path id="Path_13792" data-name="Path 13792" class="cls-27" d="M288.679,373.863a2.035,2.035,0,1,1-2.022-2.022A2.035,2.035,0,0,1,288.679,373.863Z" transform="translate(113.406 99.839)"/>
      <circle id="Ellipse_1272" data-name="Ellipse 1272" class="cls-27" cx="2.035" cy="2.035" r="2.035" transform="translate(477.801 472.283)"/>
      <path id="Path_13793" data-name="Path 13793" class="cls-27" d="M395.289,373.512a2.035,2.035,0,1,1-2.022-2.022A2.035,2.035,0,0,1,395.289,373.512Z" transform="translate(138.263 99.757)"/>
      <path id="Path_13794" data-name="Path 13794" class="cls-14" d="M376.059,358.385a2.022,2.022,0,1,1-.592-1.442,2.035,2.035,0,0,1,.592,1.442Z" transform="translate(133.779 96.227)"/>
      <circle id="Ellipse_1273" data-name="Ellipse 1273" class="cls-14" cx="2.035" cy="2.035" r="2.035" transform="translate(445.369 429.616)"/>
      <path id="Path_13795" data-name="Path 13795" class="cls-14" d="M274.9,360.865a2.022,2.022,0,1,1-.592-1.442,2.035,2.035,0,0,1,.592,1.442Z" transform="translate(110.193 96.805)"/>
      <rect id="Rectangle_1832" data-name="Rectangle 1832" class="cls-32" width="284.391" height="158.609" rx="8.82" transform="translate(280.705 118.822)"/>
      <rect id="Rectangle_1833" data-name="Rectangle 1833" class="cls-33" width="284.391" height="158.609" rx="8" transform="translate(277.733 115.999)"/>
      <line id="Line_104" data-name="Line 104" class="cls-22" y2="136.301" transform="translate(298.019 138.319)"/>
      <rect id="Rectangle_1834" data-name="Rectangle 1834" class="cls-34" width="2.787" height="57.058" transform="translate(296.625 182.712)"/>
      <line id="Line_105" data-name="Line 105" class="cls-22" y2="136.301" transform="translate(303.963 138.319)"/>
      <rect id="Rectangle_1835" data-name="Rectangle 1835" class="cls-34" width="2.787" height="29.127" transform="translate(302.569 171.256)"/>
      <line id="Line_106" data-name="Line 106" class="cls-22" y2="136.301" transform="translate(309.906 138.319)"/>
      <rect id="Rectangle_1836" data-name="Rectangle 1836" class="cls-34" width="2.787" height="57.058" transform="translate(308.513 150.798)"/>
      <line id="Line_107" data-name="Line 107" class="cls-22" y2="136.301" transform="translate(315.863 138.319)"/>
      <rect id="Rectangle_1837" data-name="Rectangle 1837" class="cls-34" width="2.787" height="57.058" transform="translate(314.469 167.705)"/>
      <line id="Line_108" data-name="Line 108" class="cls-22" y2="136.301" transform="translate(321.806 138.319)"/>
      <rect id="Rectangle_1838" data-name="Rectangle 1838" class="cls-34" width="2.787" height="33.061" transform="translate(320.413 164.499)"/>
      <line id="Line_109" data-name="Line 109" class="cls-22" y2="136.301" transform="translate(327.75 138.319)"/>
      <rect id="Rectangle_1839" data-name="Rectangle 1839" class="cls-34" width="2.787" height="30.188" transform="translate(326.357 173.34)"/>
      <line id="Line_110" data-name="Line 110" class="cls-22" y2="136.301" transform="translate(333.694 138.319)"/>
      <rect id="Rectangle_1840" data-name="Rectangle 1840" class="cls-34" width="2.787" height="29.559" transform="translate(332.202 179.593)"/>
      <line id="Line_111" data-name="Line 111" class="cls-22" y2="136.301" transform="translate(339.65 138.319)"/>
      <rect id="Rectangle_1841" data-name="Rectangle 1841" class="cls-34" width="2.787" height="38.993" transform="translate(338.257 200.766)"/>
      <line id="Line_112" data-name="Line 112" class="cls-22" y2="136.301" transform="translate(345.594 138.319)"/>
      <line id="Line_113" data-name="Line 113" class="cls-22" y2="136.301" transform="translate(351.538 138.319)"/>
      <rect id="Rectangle_1842" data-name="Rectangle 1842" class="cls-34" width="2.787" height="28.523" transform="translate(350.144 211.235)"/>
      <line id="Line_114" data-name="Line 114" class="cls-22" y2="136.301" transform="translate(357.482 138.319)"/>
      <rect id="Rectangle_1843" data-name="Rectangle 1843" class="cls-34" width="2.787" height="46.811" transform="translate(356.088 182.712)"/>
      <line id="Line_115" data-name="Line 115" class="cls-22" y2="136.301" transform="translate(363.438 138.319)"/>
      <rect id="Rectangle_1844" data-name="Rectangle 1844" class="cls-34" width="2.787" height="48.019" transform="translate(362.044 163.204)"/>
      <line id="Line_116" data-name="Line 116" class="cls-22" y2="136.301" transform="translate(369.382 138.319)"/>
      <rect id="Rectangle_1845" data-name="Rectangle 1845" class="cls-34" width="2.787" height="24.38" transform="translate(367.988 159.911)"/>
      <line id="Line_117" data-name="Line 117" class="cls-22" y2="136.301" transform="translate(375.326 138.319)"/>
      <rect id="Rectangle_1846" data-name="Rectangle 1846" class="cls-34" width="2.787" height="35.009" transform="translate(373.932 166.94)"/>
      <line id="Line_118" data-name="Line 118" class="cls-22" y2="136.301" transform="translate(381.269 138.319)"/>
      <rect id="Rectangle_1847" data-name="Rectangle 1847" class="cls-34" width="2.787" height="36.415" transform="translate(379.876 182.712)"/>
      <line id="Line_119" data-name="Line 119" class="cls-22" y2="136.301" transform="translate(387.225 138.319)"/>
      <rect id="Rectangle_1848" data-name="Rectangle 1848" class="cls-34" width="2.787" height="37.056" transform="translate(385.82 172.095)"/>
      <line id="Line_120" data-name="Line 120" class="cls-22" y2="136.301" transform="translate(393.169 138.319)"/>
      <rect id="Rectangle_1849" data-name="Rectangle 1849" class="cls-34" width="2.787" height="23.763" transform="translate(391.776 167.446)"/>
      <line id="Line_121" data-name="Line 121" class="cls-22" y2="136.301" transform="translate(399.113 138.319)"/>
      <rect id="Rectangle_1850" data-name="Rectangle 1850" class="cls-34" width="2.787" height="50.276" transform="translate(397.72 171.861)"/>
      <line id="Line_122" data-name="Line 122" class="cls-22" y2="136.301" transform="translate(405.057 138.319)"/>
      <rect id="Rectangle_1851" data-name="Rectangle 1851" class="cls-34" width="2.787" height="46.539" transform="translate(403.663 170.159)"/>
      <line id="Line_123" data-name="Line 123" class="cls-22" y2="136.301" transform="translate(411.013 138.319)"/>
      <rect id="Rectangle_1852" data-name="Rectangle 1852" class="cls-34" width="2.787" height="12.862" transform="translate(409.607 162.094)"/>
      <line id="Line_124" data-name="Line 124" class="cls-22" y2="136.301" transform="translate(416.957 138.319)"/>
      <rect id="Rectangle_1853" data-name="Rectangle 1853" class="cls-34" width="2.787" height="24.552" transform="translate(415.564 168.469)"/>
      <line id="Line_125" data-name="Line 125" class="cls-22" y2="136.301" transform="translate(422.901 138.319)"/>
      <rect id="Rectangle_1854" data-name="Rectangle 1854" class="cls-34" width="2.787" height="19.25" transform="translate(421.507 173.082)"/>
      <line id="Line_126" data-name="Line 126" class="cls-22" y2="136.301" transform="translate(428.845 138.319)"/>
      <rect id="Rectangle_1855" data-name="Rectangle 1855" class="cls-34" width="2.787" height="20.816" transform="translate(427.451 181.923)"/>
      <line id="Line_127" data-name="Line 127" class="cls-22" y2="136.301" transform="translate(434.801 138.319)"/>
      <rect id="Rectangle_1856" data-name="Rectangle 1856" class="cls-34" width="2.787" height="25.835" transform="translate(433.395 180.628)"/>
      <line id="Line_128" data-name="Line 128" class="cls-22" y2="136.301" transform="translate(440.745 138.319)"/>
      <rect id="Rectangle_1857" data-name="Rectangle 1857" class="cls-34" width="2.787" height="25.033" transform="translate(439.351 178.84)"/>
      <line id="Line_129" data-name="Line 129" class="cls-22" y2="136.301" transform="translate(446.688 138.319)"/>
      <rect id="Rectangle_1858" data-name="Rectangle 1858" class="cls-34" width="2.787" height="14.292" transform="translate(445.295 182.712)"/>
      <line id="Line_130" data-name="Line 130" class="cls-22" y2="136.301" transform="translate(452.632 138.319)"/>
      <rect id="Rectangle_1859" data-name="Rectangle 1859" class="cls-34" width="2.787" height="27.376" transform="translate(451.239 186.03)"/>
      <line id="Line_131" data-name="Line 131" class="cls-22" y2="136.301" transform="translate(458.588 138.319)"/>
      <rect id="Rectangle_1860" data-name="Rectangle 1860" class="cls-34" width="2.787" height="49.018" transform="translate(457.183 193.836)"/>
      <line id="Line_132" data-name="Line 132" class="cls-22" y2="136.301" transform="translate(464.532 138.319)"/>
      <rect id="Rectangle_1861" data-name="Rectangle 1861" class="cls-34" width="2.787" height="39.683" transform="translate(463.139 196.968)"/>
      <line id="Line_133" data-name="Line 133" class="cls-22" y2="136.301" transform="translate(470.476 138.319)"/>
      <rect id="Rectangle_1862" data-name="Rectangle 1862" class="cls-34" width="2.787" height="13.848" transform="translate(469.083 195.303)"/>
      <line id="Line_134" data-name="Line 134" class="cls-22" y2="136.301" transform="translate(476.42 138.319)"/>
      <rect id="Rectangle_1863" data-name="Rectangle 1863" class="cls-34" width="2.787" height="16.315" transform="translate(475.026 184.451)"/>
      <line id="Line_135" data-name="Line 135" class="cls-22" y2="136.301" transform="translate(482.376 138.319)"/>
      <rect id="Rectangle_1864" data-name="Rectangle 1864" class="cls-34" width="2.787" height="43.346" transform="translate(480.97 187.226)"/>
      <line id="Line_136" data-name="Line 136" class="cls-22" y2="136.301" transform="translate(488.32 138.319)"/>
      <rect id="Rectangle_1865" data-name="Rectangle 1865" class="cls-34" width="2.787" height="40.546" transform="translate(486.926 210.101)"/>
      <line id="Line_137" data-name="Line 137" class="cls-22" y2="136.301" transform="translate(494.264 138.319)"/>
      <line id="Line_138" data-name="Line 138" class="cls-22" y2="136.301" transform="translate(500.208 138.319)"/>
      <rect id="Rectangle_1866" data-name="Rectangle 1866" class="cls-34" width="2.787" height="26.994" transform="translate(498.814 214.75)"/>
      <line id="Line_139" data-name="Line 139" class="cls-22" y2="136.301" transform="translate(506.164 138.319)"/>
      <rect id="Rectangle_1867" data-name="Rectangle 1867" class="cls-34" width="2.787" height="32.679" transform="translate(504.758 200.47)"/>
      <line id="Line_140" data-name="Line 140" class="cls-22" y2="136.301" transform="translate(512.108 138.319)"/>
      <rect id="Rectangle_1868" data-name="Rectangle 1868" class="cls-34" width="2.787" height="45.898" transform="translate(510.714 164.203)"/>
      <line id="Line_141" data-name="Line 141" class="cls-22" y2="136.301" transform="translate(518.051 138.319)"/>
      <rect id="Rectangle_1869" data-name="Rectangle 1869" class="cls-34" width="2.787" height="36.687" transform="translate(516.658 155.928)"/>
      <line id="Line_142" data-name="Line 142" class="cls-22" y2="136.301" transform="translate(523.995 138.319)"/>
      <rect id="Rectangle_1870" data-name="Rectangle 1870" class="cls-34" width="2.787" height="16.253" transform="translate(522.602 156.261)"/>
      <line id="Line_143" data-name="Line 143" class="cls-22" y2="136.301" transform="translate(529.951 138.319)"/>
      <rect id="Rectangle_1871" data-name="Rectangle 1871" class="cls-34" width="2.787" height="19.768" transform="translate(528.546 164.375)"/>
      <line id="Line_144" data-name="Line 144" class="cls-22" y2="136.301" transform="translate(535.895 138.319)"/>
      <rect id="Rectangle_1872" data-name="Rectangle 1872" class="cls-34" width="2.787" height="23.726" transform="translate(534.502 152.352)"/>
      <line id="Line_145" data-name="Line 145" class="cls-22" y2="136.301" transform="translate(541.839 138.319)"/>
      <rect id="Rectangle_1873" data-name="Rectangle 1873" class="cls-34" width="2.787" height="27.339" transform="translate(540.446 158.691)"/>
      <rect id="Rectangle_1874" data-name="Rectangle 1874" class="cls-34" width="2.787" height="31.89" transform="translate(492.87 222.124)"/>
      <path id="Path_13796" data-name="Path 13796" class="cls-9" d="M461.6,83.41H196.925a9.865,9.865,0,0,0-9.865,9.865v17.881h284.4V93.275A9.865,9.865,0,0,0,461.6,83.41Z" transform="translate(90.661 32.589)"/>
      <text id="PreIPO" class="cls-35" transform="translate(284.092 133.167)"><tspan x="0" y="0">PreIPO</tspan></text>
      <rect id="Rectangle_1875" data-name="Rectangle 1875" class="cls-34" width="2.787" height="30.607" transform="translate(344.09 227.538)"/>
      <path id="Path_13797" data-name="Path 13797" class="cls-36" d="M138.88,216.065,108.569,173.41l-30.3,42.655H95.1v57.317h26.932V216.065Z" transform="translate(18.25 40.44)"/>
      <path id="Path_13798" data-name="Path 13798" class="cls-37" d="M694.03,244.775l30.385,42.766L754.8,244.775H737.918V187.31H710.912v57.465Z" transform="translate(161.821 43.681)"/>
      <path id="Path_13799" data-name="Path 13799" class="cls-34" d="M222.637,236.567H177.775a2.035,2.035,0,0,1-2.01-2.75l8.743-32.3a3.884,3.884,0,0,1,3.514-2.75h44.862a2.035,2.035,0,0,1,2.01,2.75l-8.755,32.321A3.86,3.86,0,0,1,222.637,236.567Z" transform="translate(87.997 59.485)"/>
      <path id="Path_13800" data-name="Path 13800" class="cls-38" d="M221.707,234.167H178.855a1.11,1.11,0,0,1-1.11-1.517l8.324-30.73A2.121,2.121,0,0,1,188,200.39h42.852a1.122,1.122,0,0,1,1.11,1.529L223.7,232.65a2.133,2.133,0,0,1-2,1.517Z" transform="translate(88.471 59.863)"/>
      <path id="Path_13801" data-name="Path 13801" class="cls-39" d="M221.707,234.167H178.855a1.11,1.11,0,0,1-1.11-1.517l8.324-30.73A2.121,2.121,0,0,1,188,200.39h42.852a1.122,1.122,0,0,1,1.11,1.529L223.7,232.65a2.133,2.133,0,0,1-2,1.517Z" transform="translate(88.471 59.863)"/>
      <path id="Path_13802" data-name="Path 13802" class="cls-40" d="M223.7,231.64l7.288-26.92-11.419,11.444-.567-3.28-11.592,13.441-.321-3.1-2,1.936-.419-12.7-10.186,8.5-1.061-4.057-9.3,6.659-.863-3.354-3.021,2.158-2.466,9.249a1.11,1.11,0,0,0,1.11,1.517h42.852a2.133,2.133,0,0,0,1.961-1.492Z" transform="translate(88.478 60.873)"/>
      <path id="Path_13803" data-name="Path 13803" class="cls-27" d="M218.849,204.8h-9a.728.728,0,0,1-.728-.987l.185-.678a1.393,1.393,0,0,1,1.233-.987h9.039a.728.728,0,0,1,.715.987l-.173.678A1.393,1.393,0,0,1,218.849,204.8Z" transform="translate(95.793 60.274)"/>
      <path id="Path_13804" data-name="Path 13804" class="cls-14" d="M208.483,204.8h-9.039a.728.728,0,0,1-.715-.987l.173-.678a1.394,1.394,0,0,1,1.233-.987h9.027a.728.728,0,0,1,.728.987l-.185.678a1.393,1.393,0,0,1-1.221.986Z" transform="translate(93.371 60.274)"/>
      <path id="Path_13805" data-name="Path 13805" class="cls-41" d="M225.528,227.324l.974-5.142s1.135-8.768-3.86-11.752l-.789,3.034a1.813,1.813,0,0,1-2.343,1.233l-4.131-1.443-.21.691a1.233,1.233,0,0,0,.765,1.5c.9.308,2.047.839,2.232,1.5.308,1.134.321,2.984,2.627,4.168l-2.306,2.466Z" transform="translate(97.203 62.204)"/>
      <path id="Path_13806" data-name="Path 13806" class="cls-42" d="M216.38,222.126l3.021-2.466a8.127,8.127,0,0,1,6.869,6.955l-2.787,5.549Z" transform="translate(97.497 64.357)"/>
      <path id="Path_13807" data-name="Path 13807" class="cls-43" d="M102.15,407.4l-4.02,6.795s1.554,6.166,5.87,8.953a53.59,53.59,0,0,1,5.858,4.452,11.493,11.493,0,0,0,6.511,2.762c2.775.234,6.092.37,6.684-.21,1.024-1.036-6.486-7.4-6.486-7.4l-3.5-7.72.308-6.7Z" transform="translate(69.926 108.13)"/>
      <path id="Path_13808" data-name="Path 13808" class="cls-43" d="M162.358,417.158l-1.813,9.5a4.476,4.476,0,0,0,3.625,5.266,16.55,16.55,0,0,0,4.205.173c6.166-.469,8.336-2.38,13.565-3.354s11.888-5.142,11.271-7.3S177.7,418.65,177.7,418.65l-2.466-3.44Z" transform="translate(84.46 109.951)"/>
      <path id="Path_13809" data-name="Path 13809" class="cls-11" d="M183.75,284.27l2.318,73.188-6.338,90.489s-9.569,2.775-16.031,0c0,0-4.328-63.619-2.158-88.948l-15.131-71.03Z" transform="translate(81.183 79.421)"/>
      <path id="Path_13810" data-name="Path 13810" class="cls-11" d="M162.558,278.331l-18.177,78.922-29.226,85.877a45.934,45.934,0,0,0-15.525-4.094s12.06-62.62,20.618-86.555l4.3-75.9Z" transform="translate(70.276 77.628)"/>
      <path id="Path_13811" data-name="Path 13811" class="cls-44" d="M190.437,286.082l-34.676,3.441,2.577-11.222-38.006-1.8-2.6,45.923c8.238-3.181,20.544-7.313,33.049-11.32l3.552-15.4,2.849,13.355c13.4-4.242,26.254-8.151,33.653-10.371Z" transform="translate(74.496 77.609)"/>
      <path id="Path_13812" data-name="Path 13812" class="cls-11" d="M130.911,190.008c-9.483-.555-14.8,4.082-18.88,14.416-4.427,11.1-9.865,32.728-14.194,44.813-4.563,12.739,4.082,31.569,32.358,22.308Z" transform="translate(69.589 57.433)"/>
      <path id="Path_13813" data-name="Path 13813" class="cls-44" d="M129.855,261.644l.173-19.509-5.278-9.865S113.6,260.3,98.15,254.134C101.96,262.125,111.986,267.5,129.855,261.644Z" transform="translate(69.931 67.297)"/>
      <path id="Path_13814" data-name="Path 13814" class="cls-41" d="M161.676,149.3l3.453,11.2s6.005,6.659,6.005,14.379a25.55,25.55,0,0,1-1.332,8.176,5.833,5.833,0,0,1-6.252,3.847l-2.54-.3-3.071,17.585H129.7l7.6-26.242,13.737-26.377Z" transform="translate(77.287 47.951)"/>
      <path id="Path_13815" data-name="Path 13815" class="cls-45" d="M166.472,140.308c-4.39-1.862-6.671,3.219-18.781,2.466-13.725-.937-22.024,6.659-18.781,15.316-8.792,10.667-.148,20.692,3.958,24.491a6.684,6.684,0,0,1,2.1,4.464l.271,3.958s12.591.789,20.581-8.41a13.922,13.922,0,0,0,2.96-5.882,4.933,4.933,0,0,1-3.465,1.492,5.475,5.475,0,0,1,0-10.926,4.933,4.933,0,0,1,3.971,2.109,47.586,47.586,0,0,0-3.478-14.021C170.072,155.094,170.874,142.17,166.472,140.308Z" transform="translate(76.215 45.759)"/>
      <path id="Path_13816" data-name="Path 13816" class="cls-11" d="M240.505,229.049l-23.43,16.981-24.663-39.042a36.465,36.465,0,0,0-30.829-17.018H127.128a10.013,10.013,0,0,0-9.964,11.037l7.485,74.36-11.74,31.3a103.464,103.464,0,0,0,24.269,9.125l4.205-15.513,1.652,16.648c31.211,5.315,53.026-7.115,53.026-7.115l-5.4-28.363-2.17-21.309s4.575,7.337,7.572,11.579c8.188,11.579,26.562,8.792,32.432,1.233s21.149-31.964,21.149-31.964A12.739,12.739,0,0,0,240.505,229.049Z" transform="translate(73.372 57.434)"/>
      <path id="Path_13817" data-name="Path 13817" class="cls-44" d="M215.259,263.483l-15.439-31.8,20.853,70.191-3.256-17.079Z" transform="translate(46.591 54.026)"/>
      <path id="Path_13818" data-name="Path 13818" class="cls-46" d="M171.02,224.32l7.091,50.917-2.158,24.712" transform="translate(39.876 52.31)"/>
      <line id="Line_146" data-name="Line 146" class="cls-46" x1="2.984" y1="29.62" transform="translate(191.696 269.971)"/>
      <circle id="Ellipse_1274" data-name="Ellipse 1274" class="cls-3" cx="20.544" cy="20.544" r="20.544" transform="translate(228.351 92.497) rotate(-22.11)"/>
      <rect id="Rectangle_1876" data-name="Rectangle 1876" class="cls-47" width="5.734" height="61.991" transform="translate(812.801 492.075)"/>
      <path id="Path_13819" data-name="Path 13819" class="cls-47" d="M644.816,447.25h42.741a3.7,3.7,0,0,1,3.7,3.7H641.08a3.7,3.7,0,0,1,3.736-3.7Z" transform="translate(149.475 104.288)"/>
      <rect id="Rectangle_1877" data-name="Rectangle 1877" class="cls-47" width="63.125" height="17.905" rx="5" transform="translate(785.092 478.19)"/>
      <path id="Path_13820" data-name="Path 13820" class="cls-48" d="M592.826,354.87a49.831,49.831,0,0,0-18.09,7.72,4.748,4.748,0,0,0-2.109,4.563c1.147,9.088,5.858,38.487,21.408,67.195a7.312,7.312,0,0,1,.691,4.933l-2.7,12.566-5.007,4.7h12.9l8.632-23.245-3.7-1.172a6.943,6.943,0,0,1-4.859-6.5l-.432-24.947a28.364,28.364,0,0,0-6.807-18.769l20.606-1.011Z" transform="translate(180.551 95.882)"/>
      <path id="Path_13821" data-name="Path 13821" class="cls-44" d="M580.183,444.246c-1.172,1.541,12.652,3.564,19.632.2,0,0,9.68-16.833,9.68-25.514,0,0-.765-1.763-6.449-1.369,0,0-3.256,19.953-6.684,22.2s-9.606.222-9.606.222S581.922,441.977,580.183,444.246Z" transform="translate(182.305 110.486)"/>
      <path id="Path_13822" data-name="Path 13822" class="cls-48" d="M619.753,381.7c-.1-.185-22.2-2.651-22.2-2.651a50.976,50.976,0,0,1-1.529,15.957c-2.257,9.236-34.676,49.265-34.676,49.265l3.4,10.778a54.642,54.642,0,0,1-31.014,1.862l21.062-12.64s19.731-67.17,31.779-79.157l22.135-7.658Z" transform="translate(171.493 96.486)"/>
      <path id="Path_13823" data-name="Path 13823" class="cls-11" d="M659.229,345.43S672,364.347,672.991,372.979s-3.478,12.134-16.82,12.714-48.981.567-48.981.567l-30.41-25.995s22.2-7.9,27.931-10.137S659.229,345.43,659.229,345.43Z" transform="translate(181.528 93.681)"/>
      <path id="Path_13824" data-name="Path 13824" class="cls-44" d="M564.6,433.66s3.7,3.539,1.233,7.485c0,0-28.992,5.142-36.859,2.812,0,0,1.64-3.7,10.494-7.979l-.654.506a1.061,1.061,0,0,0,.7,1.9C545.309,438.05,557.37,436.977,564.6,433.66Z" transform="translate(170.381 114.253)"/>
      <path id="Path_13825" data-name="Path 13825" class="cls-43" d="M604.64,273.282c-6.043-6.437-8.472-11.838-7.263-18.189,1.788-9.347,17.264-17.412,30.94-10.975,14.292,6.721,10.235,24.75,25.181,32.259,11.678,5.87,19.188-2.6,33.3-.185,23.344,4.02,46.046,34.812,42.223,58.069-6.252,38.018-83.559,56.725-104.979,35.416C605,350.811,632.991,303.519,604.64,273.282Z" transform="translate(186.26 69.519)"/>
      <path id="Path_13826" data-name="Path 13826" class="cls-49" d="M620.72,356.359s-14.8-14.1-22.1-23.43a19.817,19.817,0,0,1-3.366-17.832c3.33-11.222,9.249-22.838,9.791-24.663.826-2.775,17.437-2.664,17.437-2.664S655.162,308.98,668,344.915L653.584,349.4s-8.533-14.317-16.968-23.43c0,0,14.588,19.274,15.106,27.129Z" transform="translate(185.644 80.237)"/>
      <path id="Path_13827" data-name="Path 13827" class="cls-50" d="M601.41,277.8c.173.58,4.513,14.946,4.846,15.242s9.507.789,13.824-2.158l-7.325-15.316Z" transform="translate(187.271 77.393)"/>
      <path id="Path_13828" data-name="Path 13828" class="cls-48" d="M610.144,252.988s-7.818,3.3-13.145,14.613-1.344,16.537,3.7,17.264,12.455.6,20.347-6.7S620.317,249.079,610.144,252.988Z" transform="translate(185.652 72.019)"/>
      <path id="Path_13829" data-name="Path 13829" class="cls-43" d="M614.3,274s5.895-16.537-8.768-16.734l-3.453,2.466s-5.377-9.162,3.453-13.565A18.793,18.793,0,0,1,631.3,257.6c3.7,11.9,1.554,19.583-4.7,25.28s-8.829-.765-8.829-.765,3.4-5.327,2.022-8.176-4.587.592-4.587.592Z" transform="translate(187.048 70.136)"/>
      <path id="Path_13830" data-name="Path 13830" class="cls-48" d="M613,271.031s2.984-8.521,6.967-5.13-3.231,7.868-6.067,9.323Z" transform="translate(189.973 74.952)"/>
      <path id="Path_13831" data-name="Path 13831" class="cls-48" d="M591.28,346.6l10.877-10.482,15.057,6.363s14.983,2.318,23.566,0l8.632-2.331,19.385-6.03,3.046,8.632a5.154,5.154,0,0,1-1.9,5.944,33.612,33.612,0,0,1-4.933,3.046c-2.553,1.122-62.891-.765-62.891-.765Z" transform="translate(184.909 91.044)"/>
      <path id="Path_13832" data-name="Path 13832" class="cls-51" d="M637.177,349.332h-.148l-63.125-.074a2.824,2.824,0,0,1,0-5.648l63.125.062a2.825,2.825,0,0,1,.148,5.648Z" transform="translate(180.199 93.257)"/>
      <path id="Path_13833" data-name="Path 13833" class="cls-52" d="M528.158,301.78h52.594a10.013,10.013,0,0,1,9.064,5.734l24.232,51.546H548.69a6.08,6.08,0,0,1-5.66-3.86l-18.855-47.686a4.2,4.2,0,0,1,3.983-5.734Z" transform="translate(169.195 83.504)"/>
      <path id="Path_13834" data-name="Path 13834" class="cls-53" d="M558.96,324.193c1.147,3.539.3,6.98-1.874,7.683s-4.933-1.6-6.005-5.142-.3-6.98,1.874-7.67S557.826,320.654,558.96,324.193Z" transform="translate(175.424 87.505)"/>
      <path id="Path_13835" data-name="Path 13835" class="cls-54" d="M747.077,350.668a2.355,2.355,0,0,0-.555-2.01,2.663,2.663,0,0,0-2.01-.888H481.085a3.046,3.046,0,0,0-2.466,1.295,2.688,2.688,0,0,0-.2,2.688l2.861,5.8a4.032,4.032,0,0,0,3.625,2.17h257.8a2.972,2.972,0,0,0,2.96-2.294Z" transform="translate(158.532 94.227)"/>
      <path id="Path_13836" data-name="Path 13836" class="cls-54" d="M492.941,471.806a2.257,2.257,0,0,1-.913-.2A2.38,2.38,0,0,1,490.8,468.5l48.488-115.313a2.306,2.306,0,0,1,3.034-1.233,2.392,2.392,0,0,1,1.233,3.108L495.075,470.437a2.331,2.331,0,0,1-2.133,1.369Z" transform="translate(161.436 95.159)"/>
      <path id="Path_13837" data-name="Path 13837" class="cls-54" d="M546.4,471.809a2.331,2.331,0,0,1-2.133-1.431L495.8,355.053a2.392,2.392,0,0,1,1.233-3.108,2.294,2.294,0,0,1,3.033,1.233L548.55,468.492a2.38,2.38,0,0,1-1.233,3.108A2.256,2.256,0,0,1,546.4,471.809Z" transform="translate(162.602 95.156)"/>
      <path id="Path_13838" data-name="Path 13838" class="cls-54" d="M647.771,471.806a2.17,2.17,0,0,1-.913-.2,2.38,2.38,0,0,1-1.233-3.108L694.1,353.188a2.318,2.318,0,0,1,3.046-1.233,2.392,2.392,0,0,1,1.233,3.108L649.893,470.437A2.318,2.318,0,0,1,647.771,471.806Z" transform="translate(197.536 95.159)"/>
      <path id="Path_13839" data-name="Path 13839" class="cls-54" d="M701.224,471.8a2.306,2.306,0,0,1-2.121-1.369L650.615,355.1A2.392,2.392,0,0,1,651.848,352a2.294,2.294,0,0,1,3.034,1.233L703.37,468.542a2.38,2.38,0,0,1-1.233,3.108A2.17,2.17,0,0,1,701.224,471.8Z" transform="translate(198.7 95.168)"/>
    </g>
  </g>
</svg>
