<svg xmlns="http://www.w3.org/2000/svg" width="334.828" height="293.343" viewBox="0 0 334.828 293.343">
  <g id="Group_9288" data-name="Group 9288" transform="translate(0 0)">
    <path id="Path_24061" data-name="Path 24061" d="M583.755,645.575a1.31,1.31,0,0,1-.949-2.27l.09-.357-.036-.086a3.517,3.517,0,0,0-6.488.024c-1.061,2.556-2.412,5.116-2.745,7.818a10.4,10.4,0,0,0,.183,3.579,41.719,41.719,0,0,1-3.795-17.327,40.255,40.255,0,0,1,.25-4.492q.207-1.834.574-3.642a42.2,42.2,0,0,1,8.369-17.886,11.231,11.231,0,0,0,4.671-4.846,8.567,8.567,0,0,0,.779-2.341,10.573,10.573,0,0,1-.686-3.646c-.317-.481-.884-.72-1.23-1.189-1.721-2.334-4.093-1.926-5.331,1.245-2.645,1.335-2.67,3.548-1.048,5.678,1.032,1.354,1.174,3.187,2.08,4.637-.093.119-.19.235-.283.354a42.474,42.474,0,0,0-4.433,7.023,17.657,17.657,0,0,0-1.054-8.2c-1.009-2.434-2.9-4.484-4.566-6.588a3.624,3.624,0,0,0-6.455,1.78l-.01.093q.371.209.727.444a1.777,1.777,0,0,1-.716,3.233l-.036.006a17.676,17.676,0,0,0,.466,2.643c-2.137,8.263,2.476,11.272,9.062,11.407.145.075.287.149.432.22a43.351,43.351,0,0,0-2.333,10.982,41.114,41.114,0,0,0,.03,6.639l-.011-.078a10.866,10.866,0,0,0-3.709-6.274c-2.854-2.345-6.887-3.208-9.967-5.093a2.039,2.039,0,0,0-3.123,1.984l.013.082a11.929,11.929,0,0,1,1.338.645q.371.209.727.444a1.777,1.777,0,0,1-.716,3.233l-.036.005-.074.011a17.693,17.693,0,0,0,3.254,5.1c1.336,7.213,7.074,7.9,13.211,5.8h0a43.343,43.343,0,0,0,2.911,8.5h10.4c.037-.116.071-.235.1-.35a11.82,11.82,0,0,1-2.878-.172c.772-.947,1.543-1.9,2.315-2.848a.651.651,0,0,0,.049-.056c.391-.485.787-.966,1.178-1.45h0a17.311,17.311,0,0,0-.507-4.409Z" transform="translate(-401.134 -362.617)" fill="#f2f2f2"/>
    <path id="Path_24062" data-name="Path 24062" d="M518.778,212.639a59.252,59.252,0,1,1,59.252-59.252A59.252,59.252,0,0,1,518.778,212.639Zm0-117.57A58.319,58.319,0,1,0,577.1,153.388a58.319,58.319,0,0,0-58.319-58.319Z" transform="translate(-351.566 -94.136)" fill="#f2f2f2"/>
    <path id="Path_24063" data-name="Path 24063" d="M583.391,261.8h-12.6a2.333,2.333,0,1,1,0-4.665h12.6a2.333,2.333,0,0,1,0,4.665Z" transform="translate(-409.678 -181.089)" fill="#e6e6e6"/>
    <path id="Path_24064" data-name="Path 24064" d="M581.749,404.467H563.365a3.4,3.4,0,0,1,0-6.809h18.384a3.4,3.4,0,1,1,0,6.809Z" transform="translate(-405.143 -256.051)" fill="#730671"/>
    <path id="Path_24065" data-name="Path 24065" d="M573.426,330.327h-122.9a4.135,4.135,0,0,1-4.13-4.13v-36.64a4.135,4.135,0,0,1,4.13-4.13h122.9a4.135,4.135,0,0,1,4.13,4.13V326.2A4.135,4.135,0,0,1,573.426,330.327Z" transform="translate(-344.561 -196.18)" fill="#e6e6e6"/>
    <path id="Path_24066" data-name="Path 24066" d="M564.671,330.729H456.5a4.135,4.135,0,0,1-4.13-4.13V295.532a4.135,4.135,0,0,1,4.13-4.13H573.826a4.135,4.135,0,0,1,4.13,4.13v21.911a13.3,13.3,0,0,1-13.285,13.286Z" transform="translate(-347.748 -199.368)" fill="#fff"/>
    <path id="Path_24067" data-name="Path 24067" d="M555.4,312.647h-49.4a1.065,1.065,0,0,1,0-2.13h49.4a1.065,1.065,0,0,1,0,2.13Z" transform="translate(-375.793 -209.565)" fill="#730671"/>
    <path id="Path_24068" data-name="Path 24068" d="M580.408,321.986h-74.4a1.065,1.065,0,0,1,0-2.13h74.4a1.065,1.065,0,1,1,0,2.13Z" transform="translate(-375.793 -214.547)" fill="#e6e6e6"/>
    <path id="Path_24069" data-name="Path 24069" d="M580.408,332.705h-74.4a1.065,1.065,0,0,1,0-2.13h74.4a1.065,1.065,0,0,1,0,2.13Z" transform="translate(-375.793 -220.265)" fill="#e6e6e6"/>
    <path id="Path_24070" data-name="Path 24070" d="M580.408,343.425h-74.4a1.065,1.065,0,0,1,0-2.13h74.4a1.065,1.065,0,0,1,0,2.13Z" transform="translate(-375.793 -225.983)" fill="#e6e6e6"/>
    <path id="Path_24071" data-name="Path 24071" d="M580.408,354.144h-74.4a1.065,1.065,0,0,1,0-2.13h74.4a1.065,1.065,0,0,1,0,2.13Z" transform="translate(-375.793 -231.701)" fill="#e6e6e6"/>
    <path id="Path_24072" data-name="Path 24072" d="M570.265,593.816h-4.993L562.9,574.558h7.369Z" transform="translate(-300.278 -306.499)" fill="#a0616a"/>
    <path id="Path_24073" data-name="Path 24073" d="M789.637,711.648H774.284v-.194a5.976,5.976,0,0,1,5.976-5.976h0l2.8-2.128,5.233,2.128h1.34Z" transform="translate(-519.474 -419.122)" fill="#2f2e41"/>
    <path id="Path_24074" data-name="Path 24074" d="M648.855,582.4l-4.474,2.216-10.678-16.2,6.6-3.271Z" transform="translate(-338.05 -301.478)" fill="#a0616a"/>
    <path id="Path_24075" data-name="Path 24075" d="M883.058,699.784,869.3,706.6l-.086-.174a5.976,5.976,0,0,1,2.7-8.008h0l1.568-3.151,5.633-.416,1.2-.595Z" transform="translate(-569.783 -414.271)" fill="#2f2e41"/>
    <path id="Path_24076" data-name="Path 24076" d="M771.6,485.324s-5.683,7.923-1.581,21.611,1.8,25.925,2.951,28.379,3.469,4.784,1.554,6.645-2.924,3.373-1.411,3.878,6.555,35.8,6.555,35.8l8.573.5s3.106-16.4-.212-29.63c0,0,.728-9.606-.79-12.428s-1.221-.277-1.118-3.818a31.092,31.092,0,0,1,1.112-7.576c.5-2.017.8-22.347.8-22.347l8.345,26.978a6.719,6.719,0,0,1,.368,2.9,12.477,12.477,0,0,0,.045,4.193,3.579,3.579,0,0,1,.394,2.316c-.141,1.436,16.655,31.716,16.655,31.716l8.345-5.6-8.222-26.547a12.485,12.485,0,0,1-2.017-3.026c-1.009-2.017-1.048-2.128-.524-3.585a19.31,19.31,0,0,0,.524-5.146c0-.85.524-39.425-6.041-45.1S771.6,485.324,771.6,485.324Z" transform="translate(-516.407 -301.521)" fill="#2f2e41"/>
    <path id="Path_24077" data-name="Path 24077" d="M802.96,344.49l-1.708-4.863-4.666-4.665-8.605-1.027-5.6,3.683-5.189,5.115-7.663,63.611s36.2,13.955,40.939,2.244Z" transform="translate(-516.936 -222.057)" fill="#ccc"/>
    <path id="Path_24078" data-name="Path 24078" d="M839.056,350.81l-5.028-5.028s-2.4,32.132-1.379,34.392,2.228,1.683.926,2.9-2.7.009-1.3,2.248a7.087,7.087,0,0,1,1.156,4.241s7.242,45.586,11.441,45.586,6.828-1.229,6.68-2.481-2.625-4.368-1.853-5.143,2.675-.19.79-1.648-2.818-.992-2.351-2.859-3.1-26.059-3.1-26.059l-.348-40.409Z" transform="translate(-550.098 -228.378)" fill="#3f3d56"/>
    <path id="Path_24079" data-name="Path 24079" d="M777.792,341.829l-6.511.921-7.74,2.955s3.535,39.882,2.8,41.217-2.05.5-.927,1.852,2.132.751.927,1.984-3.233-.329-1.985,1.851-4.763,32.2-3.145,33.809,5.788.608,5.79-.581a6.885,6.885,0,0,0-1.4-3.522,1.419,1.419,0,0,1,0-1.866,4.563,4.563,0,0,0,1.3-2.354,12.519,12.519,0,0,1,1.153-2.872c.344-.839,8.995-57.661,8.995-57.661Z" transform="translate(-512.35 -226.268)" fill="#3f3d56"/>
    <path id="Path_24080" data-name="Path 24080" d="M701.024,383l2.936-1.533c-3.667-3.307-12.763-8.718-12.763-8.718l-15.679-10.57a3.342,3.342,0,1,0-3.472,4.625l17.571,15.742Z" transform="translate(-463.364 -236.039)" fill="#a0616a"/>
    <path id="Path_24081" data-name="Path 24081" d="M740.316,365.478l.032-12.893-7.162-3.425-18.063,19.117-1.4-.933h-3.266l-7.931,9.331s4.224,2.5,6.311,1.485,1.891.445,1.891.445a2.213,2.213,0,0,0,2.668.628c1.727-.691,4.992,1.175,4.992,1.175Z" transform="translate(-481.195 -230.179)" fill="#3f3d56"/>
    <circle id="Ellipse_1768" data-name="Ellipse 1768" cx="10.444" cy="10.444" r="10.444" transform="translate(265.843 88.027)" fill="#a0616a"/>
    <path id="Path_24082" data-name="Path 24082" d="M820.041,291.688a18.164,18.164,0,0,1-3.907,5.131,4.051,4.051,0,0,1-1.7,1.146,1.481,1.481,0,0,1-1.761-.7l-.194-.264a5.39,5.39,0,0,0,1.564-.773,1.836,1.836,0,0,0,.756-1.5,1.13,1.13,0,0,0-1.152-1.064c-.652.078-1.235.839-1.82.546-.472-.24-.4-.927-.269-1.446.727-2.708.423-6.906-.623-7.053a8.459,8.459,0,0,1-2.921-1.2,8.2,8.2,0,0,0-2.931-1.179c-.075-.01-.152-.015-.233-.022a6.938,6.938,0,0,0-.29-1.646,8.109,8.109,0,0,1-.517,1.645,16.1,16.1,0,0,1-2.73.138c-.972-.113-3.767,2.153-3.787,1.841a6.939,6.939,0,0,0-.29-1.646,8.126,8.126,0,0,1-.517,1.645c-.01.022-.015.04-.026.061-.3-.724-.382-1.534-.375-.929-.624-3.849.613-6.166,3.772-8.448a4.767,4.767,0,0,1,2.175-.973,2.343,2.343,0,0,1,2.155.8,7.693,7.693,0,0,1,7.795.353c2.272,1.522,4.065,2.535,3.762,5.257a5.75,5.75,0,0,1,4.653,3.987A8.683,8.683,0,0,1,820.041,291.688Z" transform="translate(-531.145 -190.565)" fill="#2f2e41"/>
    <path id="Path_24083" data-name="Path 24083" d="M853.365,426.3l-7.493-1.073c-2.534,4.238-3.435,15.517-3.435,15.517L835.1,458.178a3.342,3.342,0,1,0,5.21,2.51l12.04-20.287Z" transform="translate(-551.137 -270.76)" fill="#a0616a"/>
    <path id="Path_24084" data-name="Path 24084" d="M838.939,366.841l3.175-4.373,6.438,2.992,5.355,20.655s3.91,2.545,3.076,4.34-1.278,3.244-.415,4.272,3.374,1.1,1.5,2.781-.269,6.059-.269,6.059l-1.793,4-11.2-.467Z" transform="translate(-553.965 -237.278)" fill="#3f3d56"/>
    <path id="Path_24085" data-name="Path 24085" d="M277.735,485.585a3.449,3.449,0,0,0,.642-4.767,3.3,3.3,0,0,0-.367-.405l4.781-11.041-4.749-4.4-4.915,15.832a3.439,3.439,0,0,0-.074,4.2,3.291,3.291,0,0,0,4.611.635Z" transform="translate(-251.73 -291.961)" fill="#ffb6b6"/>
    <path id="Path_24086" data-name="Path 24086" d="M305.771,352.392s-3.539-6.728-11.75.538-17.912,43.636-17.724,45,2.2.827-.343,2.8-3.942.2-2.538,1.969,4.542,3.643,1.763,3.906,7.408,4.646,7.408,4.646,1.6-.385,2.094-4.082c.276-2.077-.66-3.256.987-3.6s.1-4.1.34-4.692,13.388-26.4,13.388-26.4Z" transform="translate(-251.989 -230.39)" fill="#730671"/>
    <path id="Path_24087" data-name="Path 24087" d="M149.917,587.484h5.945l2.829-22.933h-8.775Z" transform="translate(-79.973 -301.161)" fill="#ffb6b6"/>
    <path id="Path_24088" data-name="Path 24088" d="M377.595,709.837h18.283v-.231a7.117,7.117,0,0,0-7.116-7.116h0l-3.34-2.534-6.231,2.534h-1.6Z" transform="translate(-307.86 -417.311)" fill="#2f2e41"/>
    <path id="Path_24089" data-name="Path 24089" d="M60.6,568.815l4.863,3.419L80.966,555.1l-7.179-5.047Z" transform="translate(-32.325 -293.428)" fill="#ffb6b6"/>
    <path id="Path_24090" data-name="Path 24090" d="M280.709,688.145l14.956,10.516.133-.189a7.117,7.117,0,0,0-1.728-9.914h0l-1.275-3.994-6.555-1.511-1.306-.918Z" transform="translate(-256.176 -407.805)" fill="#2f2e41"/>
    <path id="Path_24091" data-name="Path 24091" d="M312.6,460.479l-.494,1.055a37.685,37.685,0,0,0-2.816,22.247,1.26,1.26,0,0,1-.05.9c-.783.918.445,4.906,1.149,7.133l.634,3.938s-1.052,3.657.546,3.388-.781,3.632.743,4.609l3.953,24.542-16.494,27.185,6.109,8.858,24.436-31.461.305-28.407,3.665,22.909.305,36.043,11.114-1.181,4.072-34.944L345.9,478.964l-6.109-20.953Z" transform="translate(-266.346 -288.245)" fill="#2f2e41"/>
    <path id="Path_24092" data-name="Path 24092" d="M326.65,328.446l8.991.428,4.3,7.428h0a13.292,13.292,0,0,1,8.5,7.745l2.8,6.917-3.185,39.992s-.638,2.419.537,2.066.7,2.678.7,2.678l4.332,16.663-39.389-3.425,2.187-17.655s-3.041.1-.9-2.04,3.178-1.457,1.124-3.985a10.575,10.575,0,0,1-2.359-4.36l-.916-12.523-1.511-17.625a16.935,16.935,0,0,1,6.4-14.753h0Z" transform="translate(-272.759 -219.129)" fill="#730671"/>
    <circle id="Ellipse_1769" data-name="Ellipse 1769" cx="11.402" cy="11.402" r="11.402" transform="translate(47.152 84.45)" fill="#ffb6b6"/>
    <path id="Path_24093" data-name="Path 24093" d="M334.587,292.743c3.272-.107,3.569-.972,6.841-1.079,1.042-.034,2.271-.177,2.775-1.09a2.4,2.4,0,0,0-.122-2.14,19.556,19.556,0,0,1-1.008-1.983,3.463,3.463,0,0,1,3.431-4.566c1,.043,1.931.511,2.924.6,1.362.117,4.373-4.379,3.746-5.593-.61-1.182-1.839-2.074-2.032-3.391a13.066,13.066,0,0,1,.278-2.585c.072-1.288-3.194,1.616-2.6.473,1.467-2.8-12.358-6.281-14.634-2.768-.851,1.313-2.367,1.223-3.718,2.012-.886.517-3.122,2.3-3.63,3.411a8.652,8.652,0,0,0-.648,3.58c-.02,5.7.848,10.944,5.446,14.313" transform="translate(-280.439 -186.423)" fill="#2f2e41"/>
    <path id="Path_24094" data-name="Path 24094" d="M408.9,484.556a3.449,3.449,0,0,1-.356-4.8,3.3,3.3,0,0,1,.391-.383l-4.114-11.306,5-4.106,3.961,16.1a3.439,3.439,0,0,1-.176,4.195,3.291,3.291,0,0,1-4.641.359Z" transform="translate(-322.387 -291.422)" fill="#ffb6b6"/>
    <path id="Path_24095" data-name="Path 24095" d="M363.3,348.383s3.935-6.5,11.7,1.238S390.273,394.249,390,395.6s-2.241.694.176,2.811,3.923.435,2.416,2.117-4.751,3.365-1.993,3.793-7.672,4.2-7.672,4.2-1.576-.48-1.846-4.2c-.152-2.089.853-3.211-.771-3.654s.142-4.1-.06-4.7-11.788-27.15-11.788-27.15Z" transform="translate(-300.235 -228.401)" fill="#730671"/>
    <path id="Path_24096" data-name="Path 24096" d="M585.133,207.738a9.323,9.323,0,1,1-2.732-6.6A9.333,9.333,0,0,1,585.133,207.738Z" transform="translate(-408.614 -149.76)" fill="#730671"/>
    <circle id="Ellipse_1770" data-name="Ellipse 1770" cx="3.266" cy="3.266" r="3.266" transform="translate(164.126 52.799)" fill="#fff"/>
    <path id="Path_24097" data-name="Path 24097" d="M584.547,223.807h-7a1.635,1.635,0,0,0-1.633,1.633,24.722,24.722,0,0,0,.653,4.148,9.324,9.324,0,0,0,9.023-.266,24.481,24.481,0,0,0,.588-3.882A1.635,1.635,0,0,0,584.547,223.807Z" transform="translate(-413.655 -163.309)" fill="#fff"/>
    <path id="Path_24098" data-name="Path 24098" d="M228.126,721.062a.554.554,0,0,0,.555.555H562.4a.555.555,0,1,0,0-1.11H228.681a.554.554,0,0,0-.555.555Z" transform="translate(-228.126 -428.275)" fill="#ccc"/>
  </g>
</svg>
