<svg id="accounting" xmlns="http://www.w3.org/2000/svg" xmlns:xlink="http://www.w3.org/1999/xlink" width="30.345" height="30.345" viewBox="0 0 30.345 30.345">
  <defs>
    <style>
      .cls-1 {
        fill: url(#linear-gradient);
      }
    </style>
    <linearGradient id="linear-gradient" x1="0.5" x2="0.5" y2="1" gradientUnits="objectBoundingBox">
      <stop offset="0" stop-color="#e90075"/>
      <stop offset="1" stop-color="#67016f"/>
    </linearGradient>
  </defs>
  <g id="Group_2993" data-name="Group 2993" transform="translate(26.299 2.034)">
    <g id="Group_2992" data-name="Group 2992">
      <path id="Path_13500" data-name="Path 13500" class="cls-1" d="M419.945,34.392l-1.517-2.023a.524.524,0,0,0-.737-.072.517.517,0,0,0-.072.072L416.1,34.392a.506.506,0,0,0-.1.3v23.77a2.023,2.023,0,1,0,4.046,0V34.7A.505.505,0,0,0,419.945,34.392Zm-.91,24.073a1.011,1.011,0,1,1-2.023,0V57.454h2.023Zm0-2.023h-2.023V55.431h2.023Zm0-2.023h-2.023V36.213h2.023Zm0-19.218h-2.023v-.337l1.011-1.348,1.011,1.348Z" transform="translate(-416 -32.178)"/>
    </g>
  </g>
  <g id="Group_2995" data-name="Group 2995">
    <g id="Group_2994" data-name="Group 2994">
      <path id="Path_13501" data-name="Path 13501" class="cls-1" d="M24.784,0H2.529a.506.506,0,0,0-.506.506V9.154A2.533,2.533,0,0,0,0,11.632V27.816a2.532,2.532,0,0,0,2.529,2.529H20.736a.508.508,0,0,0,.358-.148l4.046-4.046a.506.506,0,0,0,.1-.148c.007-.016.011-.031.017-.047a.507.507,0,0,0,.026-.131c0-.011.006-.02.006-.031V.506A.506.506,0,0,0,24.784,0ZM15.172,27.816a1.517,1.517,0,0,1-1.517,1.517H2.529a1.517,1.517,0,0,1-1.517-1.517V11.632a1.517,1.517,0,0,1,1.517-1.517H13.655a1.517,1.517,0,0,1,1.517,1.517ZM8.6,6.069V9.1H5.057V6.069ZM5.057,5.057V3.034H8.6V5.057Zm8.092,1.011V9.1H9.609V6.069ZM9.609,5.057V3.034h3.54V5.057Zm4.552,4.1V6.069H17.7v7.08H16.184V11.632A2.533,2.533,0,0,0,14.161,9.154Zm0-4.1V3.034H17.7V5.057Zm7.08,23.561V26.3h2.319Zm3.034-3.331h-3.54a.506.506,0,0,0-.506.506v3.54H15.665a2.5,2.5,0,0,0,.519-1.517V14.161h6.575a.506.506,0,0,0,.506-.506V2.529a.506.506,0,0,0-.506-.506H4.552a.506.506,0,0,0-.506.506V9.1H3.034V1.011H24.276ZM22.253,6.069v7.08h-3.54V6.069Zm-3.54-1.011V3.034h3.54V5.057Z"/>
    </g>
  </g>
  <g id="Group_2997" data-name="Group 2997" transform="translate(2.023 11.632)">
    <g id="Group_2996" data-name="Group 2996">
      <path id="Path_13502" data-name="Path 13502" class="cls-1" d="M43.632,184H32.506a.506.506,0,0,0-.506.506v3.034a.506.506,0,0,0,.506.506H43.632a.506.506,0,0,0,.506-.506v-3.034A.506.506,0,0,0,43.632,184Zm-.506,3.034H33.011v-2.023H43.126Z" transform="translate(-32 -184)"/>
    </g>
  </g>
  <g id="Group_2999" data-name="Group 2999" transform="translate(10.621 20.736)">
    <g id="Group_2998" data-name="Group 2998">
      <path id="Path_13503" data-name="Path 13503" class="cls-1" d="M171.54,328h-3.034a.506.506,0,0,0-.506.506v6.069a.506.506,0,0,0,.506.506h3.034a.506.506,0,0,0,.506-.506v-6.069A.506.506,0,0,0,171.54,328Zm-.506,6.069h-2.023v-5.057h2.023Z" transform="translate(-168 -328)"/>
    </g>
  </g>
  <g id="Group_3001" data-name="Group 3001" transform="translate(10.621 16.69)">
    <g id="Group_3000" data-name="Group 3000">
      <path id="Path_13504" data-name="Path 13504" class="cls-1" d="M171.54,264h-3.034a.506.506,0,0,0-.506.506v2.023a.506.506,0,0,0,.506.506h3.034a.506.506,0,0,0,.506-.506v-2.023A.506.506,0,0,0,171.54,264Zm-.506,2.023h-2.023v-1.011h2.023Z" transform="translate(-168 -264)"/>
    </g>
  </g>
  <g id="Group_3003" data-name="Group 3003" transform="translate(6.069 20.736)">
    <g id="Group_3002" data-name="Group 3002">
      <path id="Path_13505" data-name="Path 13505" class="cls-1" d="M99.54,328H96.506a.506.506,0,0,0-.506.506v2.023a.506.506,0,0,0,.506.506H99.54a.506.506,0,0,0,.506-.506v-2.023A.506.506,0,0,0,99.54,328Zm-.506,2.023H97.011v-1.012h2.023Z" transform="translate(-96 -328)"/>
    </g>
  </g>
  <g id="Group_3005" data-name="Group 3005" transform="translate(6.069 16.69)">
    <g id="Group_3004" data-name="Group 3004">
      <path id="Path_13506" data-name="Path 13506" class="cls-1" d="M99.54,264H96.506a.506.506,0,0,0-.506.506v2.023a.506.506,0,0,0,.506.506H99.54a.506.506,0,0,0,.506-.506v-2.023A.506.506,0,0,0,99.54,264Zm-.506,2.023H97.011v-1.011h2.023Z" transform="translate(-96 -264)"/>
    </g>
  </g>
  <g id="Group_3007" data-name="Group 3007" transform="translate(1.517 20.736)">
    <g id="Group_3006" data-name="Group 3006">
      <path id="Path_13507" data-name="Path 13507" class="cls-1" d="M27.54,328H24.506a.506.506,0,0,0-.506.506v2.023a.506.506,0,0,0,.506.506H27.54a.506.506,0,0,0,.506-.506v-2.023A.506.506,0,0,0,27.54,328Zm-.506,2.023H25.011v-1.012h2.023Z" transform="translate(-24 -328)"/>
    </g>
  </g>
  <g id="Group_3009" data-name="Group 3009" transform="translate(1.517 16.69)">
    <g id="Group_3008" data-name="Group 3008">
      <path id="Path_13508" data-name="Path 13508" class="cls-1" d="M27.54,264H24.506a.506.506,0,0,0-.506.506v2.023a.506.506,0,0,0,.506.506H27.54a.506.506,0,0,0,.506-.506v-2.023A.506.506,0,0,0,27.54,264Zm-.506,2.023H25.011v-1.011h2.023Z" transform="translate(-24 -264)"/>
    </g>
  </g>
  <g id="Group_3011" data-name="Group 3011" transform="translate(6.069 24.782)">
    <g id="Group_3010" data-name="Group 3010">
      <path id="Path_13509" data-name="Path 13509" class="cls-1" d="M99.54,392H96.506a.506.506,0,0,0-.506.506v2.023a.506.506,0,0,0,.506.506H99.54a.506.506,0,0,0,.506-.506v-2.023A.506.506,0,0,0,99.54,392Zm-.506,2.023H97.011v-1.012h2.023Z" transform="translate(-96 -392)"/>
    </g>
  </g>
  <g id="Group_3013" data-name="Group 3013" transform="translate(1.517 24.782)">
    <g id="Group_3012" data-name="Group 3012">
      <path id="Path_13510" data-name="Path 13510" class="cls-1" d="M27.54,392H24.506a.506.506,0,0,0-.506.506v2.023a.506.506,0,0,0,.506.506H27.54a.506.506,0,0,0,.506-.506v-2.023A.506.506,0,0,0,27.54,392Zm-.506,2.023H25.011v-1.012h2.023Z" transform="translate(-24 -392)"/>
    </g>
  </g>
</svg>
