<svg id="Component_36_1" data-name="Component 36 – 1" xmlns="http://www.w3.org/2000/svg" width="22.516" height="18.666" viewBox="0 0 22.516 18.666">
  <defs>
    <style>
      .cls-1, .cls-2 {
        fill: #fff;
      }

      .cls-1 {
        fill-rule: evenodd;
      }
    </style>
  </defs>
  <g id="Group_3130" data-name="Group 3130" transform="translate(0 0.666)">
    <path id="Path_12070" data-name="Path 12070" class="cls-1" d="M16.876,5.1a.632.632,0,0,1,.827.362L19.72,9.67a.655.655,0,0,1-.354.846.632.632,0,0,1-.827-.362L16.522,5.946a.655.655,0,0,1,.354-.846ZM7.149,4.843a.632.632,0,0,0-.827.362L4.545,9.67a.655.655,0,0,0,.354.846.632.632,0,0,0,.827-.362L7.5,5.689a.655.655,0,0,0-.354-.846Z" transform="translate(-0.875 -5.463)"/>
    <path id="Path_12071" data-name="Path 12071" class="cls-1" d="M2.925,15.75A.677.677,0,0,0,2.4,16a.665.665,0,0,0-.135.561l2.024,9.366a.673.673,0,0,0,.66.529H18.442a.673.673,0,0,0,.66-.529l2.024-9.366A.665.665,0,0,0,20.991,16a.677.677,0,0,0-.525-.248Zm7.422,4.014a1.349,1.349,0,0,1,2.7,0V22.44a1.349,1.349,0,0,1-2.7,0Z" transform="translate(-0.438 -8.454)"/>
    <path id="Path_12072" data-name="Path 12072" class="cls-2" d="M0,13.942C0,13.7.315,13.5.7,13.5H21.813c.389,0,.7.2.7.442v.884c0,.244-.315.442-.7.442H.7c-.389,0-.7-.2-.7-.442Z" transform="translate(0 -8.4)"/>
  </g>
</svg>
