<svg id="Component_36_69" data-name="Component 36 – 69" xmlns="http://www.w3.org/2000/svg" width="28.458" height="22.75" viewBox="0 0 28.458 22.75">
  <defs>
    <style>
      .cls-1, .cls-2 {
        fill: #4d4f5c;
      }

      .cls-1 {
        fill-rule: evenodd;
      }
    </style>
  </defs>
  <g id="Group_3130" data-name="Group 3130" transform="translate(0 0)">
    <path id="Path_12070" data-name="Path 12070" class="cls-1" d="M21.693,5.146a.944.944,0,0,1,1.149.416l2.8,4.834a.714.714,0,0,1-.491.971A.944.944,0,0,1,24,10.951L21.2,6.117a.714.714,0,0,1,.492-.972ZM8.18,4.85a.944.944,0,0,0-1.149.416L4.563,10.4a.714.714,0,0,0,.491.971A.944.944,0,0,0,6.2,10.951L8.671,5.822a.714.714,0,0,0-.492-.972Z" transform="translate(-0.875 -4.796)"/>
    <path id="Path_12071" data-name="Path 12071" class="cls-1" d="M3.137,15.75a.921.921,0,0,0-.69.3.758.758,0,0,0-.177.679L4.93,28.071a.872.872,0,0,0,.867.64H23.535a.872.872,0,0,0,.867-.64L27.063,16.73a.758.758,0,0,0-.177-.679.921.921,0,0,0-.69-.3Zm9.756,4.86a1.7,1.7,0,0,1,1.774-1.62,1.7,1.7,0,0,1,1.774,1.62v3.24a1.7,1.7,0,0,1-1.774,1.62,1.7,1.7,0,0,1-1.774-1.62Z" transform="translate(-0.438 -5.961)"/>
    <path id="Path_12072" data-name="Path 12072" class="cls-2" d="M0,14.135c0-.351.4-.635.889-.635H27.569c.491,0,.889.284.889.635v1.271c0,.351-.4.635-.889.635H.889C.4,16.041,0,15.757,0,15.406Z" transform="translate(0 -6.876)"/>
  </g>
</svg>
