<svg xmlns="http://www.w3.org/2000/svg" width="24" height="24" viewBox="0 0 24 24">
  <g id="Group_133" data-name="Group 133" transform="translate(-117 -1317)">
    <g id="outline-add_alert-24px" transform="translate(117 1316.5)">
      <g id="Group_132" data-name="Group 132">
        <path id="Path_2569" data-name="Path 2569" d="M10.01,21.01a1.99,1.99,0,0,0,3.98,0Z" fill="#4d4f5c"/>
        <path id="Path_2570" data-name="Path 2570" d="M12,6a5,5,0,0,1,5,5v7H7V11a5,5,0,0,1,5-5Zm0-4.5A1.5,1.5,0,0,0,10.5,3V4.17A6.993,6.993,0,0,0,5,11v6L3,19v1H21V19l-2-2V11a6.993,6.993,0,0,0-5.5-6.83V3A1.5,1.5,0,0,0,12,1.5Z" fill="#4d4f5c"/>
      </g>
    </g>
    <rect id="Rectangle_75" data-name="Rectangle 75" width="24" height="24" transform="translate(117 1317)" fill="none"/>
  </g>
</svg>
