<svg xmlns="http://www.w3.org/2000/svg" width="25.37" height="24.291" viewBox="0 0 25.37 24.291"><defs><style>.a{fill:#67016f;stroke:#67016f;}</style></defs><path class="a" d="M23.884,17.882a35.246,35.246,0,0,0-2.458-7.923,2.058,2.058,0,0,0-1.911-1.215l-7.011.11A2.184,2.184,0,0,0,10.755,12.3l1.6,2.262a2.063,2.063,0,0,0,2.477.72l2.268-.929a2.784,2.784,0,0,1-.33,1.835,9.775,9.775,0,0,0-1.25,4.623,8.873,8.873,0,0,0-1.6-.894,7.536,7.536,0,0,0-3.625-.588c-.271.023-.531.06-.779.106A6.83,6.83,0,0,0,3.992,14.7a8.767,8.767,0,0,0-3.747.285.361.361,0,0,0,.232.684,8.176,8.176,0,0,1,3.435-.251,6.087,6.087,0,0,1,4.9,4.184,7.4,7.4,0,0,0-2.1.937.361.361,0,1,0,.416.59,7.2,7.2,0,0,1,3.233-1.08,6.82,6.82,0,0,1,3.281.533,10.094,10.094,0,0,1,3.76,2.983.361.361,0,1,0,.558-.459,13.109,13.109,0,0,0-1.7-1.732l0-.054A8.96,8.96,0,0,1,17.4,16.536a3.481,3.481,0,0,0,.381-2.463l1.107-.454a.361.361,0,1,0-.274-.668L14.56,14.613a1.344,1.344,0,0,1-1.613-.469l-1.6-2.262a1.462,1.462,0,0,1,1.17-2.307l7.011-.11a1.336,1.336,0,0,1,1.241.789,34.5,34.5,0,0,1,2.406,7.756,22.171,22.171,0,0,1-.587,11.251A23.552,23.552,0,0,1,12.57,31.286a12.728,12.728,0,0,1-5.43-1.507,14.138,14.138,0,0,1-4.794-4.471,4.6,4.6,0,0,1,1.568-.218.361.361,0,0,0,.049-.721,5.336,5.336,0,0,0-1.558.164A2.855,2.855,0,0,0,.242,26.406a.361.361,0,1,0,.689.218,1.862,1.862,0,0,1,.757-1,13.619,13.619,0,0,0,10.841,6.379q.46.026.93.026a25.668,25.668,0,0,0,9.549-2.164.361.361,0,0,0,.2-.214A22.789,22.789,0,0,0,23.884,17.882Z" transform="translate(0.524 -8.243)"/></svg>