<svg xmlns="http://www.w3.org/2000/svg" xmlns:xlink="http://www.w3.org/1999/xlink" width="27.478" height="32.424" viewBox="0 0 27.478 32.424">
  <defs>
    <style>
      .cls-1 {
        fill: url(#linear-gradient);
      }
    </style>
    <linearGradient id="linear-gradient" x1="0.5" x2="0.5" y2="1" gradientUnits="objectBoundingBox">
      <stop offset="0" stop-color="#e90075"/>
      <stop offset="1" stop-color="#67016f"/>
    </linearGradient>
  </defs>
  <g id="value" transform="translate(-56 -16.001)">
    <path id="Path_13492" data-name="Path 13492" class="cls-1" d="M190.595,112.55v1.1h-1.649a.55.55,0,0,0-.55.55v1.649h-1.649a.55.55,0,0,0-.55.55v1.1H184.55a.55.55,0,0,0-.55.55v2.748a.55.55,0,0,0,.55.55h8.793a.55.55,0,0,0,.55-.55V112.55a.55.55,0,0,0-.55-.55h-2.2a.55.55,0,0,0-.55.55Zm-5.5,6.045h1.1v1.649h-1.1Zm2.2-1.649h1.1v3.3h-1.1Zm2.2-2.2h1.1v5.5h-1.1Zm2.2-1.649h1.1v7.144h-1.1Z" transform="translate(-119.207 -89.405)"/>
    <path id="Path_13493" data-name="Path 13493" class="cls-1" d="M232,256h1.1v1.1H232Z" transform="translate(-163.91 -223.513)"/>
    <path id="Path_13494" data-name="Path 13494" class="cls-1" d="M200,256h1.1v1.1H200Z" transform="translate(-134.108 -223.513)"/>
    <path id="Path_13495" data-name="Path 13495" class="cls-1" d="M264,256h1.1v1.1H264Z" transform="translate(-193.712 -223.513)"/>
    <path id="Path_13496" data-name="Path 13496" class="cls-1" d="M296,256h1.1v1.1H296Z" transform="translate(-223.513 -223.513)"/>
    <path id="Path_13497" data-name="Path 13497" class="cls-1" d="M56,31.388v5.558a6.581,6.581,0,0,0,2.937,5.487l.361.24v5.2a.55.55,0,0,0,.55.55h6.595a.55.55,0,0,0,.55-.55v-6.9a12.618,12.618,0,0,0,5.5,0v6.9a.55.55,0,0,0,.55.55h6.595a.55.55,0,0,0,.55-.55v-5.2l.361-.24a6.581,6.581,0,0,0,2.937-5.487V31.388a1.652,1.652,0,0,0-1.155-1.573c.036-.39.055-.783.055-1.175a.55.55,0,0,0-.55-.55h-4.4a.55.55,0,0,0-.55.55A7.144,7.144,0,1,1,69.739,21.5a.55.55,0,0,0,.55-.55v-4.4a.55.55,0,0,0-.55-.55A12.654,12.654,0,0,0,57.1,28.641c0,.392.02.785.055,1.175A1.652,1.652,0,0,0,56,31.388Zm9.892,15.937H60.4v-4.4h5.5Zm13.189,0h-5.5v-4.4h5.5Zm3.3-10.38a5.485,5.485,0,0,1-2.447,4.573l-.467.311H73.586V40.68a12.654,12.654,0,0,0,2.787-1.28,4.276,4.276,0,0,0-.039.566v.766h1.1v-.766a3.147,3.147,0,0,1,1.4-2.624.55.55,0,0,0,.245-.457v-2.2a.55.55,0,1,1,1.1,0v2.748h1.1V31.388a.55.55,0,0,1,1.1,0ZM69.189,17.113v3.3a8.244,8.244,0,1,0,8.775,8.775h3.3c-.01.223-.028.446-.051.667a1.651,1.651,0,0,0-1.035,1.531v1.743a1.648,1.648,0,0,0-2.2,1.554V36.6a4.248,4.248,0,0,0-.88.924,11.539,11.539,0,0,1-14.728,0,4.247,4.247,0,0,0-.88-.924V34.686a1.648,1.648,0,0,0-2.2-1.554V31.388a1.651,1.651,0,0,0-1.035-1.531A11.721,11.721,0,0,1,58.2,28.64,11.555,11.555,0,0,1,69.189,17.113ZM57.1,31.388a.55.55,0,0,1,1.1,0v6.045h1.1V34.686a.55.55,0,0,1,1.1,0v2.2a.55.55,0,0,0,.245.457,3.147,3.147,0,0,1,1.4,2.624v.766h1.1v-.766a4.275,4.275,0,0,0-.039-.566,12.652,12.652,0,0,0,2.787,1.28v1.15H60.013l-.467-.311A5.485,5.485,0,0,1,57.1,36.946Z"/>
    <path id="Path_13498" data-name="Path 13498" class="cls-1" d="M384,152h2.2v1.1H384Z" transform="translate(-305.468 -126.657)"/>
    <path id="Path_13499" data-name="Path 13499" class="cls-1" d="M289.1,32v1.1H288v1.1h1.1v1.1h1.1V34.2h1.1V33.1h-1.1V32Z" transform="translate(-216.063 -14.9)"/>
  </g>
</svg>
