<svg xmlns="http://www.w3.org/2000/svg" width="23.052" height="23" viewBox="0 0 23.052 23"><defs><style>.a{fill:#4d4f5c;}</style></defs><path class="a" d="M6.939,6.488,4.959,8.446A10.954,10.954,0,0,0,7.1,12.059a25.7,25.7,0,0,0,3.882,3.882,10.873,10.873,0,0,0,3.635,2.138l1.958-1.958a1.518,1.518,0,0,1,1.193-.281,9.931,9.931,0,0,1,1.722.27,7.421,7.421,0,0,1,1.429.484,4.439,4.439,0,0,1,1.846,1.5q.585.889.067,1.384l-2.408,2.408A3.946,3.946,0,0,1,17.788,23a9.257,9.257,0,0,1-3.6-.518,18.23,18.23,0,0,1-4.1-2.037,25.079,25.079,0,0,1-4.119-3.353,25.217,25.217,0,0,1-3.364-4.13A18.278,18.278,0,0,1,.558,8.851a9.189,9.189,0,0,1-.518-3.59A3.943,3.943,0,0,1,1.155,2.639L3.563.231q.473-.473,1.238.1A8.192,8.192,0,0,1,6.444,2.145,5.561,5.561,0,0,1,7.12,4.328a3.07,3.07,0,0,1-.18,2.161Z" transform="translate(-0.02 -0.018)"/></svg>