




<svg xmlns="http://www.w3.org/2000/svg" width="18.188" height="18.224" viewBox="0 0 18.188 18.224">
  <g id="Group_6616" data-name="Group 6616" transform="translate(314.125 -810.625)">
    <path id="Path_13518" data-name="Path 13518" d="M216.413,140.094q-1.868,0-3.736,0a2.254,2.254,0,0,0-2.332,2.327q-.005,1.871,0,3.744a2.258,2.258,0,0,0,2.344,2.337c.619,0,1.238,0,1.857,0s1.253,0,1.879,0a2.253,2.253,0,0,0,2.31-2.305q.007-1.894,0-3.788a2.252,2.252,0,0,0-2.322-2.315m.924,6.063a.863.863,0,0,1-.931.943q-1.867,0-3.734,0a.857.857,0,0,1-.929-.921q0-1.881,0-3.763a.857.857,0,0,1,.93-.921q1.866,0,3.733,0a.863.863,0,0,1,.931.943q0,.93,0,1.86t0,1.859" transform="translate(-524.467 670.533)" fill="#fff"/>
    <path id="Path_13519" data-name="Path 13519" d="M216.418,163.314q-1.879-.005-3.759,0a2.253,2.253,0,0,0-2.316,2.321q-.005,1.883,0,3.766a2.256,2.256,0,0,0,2.316,2.321c.619,0,1.238,0,1.857,0s1.267,0,1.9,0a2.254,2.254,0,0,0,2.316-2.321q.006-1.883,0-3.766a2.253,2.253,0,0,0-2.316-2.321m.918,6.091a.857.857,0,0,1-.915.915q-1.889,0-3.777,0a.853.853,0,0,1-.9-.905q0-1.9,0-3.806a.85.85,0,0,1,.892-.893q1.911,0,3.821,0a.85.85,0,0,1,.88.883c0,.635,0,1.269,0,1.9s0,1.269,0,1.9" transform="translate(-524.466 657.124)" fill="#fff"/>
    <path id="Path_13520" data-name="Path 13520" d="M241.909,165.619a2.251,2.251,0,0,0-2.31-2.3q-1.89-.006-3.78,0a2.253,2.253,0,0,0-2.3,2.314c0,.62,0,1.24,0,1.861s0,1.27,0,1.905a2.255,2.255,0,0,0,2.311,2.327q1.89.006,3.78,0a2.252,2.252,0,0,0,2.3-2.315q.006-1.894,0-3.788m-2.349,4.7h-3.69a.868.868,0,0,1-.954-.964q0-.918,0-1.837c0-.627,0-1.254,0-1.881a.858.858,0,0,1,.929-.923q1.866,0,3.733,0a.862.862,0,0,1,.932.942q0,1.859,0,3.719a.864.864,0,0,1-.951.945" transform="translate(-537.85 657.124)" fill="#fff"/>
    <path id="Path_13521" data-name="Path 13521" d="M237.737,148.5a4.2,4.2,0,1,0-4.216-4.222,4.2,4.2,0,0,0,4.216,4.222m-.013-7.006a2.8,2.8,0,1,1-2.8,2.806,2.8,2.8,0,0,1,2.8-2.806" transform="translate(-537.852 670.531)" fill="#fff"/>
  </g>
</svg>
