<svg xmlns="http://www.w3.org/2000/svg" xmlns:xlink="http://www.w3.org/1999/xlink" width="31.254" height="34.73" viewBox="0 0 31.254 34.73">
  <defs>
    <style>
      .cls-1 {
        fill: url(#linear-gradient);
      }
    </style>
    <linearGradient id="linear-gradient" x1="0.5" x2="0.5" y2="1" gradientUnits="objectBoundingBox">
      <stop offset="0" stop-color="#e90075"/>
      <stop offset="1" stop-color="#67016f"/>
    </linearGradient>
  </defs>
  <path id="goal" class="cls-1" d="M31.005,4.669,29.521,3.362l1.484-1.307A.733.733,0,0,0,30.521.773H24.38V.509a.509.509,0,1,0-1.018,0V7.374l-4.18,2.27a1.61,1.61,0,0,0-.165-.535l-.589-1.15a1.61,1.61,0,0,0-2.165-.7l-.455.233a1.608,1.608,0,0,0-.7,2.165l.589,1.15a1.6,1.6,0,0,0,.58.63,4.459,4.459,0,0,0-.614,1.477l-.11.388a.509.509,0,0,0,.351.628.5.5,0,0,0,.139.019.509.509,0,0,0,.49-.371l.11-.388c.223-.787.36-1.208.8-1.445l.782-.425.1-.049c.032-.016.062-.035.092-.053l5.573-3.026a2.154,2.154,0,0,1-1.028,1.73l-3.624,2.2-.012.007-1.128.685a.509.509,0,0,0,.486.893L17.821,16.3l-.626.256-1.7.7.49-1.733a.509.509,0,0,0-.98-.277l-.775,2.739a.489.489,0,0,0-.018.111l-.2,3.723a1.7,1.7,0,0,1-.042.549L11.717,27.1H10.081a1.74,1.74,0,0,0-1.738,1.738v1.469a1.724,1.724,0,0,0-.72-.157H3.469a1.739,1.739,0,0,0-1.738,1.738v1.823H.509a.509.509,0,1,0,0,1.018H30.52a.509.509,0,1,0,0-1.018H29.2V20.592a1.74,1.74,0,0,0-1.738-1.738H24.38V9.974a3.174,3.174,0,0,0,.511-2.72.509.509,0,0,0-.511-.374V5.951h6.141a.733.733,0,0,0,.484-1.282ZM15.978,8.744A.586.586,0,0,1,16.27,8.4l.455-.233a.59.59,0,0,1,.795.256l.589,1.15a.591.591,0,0,1-.2.759l-.166.09-.35.179a.591.591,0,0,1-.795-.256l-.589-1.15a.587.587,0,0,1-.036-.45ZM14.955,27.258a1.728,1.728,0,0,0-.559-.149l.559-.742Zm2.417-4.1a1.918,1.918,0,0,0,.367-.912c.014-.066.265-1.438.265-1.438s.238.148.263.159a.054.054,0,0,1,.031.045l.277,2.815H16.868Zm3.01-2.809-.43,3.475H19.6l-.286-2.912a1.072,1.072,0,0,0-.6-.861l-.512-.325.341-1.89s1.437,1.707,1.47,1.75c.3.387.4.541.371.762Zm-5.5,2.463a2.759,2.759,0,0,0,.143-.945l.185-3.4,2.354-.965-.428,2.37c0,.006,0,.013,0,.019l-.354,1.96a1.939,1.939,0,0,1-.213.678L13.127,27.1h-.284ZM2.749,31.889a.72.72,0,0,1,.72-.719H7.623a.721.721,0,0,1,.72.719v1.823H2.749Zm6.612,0v-3.05a.721.721,0,0,1,.72-.72h4.154a.72.72,0,0,1,.72.72v4.873H9.361V31.889Zm18.818-11.3v13.12H22.585V30.66a.509.509,0,0,0-1.018,0v3.052H15.973v-8.15a.72.72,0,0,1,.72-.719h4.154a.72.72,0,0,1,.72.719v2.552a.509.509,0,0,0,1.018,0V20.592a.721.721,0,0,1,.72-.72h4.154a.721.721,0,0,1,.72.72ZM23.3,18.854a1.74,1.74,0,0,0-1.738,1.738v3.389a1.723,1.723,0,0,0-.59-.151l.415-3.358a1.966,1.966,0,0,0-.575-1.508C20.783,18.92,18.8,16.57,18.8,16.57l1.214-3.67,3.343-2.031v7.985ZM24.38,4.933V1.791h5.385L28.6,2.812a.732.732,0,0,0,0,1.1l1.16,1.021H24.38Zm0,0"/>
</svg>
