<svg xmlns="http://www.w3.org/2000/svg" width="16.242" height="18.4" viewBox="0 0 16.242 18.4">
  <path id="Path_20893" data-name="Path 20893" d="M16.242,68.8a.765.765,0,0,0-.238-.6c-.145-.134-.285-.272-.432-.4-.788-.7-1.561-1.427-2.34-2.142q-.977-.9-1.951-1.8-1.271-1.172-2.549-2.338c-.2-.183-.37-.433-.682-.46H7.763a.745.745,0,0,0-.4.208c-.83.827-1.684,1.63-2.517,2.454-.591.584-1.206,1.144-1.781,1.745-.017.017-.034.033-.052.049-.926.857-1.8,1.767-2.724,2.626A.87.87,0,0,0,0,68.821q.006,4.966,0,9.933a.62.62,0,0,0,.551.712h5.6a.615.615,0,0,0,.529-.571,2.1,2.1,0,0,0,.03-.375q0-.9,0-1.8,0-1.131,0-2.263c0-.247.01-.255.249-.257H9.251c.284,0,.284,0,.285.293v.144q0,1.922,0,3.844a2.323,2.323,0,0,0,.03.411.615.615,0,0,0,.529.571h5.6a.615.615,0,0,0,.445-.266.814.814,0,0,0,.107-.482q0-3.511,0-7.022c0-.964,0-1.928,0-2.891m-1.491,9.385q-1.838-.009-3.676,0c-.151,0-.2-.028-.2-.191.008-1.455,0-2.911,0-4.366,0-.534-.24-.773-.779-.773H6.124c-.523,0-.764.244-.764.77,0,1.461,0,2.922,0,4.384,0,.139-.033.176-.174.176q-1.847-.009-3.694,0c-.137,0-.18-.03-.18-.176q.007-4.428,0-8.857a.314.314,0,0,1,.1-.251q3.206-3.113,6.407-6.232c.077-.075.115-.078.2,0q3.4,3.129,6.806,6.251a.3.3,0,0,1,.1.249q0,2.219,0,4.438c0,1.467,0,2.934,0,4.4,0,.14-.034.18-.177.179" transform="translate(0 -61.066)" fill="#fff"/>
</svg>
