<svg xmlns="http://www.w3.org/2000/svg" width="30.118" height="22.689" viewBox="0 0 30.118 22.689"><defs><style>.a{fill:#4d4f5c;}</style></defs><path class="a" d="M30.118,19.253v5.213a4.521,4.521,0,0,1-1.282,2.222,4.9,4.9,0,0,1-3.412,1.354h-8.11V26.455a1.223,1.223,0,0,0-1.22-1.219H14.023A1.223,1.223,0,0,0,12.8,26.455v1.587H4.693a4.9,4.9,0,0,1-3.412-1.354A4.512,4.512,0,0,1,0,24.467V19.253a2.05,2.05,0,0,1,2.044-2.044h26.03A2.05,2.05,0,0,1,30.118,19.253ZM16.1,30.849a.2.2,0,0,0,.2-.2v-4.2a.2.2,0,0,0-.2-.2H14.023a.2.2,0,0,0-.2.2v4.2a.2.2,0,0,0,.2.2Zm13.449-3.423a5.915,5.915,0,0,1-4.12,1.639h-8.11v1.588a1.223,1.223,0,0,1-1.22,1.219H14.023A1.223,1.223,0,0,1,12.8,30.652V29.065H4.693a5.915,5.915,0,0,1-4.12-1.639A5.8,5.8,0,0,1,0,26.787V37.854A2.05,2.05,0,0,0,2.044,39.9h26.03a2.05,2.05,0,0,0,2.044-2.044V26.787A5.784,5.784,0,0,1,29.544,27.425Z" transform="translate(0 -17.209)"/></svg>