<svg xmlns="http://www.w3.org/2000/svg" xmlns:xlink="http://www.w3.org/1999/xlink" width="160" height="160" viewBox="0 0 170 170">
  <defs>
    <style>
      .cls-1 {
        fill: url(#linear-gradient);
      }
    </style>
    <linearGradient id="linear-gradient" x1="0.57" y1="0.043" x2="0.589" y2="1" gradientUnits="objectBoundingBox">
      <stop offset="0" stop-color="#e90075"/>
      <stop offset="1" stop-color="#67016f"/>
    </linearGradient>
  </defs>
  <g id="bank" transform="translate(0 6.699)">
    <path id="Path_13602" data-name="Path 13602" class="cls-1" d="M158.214,74.816,112,58.64,112.659,4.6A2.67,2.67,0,0,0,112,2.848L93.333-18.486a2.666,2.666,0,0,0-2.008-.911h-88A2.667,2.667,0,0,0,.659-16.73L0,144a2.667,2.667,0,0,0,2.667,2.667H53.333V152a8,8,0,0,0,8,8h85.333a8,8,0,0,0,8-8v-8A2.667,2.667,0,0,0,152,141.333h-2.667v-8a2.667,2.667,0,0,0-2.667-2.667V109.333a2.667,2.667,0,0,0,2.667-2.667v-8H152A2.667,2.667,0,0,0,154.667,96V90.666h2.667A2.667,2.667,0,0,0,160,88V77.333a2.665,2.665,0,0,0-1.786-2.517ZM93.992-9.631,104.125,1.936H93.992ZM5.333,141.333l.659-155.4H88.659V4.6A2.667,2.667,0,0,0,91.326,7.27h16l-.659,49.5-1.786-.624a2.667,2.667,0,0,0-1.76,0L49.786,74.816A2.665,2.665,0,0,0,48,77.333V88a2.667,2.667,0,0,0,2.667,2.667h2.667V96A2.667,2.667,0,0,0,56,98.666h2.667v8a2.667,2.667,0,0,0,2.667,2.667v21.333a2.667,2.667,0,0,0-2.667,2.667v8ZM90.667,98.666v8a2.667,2.667,0,0,0,2.667,2.667v21.333a2.667,2.667,0,0,0-2.667,2.667v8H85.333v-8a2.667,2.667,0,0,0-2.667-2.667V109.333a2.667,2.667,0,0,0,2.667-2.667v-8Zm32,0v8a2.667,2.667,0,0,0,2.667,2.667v21.333a2.667,2.667,0,0,0-2.667,2.667v8h-5.333v-8a2.667,2.667,0,0,0-2.667-2.667V109.333a2.667,2.667,0,0,0,2.667-2.667v-8Zm-24,10.667h10.667v21.333H98.667ZM96,136h16v5.333H96Zm16-32H96V98.666h16Zm-45.333,5.333H77.333v21.333H66.667ZM64,136H80v5.333H64Zm16-32H64V98.666H80Zm69.333,48a2.667,2.667,0,0,1-2.667,2.667H61.333A2.667,2.667,0,0,1,58.667,152v-5.333h90.667ZM128,141.333V136h16v5.333Zm13.333-10.667H130.667V109.333h10.667ZM144,104H128V98.666h16Zm5.333-10.667H58.667V90.666h90.667Zm5.333-8H53.333V79.226L104,61.493l50.667,17.733Zm0,0" transform="translate(0 12.699)"/>
    <path id="Path_13603" data-name="Path 13603" class="cls-1" d="M288,208a8,8,0,1,0,8-8A8,8,0,0,0,288,208Zm10.667,0A2.667,2.667,0,1,1,296,205.333,2.667,2.667,0,0,1,298.667,208Zm0,0" transform="translate(-192 -120)"/>
    <path id="Path_13604" data-name="Path 13604" class="cls-1" d="M64,88A24,24,0,1,0,40,64,24,24,0,0,0,64,88ZM51.107,77.464A7.933,7.933,0,0,1,58.667,72H69.333a7.933,7.933,0,0,1,7.56,5.464A18.579,18.579,0,0,1,51.107,77.464Zm7.56-16.13A5.333,5.333,0,1,1,64,66.667,5.334,5.334,0,0,1,58.667,61.333Zm5.333-16A18.649,18.649,0,0,1,80.475,72.755,13.183,13.183,0,0,0,72.893,67.2a10.667,10.667,0,1,0-17.786,0,13.188,13.188,0,0,0-7.582,5.557A18.649,18.649,0,0,1,64,45.333Zm0,0" transform="translate(-26.667 -32)"/>
    <path id="Path_13605" data-name="Path 13605" class="cls-1" d="M240,96h5.333v5.333H240Zm0,0" transform="translate(-160 -64)"/>
    <path id="Path_13606" data-name="Path 13606" class="cls-1" d="M272,96h10.667v5.333H272Zm0,0" transform="translate(-181.333 -64)"/>
    <path id="Path_13607" data-name="Path 13607" class="cls-1" d="M240,128h21.333v5.333H240Zm0,0" transform="translate(-160 -85.334)"/>
    <path id="Path_13608" data-name="Path 13608" class="cls-1" d="M32,200h8v5.333H32Zm0,0" transform="translate(-21.333 -133.334)"/>
    <path id="Path_13609" data-name="Path 13609" class="cls-1" d="M72,200H90.667v5.333H72Zm0,0" transform="translate(-48 -133.334)"/>
    <path id="Path_13610" data-name="Path 13610" class="cls-1" d="M32,232H64v5.333H32Zm0,0" transform="translate(-21.333 -154.667)"/>
    <path id="Path_13611" data-name="Path 13611" class="cls-1" d="M32,264H64v5.333H32Zm0,0" transform="translate(-21.333 -176)"/>
    <path id="Path_13612" data-name="Path 13612" class="cls-1" d="M32,296h5.333v5.333H32Zm0,0" transform="translate(-21.333 -197.333)"/>
    <path id="Path_13613" data-name="Path 13613" class="cls-1" d="M64,296H85.333v5.333H64Zm0,0" transform="translate(-42.667 -197.333)"/>
    <path id="Path_13614" data-name="Path 13614" class="cls-1" d="M32,328H42.667v5.333H32Zm0,0" transform="translate(-21.333 -218.667)"/>
    <path id="Path_13615" data-name="Path 13615" class="cls-1" d="M80,328H96v5.333H80Zm0,0" transform="translate(-53.333 -218.667)"/>
  </g>
</svg>
