<svg xmlns="http://www.w3.org/2000/svg" width="26.781" height="25.015" viewBox="0 0 26.781 25.015"><defs><style>.a{fill:#67016f;stroke:#67016f;stroke-width:0.3px;}</style></defs><g transform="translate(0.15 0.15)"><path class="a" d="M270.232,96.218a4.582,4.582,0,0,0,.539-6.957A4.332,4.332,0,0,0,267.646,88a4.483,4.483,0,0,0-4.351,4.524,4.553,4.553,0,0,0,1.892,3.7.237.237,0,0,1,.094.195V97A1.323,1.323,0,0,0,265.5,99.4v.517a1.326,1.326,0,0,0,1.324,1.324h1.765a1.326,1.326,0,0,0,1.324-1.324V99.4A1.323,1.323,0,0,0,270.137,97v-.589A.238.238,0,0,1,270.232,96.218Zm-6.053-3.7a3.6,3.6,0,0,1,3.48-3.639h.05a3.459,3.459,0,0,1,2.442,1.01,3.7,3.7,0,0,1-.432,5.61,1.122,1.122,0,0,0-.465.914v.411h-3.089v-.411a1.121,1.121,0,0,0-.464-.913A3.669,3.669,0,0,1,264.179,92.52Zm4.413,7.835h-1.765a.442.442,0,0,1-.441-.441v-.441h2.648v.441A.442.442,0,0,1,268.592,100.355Zm.883-1.765h-3.531a.441.441,0,0,1,0-.883h3.531a.441.441,0,0,1,0,.883Z" transform="translate(-249.653 -85.35)"/><path class="a" d="M351.568,123.985a2,2,0,0,1,1.15,1.3.441.441,0,1,0,.85-.239,2.884,2.884,0,0,0-1.665-1.881.441.441,0,0,0-.334.817Z" transform="translate(-332.796 -118.549)"/><path class="a" d="M336.183,41.324v-.883a.441.441,0,0,0-.883,0v.883a.441.441,0,0,0,.883,0Z" transform="translate(-317.685 -40)"/><path class="a" d="M284.031,52.753a.442.442,0,0,0,.4-.621l-.359-.806a.441.441,0,0,0-.806.359l.359.806A.441.441,0,0,0,284.031,52.753Z" transform="translate(-268.488 -50.453)"/><path class="a" d="M241.272,83.825a.441.441,0,0,0,.3-.769l-.656-.591a.441.441,0,0,0-.591.656l.656.59A.44.44,0,0,0,241.272,83.825Z" transform="translate(-227.807 -80.015)"/><path class="a" d="M215.262,129.295a.441.441,0,0,0-.283-.556l-.839-.273a.441.441,0,0,0-.273.84l.839.273a.441.441,0,0,0,.556-.283Z" transform="translate(-202.662 -123.565)"/><path class="a" d="M209.272,179.709l-.878.092a.441.441,0,1,0,.092.878l.878-.092a.441.441,0,1,0-.092-.878Z" transform="translate(-197.407 -171.999)"/><path class="a" d="M447.08,180.587l.878.092a.441.441,0,1,0,.092-.878l-.878-.092a.441.441,0,1,0-.092.878Z" transform="translate(-422.925 -171.999)"/><path class="a" d="M442.251,129.6a.44.44,0,0,0,.136-.022l.84-.273a.441.441,0,1,0-.273-.839l-.839.273a.441.441,0,0,0,.136.861Z" transform="translate(-418.318 -123.565)"/><path class="a" d="M419.268,83.714l.656-.59a.441.441,0,0,0-.591-.656l-.656.59a.441.441,0,0,0,.591.656Z" transform="translate(-396.325 -80.017)"/><path class="a" d="M381.3,52.753a.441.441,0,0,0,.4-.262l.359-.806a.441.441,0,1,0-.806-.359l-.359.806a.442.442,0,0,0,.4.621Z" transform="translate(-360.727 -50.453)"/><path class="a" d="M41.157,287.944H35.419V287.5c0-.663-.862-1.145-1.127-1.277a.447.447,0,0,0-.071-.028l-4.32-1.3c-.273-.241-1.25-1.089-2.445-1.95-1.907-1.373-3.386-2.069-4.4-2.069H19.531v-.441a.441.441,0,0,0-.441-.441H16.441a.441.441,0,0,0-.441.441v9.71a.441.441,0,0,0,.441.441h2.648a.441.441,0,0,0,.441-.441v-.441h1.3c.275.037,2.528.481,4.519.874,3.982.786,4.545.891,4.669.891H41.157a1.326,1.326,0,0,0,1.324-1.324v-.883A1.326,1.326,0,0,0,41.157,287.944ZM18.648,289.71H16.883v-8.827h1.765Zm22.95.441a.442.442,0,0,1-.441.441H30.042c-.275-.037-2.528-.481-4.518-.874-3.982-.786-4.545-.891-4.669-.891H19.531v-7.062h3.531c1.67,0,5.132,2.785,6.325,3.859a.442.442,0,0,0,.168.095l4.375,1.313a1.647,1.647,0,0,1,.607.485v.869a.442.442,0,0,1-.405.44l-4.293-.859-3.027-1.73a.441.441,0,1,0-.438.766l3.089,1.765a.442.442,0,0,0,.132.05l4.413.883a.443.443,0,0,0,.087.008,1.326,1.326,0,0,0,1.248-.883h5.813a.442.442,0,0,1,.441.441Z" transform="translate(-16 -266.76)"/></g></svg>