<svg xmlns="http://www.w3.org/2000/svg" width="121.5" height="180" viewBox="0 0 121.5 180">
  <defs>
    <style>
      .cls-1 {
        fill: #ffdfba;
      }

      .cls-2 {
        fill: #42434d;
      }

      .cls-3 {
        fill: #ac6ab1;
      }

      .cls-4 {
        fill: #e8f8fc;
      }

      .cls-5 {
        fill: #ffebd2;
      }

      .cls-6 {
        fill: #4d4e59;
      }

      .cls-7 {
        fill: #ffd6a6;
      }

      .cls-8 {
        fill: #67016f;
      }

      .cls-9 {
        fill: #f1fafc;
      }

      .cls-10 {
        fill: #fff3e4;
      }

      .cls-11 {
        fill: #616161;
      }

      .cls-12 {
        fill: #303030;
        stroke: #303030;
      }
    </style>
  </defs>
  <g id="man" transform="translate(-78)">
    <path id="Path_13577" data-name="Path 13577" class="cls-1" d="M201.5,164.167v14.805a3,3,0,0,1-3,3H89a3,3,0,0,1-3-3V164.167c0-15.465,12.653-27.731,28.118-27.881a15.532,15.532,0,0,0,12.589-6.626c3.106-4.437,2.794-8.433,2.794-11.438l.056-.139A37.129,37.129,0,0,1,106.625,83.77V82.6a9.317,9.317,0,0,1-7.583-3.773s0,0,0-.007a9.1,9.1,0,0,1-1.789-5.423V36.846a10.126,10.126,0,0,1,10.125-10.125,29.824,29.824,0,0,1,27.694-18.75c17.845,0,29.313-.134,30.27.345.225.034,2.293.4,2.456.484a29.823,29.823,0,0,1,22.83,29V72.847a9.75,9.75,0,0,1-9.75,9.75V83.77a37.129,37.129,0,0,1-22.931,34.313l.056.139c0,2.918-.337,6.965,2.794,11.438a15.53,15.53,0,0,0,12.589,6.626C188.848,136.435,201.5,148.7,201.5,164.167Z" transform="translate(-5 -4.971)"/>
    <path id="Path_13578" data-name="Path 13578" class="cls-2" d="M209.358,37.8V72.847a9.75,9.75,0,0,1-9.75,9.75V61.833a3,3,0,0,0-2.816-2.993,107.352,107.352,0,0,1-51.045-16.418,3.007,3.007,0,0,0-4.519,1.781,14.791,14.791,0,0,1-6.495,9.143c-3.632,2.186-6.443,1.754-7.5,2.19a2.985,2.985,0,0,0-1.875,2.775V82.6a9.317,9.317,0,0,1-7.583-3.773s0,0,0-.008a9.093,9.093,0,0,1-1.62-3.675c-.241-1.226-.169,1.541-.169-38.3a10.126,10.126,0,0,1,10.125-10.125A29.831,29.831,0,0,1,153.8,7.971c17.845,0,29.313-.134,30.27.345a29.755,29.755,0,0,1,8.066,2.445c.045.022.758.353.788.383A29.822,29.822,0,0,1,209.358,37.8Z" transform="translate(-23.733 -4.971)"/>
    <path id="Path_13579" data-name="Path 13579" class="cls-3" d="M201.5,367.008v14.805a3,3,0,0,1-3,3H89a3,3,0,0,1-3-3V367.008c0-15.465,12.653-27.731,28.118-27.881a15.532,15.532,0,0,0,12.589-6.626c13.036,14.486,10.037,11.153,14.813,16.462a3,3,0,0,0,4.462,0c4.282-4.761.786-.876,14.813-16.462a15.53,15.53,0,0,0,12.589,6.626C188.848,339.276,201.5,351.543,201.5,367.008Z" transform="translate(-5 -207.812)"/>
    <path id="Path_13580" data-name="Path 13580" class="cls-4" d="M273.074,337.873c-.047.1-3.748,16.937-3.724,16.829a2.76,2.76,0,0,1-4.779,1.216c-9.846-11.338-8.5-9.86-9.5-10.759l11.393-12.66A15.582,15.582,0,0,0,273.074,337.873Z" transform="translate(-110.669 -207.812)"/>
    <path id="Path_13581" data-name="Path 13581" class="cls-4" d="M183.531,332.5l11.123,12.36-9.226,10.933a2.76,2.76,0,0,1-4.8-1.186c-.024-.107-3.656-16.635-3.7-16.734A15.58,15.58,0,0,0,183.531,332.5Z" transform="translate(-61.825 -207.812)"/>
    <path id="Path_13582" data-name="Path 13582" class="cls-5" d="M215.25,140.434a37.125,37.125,0,1,1-74.25,0V114.977a3,3,0,0,1,2.84-2.995c6.075-.346,11.19-4.152,13.032-11.115a3.006,3.006,0,0,1,4.517-1.781A107.338,107.338,0,0,0,212.434,115.5a3,3,0,0,1,2.816,2.994Z" transform="translate(-39.375 -61.635)"/>
    <path id="Path_13583" data-name="Path 13583" class="cls-6" d="M190.938,19.221h-25.89a29.827,29.827,0,0,0-26.805,16.748,4.136,4.136,0,0,1-2.929,2.209A10.13,10.13,0,0,0,127.23,48.1v7.44a2.985,2.985,0,0,0-1.875,2.775V76.12a4.269,4.269,0,0,1-7.755,2.467,9.287,9.287,0,0,1-1.376-3.105c-.339-1.455-.244,1.361-.244-38.636A10.126,10.126,0,0,1,126.1,26.721,29.831,29.831,0,0,1,153.8,7.971c17.724,0,29.312-.134,30.27.345a30,30,0,0,1,7.38,2.138c.118.049,1.418.634,1.474.69A4.269,4.269,0,0,1,190.938,19.221Z" transform="translate(-23.73 -4.971)"/>
    <path id="Path_13584" data-name="Path 13584" class="cls-7" d="M230.218,307.926a37.227,37.227,0,0,1-29.348,0,23.24,23.24,0,0,0,.424-6.158l.056-.139a37.2,37.2,0,0,0,28.388,0l.056.139a23.248,23.248,0,0,0,.424,6.158Z" transform="translate(-76.794 -188.519)"/>
    <path id="Path_13585" data-name="Path 13585" class="cls-8" d="M122.045,355.613a27.966,27.966,0,0,0-26.67,27.934v10.222H89a3,3,0,0,1-3-3V375.987c0-15.47,12.657-27.746,28.127-27.905a15.535,15.535,0,0,0,5.968-1.252C120.142,346.929,122.022,355.506,122.045,355.613Z" transform="translate(-5 -216.769)"/>
    <path id="Path_13586" data-name="Path 13586" class="cls-8" d="M297.88,355.613a27.966,27.966,0,0,1,26.67,27.934v10.222h6.375a3,3,0,0,0,3-3V375.987c0-15.47-12.657-27.746-28.127-27.905a15.534,15.534,0,0,1-5.968-1.252C299.784,346.929,297.9,355.506,297.88,355.613Z" transform="translate(-137.425 -216.769)"/>
    <path id="Path_13587" data-name="Path 13587" class="cls-9" d="M183.767,348.25c.559,2.539,1.155,5.242,1.661,7.541a2.759,2.759,0,0,1-4.8-1.184c-1.442-6.548-3.673-16.667-3.7-16.734a15.583,15.583,0,0,0,6.611-5.374l3.2,3.563A14.479,14.479,0,0,0,183.767,348.25Z" transform="translate(-61.825 -207.812)"/>
    <path id="Path_13588" data-name="Path 13588" class="cls-10" d="M169.937,107.339c-.659,5.315-2.99,10.083-6.878,12.972a27.4,27.4,0,0,0-10.808,22.049v9.321a4.578,4.578,0,0,1-8.838,1.941A37.04,37.04,0,0,1,141,140.432V114.975a3,3,0,0,1,2.84-2.995c6.092-.347,11.2-4.168,13.032-11.116a3,3,0,0,1,4.512-1.783c1.9,1.2,3.959,2.417,6.187,3.623a4.612,4.612,0,0,1,2.365,4.635Z" transform="translate(-39.375 -61.633)"/>
    <path id="Path_13589" data-name="Path 13589" class="cls-11" d="M226.9,365.76l5.6,39.653H210l5.329-39.953,3.691,4.1a3,3,0,0,0,4.459,0Z" transform="translate(-82.5 -228.412)"/>
    <path id="Path_13590" data-name="Path 13590" class="cls-12" d="M219.248,369.814l-4.747,35.6H210l5.329-39.953Z" transform="translate(-82.5 -228.412)"/>
    <path id="Path_13591" data-name="Path 13591" d="M168.535,128.315a12.463,12.463,0,0,1-10.723-6.019,3,3,0,1,0-5.124,3.121,18.519,18.519,0,0,0,6.275,6.252l-3.109,14.11-7.5-8.631a3,3,0,1,0-4.372-4.116l-5.275,6.066-13.287-14.763a18.324,18.324,0,0,0,2.012-7.039,40.168,40.168,0,0,0,51.439-38.5V54a3,3,0,1,0-6,0V78.8a34.125,34.125,0,0,1-68.25,0V53.337c7.314-.415,13.535-5.007,15.752-13.329a102.623,102.623,0,0,0,41.187,15.239,3,3,0,0,0,.832-5.942,96.68,96.68,0,0,1-42.537-16.879,3,3,0,0,0-4.733,2.468c0,.075-.028,7.515-5.671,10.91a12.348,12.348,0,0,1-7.8,1.447,3,3,0,0,0-3.007,2.654c-.033.29-.021-.7-.021,24.006a6.194,6.194,0,0,1-3.375-5.489V31.875a7.133,7.133,0,0,1,7.125-7.125,3,3,0,0,0,2.786-1.886A26.7,26.7,0,0,1,130.07,6H155.8a26.858,26.858,0,0,1,26.828,26.828V68.423a3,3,0,1,0,6,0V32.828A32.865,32.865,0,0,0,155.8,0H130.07a32.658,32.658,0,0,0-29.732,18.908A13.147,13.147,0,0,0,89.25,31.875V68.423a12.241,12.241,0,0,0,9.405,11.858A40.185,40.185,0,0,0,121.5,115.02v.791a12.514,12.514,0,0,1-12.536,12.5A30.947,30.947,0,0,0,78,159.279V177a3,3,0,0,0,6,0V159.279a24.95,24.95,0,0,1,24.965-24.964,18.724,18.724,0,0,0,3.92-.417l4.186,19a3,3,0,0,0,5.195,1.322l5.91-6.805-3.652,29.217a3,3,0,0,0,5.954.744l4.221-33.765c.191.212,1.858,2.082,2.072,2.271a3,3,0,0,0,4.225-.265c.593-.679-.941,1.085,1.8-2.067l4.228,33.827a3,3,0,0,0,5.954-.744l-3.652-29.217,5.91,6.806a3,3,0,0,0,5.195-1.321l4.186-19a18.84,18.84,0,0,0,3.919.417A24.951,24.951,0,0,1,193.5,159.279V177a3,3,0,1,0,6,0V159.279a30.947,30.947,0,0,0-30.965-30.964Zm-46.889,17.465-3.11-14.114a18.628,18.628,0,0,0,3.206-2.454l7.274,8.082Z"/>
  </g>
</svg>
