<svg xmlns="http://www.w3.org/2000/svg" xmlns:xlink="http://www.w3.org/1999/xlink" width="35.758" height="35.758" viewBox="0 0 35.758 35.758">
  <defs>
    <style>
      .cls-1 {
        fill: url(#linear-gradient);
      }
    </style>
    <linearGradient id="linear-gradient" x1="0.5" y1="1" x2="0.5" gradientUnits="objectBoundingBox">
      <stop offset="0" stop-color="#67016f"/>
      <stop offset="1" stop-color="#e90075"/>
    </linearGradient>
  </defs>
  <g id="team" transform="translate(0.001 0)">
    <path id="Path_13486" data-name="Path 13486" class="cls-1" d="M32.529,16.012a2.867,2.867,0,0,0-.687-.283l-2.43-.608v-.276a4.05,4.05,0,0,0,1.731-3.31V10.527A4.144,4.144,0,0,0,27.23,6.346c-.11,0-.217,0-.326.006l.63-1.475L24.48,1.824,22.68,3a9.755,9.755,0,0,0-2.159-.9L20.076,0h-4.4l-.445,2.1a9.744,9.744,0,0,0-2.159.9l-1.8-1.172L8.225,4.877l.619,1.476c-.024,0-.046-.005-.07-.006a4.039,4.039,0,0,0-4.162,4.035v1.153a4.049,4.049,0,0,0,1.73,3.309v.277l-1.585.4L1.886,13.842H0V25.793l5.674,1.891H6.778l.138-.483,1.739,1.044a1.8,1.8,0,0,0,1.732,1.74,1.8,1.8,0,0,0,1.73,1.73,1.8,1.8,0,0,0,1.73,1.73,1.794,1.794,0,0,0,2.8,1.424l.511.451a1.756,1.756,0,0,0,1.161.438h.107a1.756,1.756,0,0,0,1.753-1.732,1.754,1.754,0,0,0,1.73-1.73,1.754,1.754,0,0,0,1.73-1.732,1.773,1.773,0,0,0,1.732-1.77,1.689,1.689,0,0,0-.009-.173l10.39-5.195V15h-1.3Zm-2.54-5.485v1.008a2.9,2.9,0,0,1-1.444,2.5l-.288.167,0,1.825,2.881.72L24.8,20.08V18.527a2.87,2.87,0,0,0-.826-2.01l1.979-.495V14.2l-.288-.166a2.892,2.892,0,0,1-1.442-2.494V10.381A2.884,2.884,0,0,1,27.2,7.5a2.982,2.982,0,0,1,2.794,3.027Zm-11.242,9.1-2.611-.834a7.122,7.122,0,0,0-3.7-.168l-.331.073v-.171a1.729,1.729,0,0,1,1.31-1.679l3.3-.825V14.2l-.288-.166a2.892,2.892,0,0,1-1.442-2.494V10.381A2.884,2.884,0,0,1,17.967,7.5a2.982,2.982,0,0,1,2.794,3.027v1.008a2.9,2.9,0,0,1-1.444,2.5l-.288.167,0,1.825,3.3.825a1.729,1.729,0,0,1,1.31,1.679v2.161l-.142.075H23.15L19.6,19.749a3.635,3.635,0,0,0-.856-.123ZM12.24,8.632a6.34,6.34,0,0,1,11.253-.046,4.011,4.011,0,0,0-.424,1.8v1.153a4.049,4.049,0,0,0,1.73,3.309v.277l-2.307.578-2.308-.578v-.276a4.05,4.05,0,0,0,1.731-3.31V10.527A4.144,4.144,0,0,0,18,6.346a4.038,4.038,0,0,0-4.161,4.035v1.153a4.049,4.049,0,0,0,1.73,3.309v.277l-2.307.578-2.308-.578v-.276a4.05,4.05,0,0,0,1.731-3.31V10.527a4.251,4.251,0,0,0-.447-1.895ZM9.588,5.144,11.43,3.3l1.622,1.055.31-.19a8.606,8.606,0,0,1,2.5-1.036l.355-.085.4-1.892h2.525l.4,1.892.355.085a8.615,8.615,0,0,1,2.5,1.036l.31.19L24.326,3.3l1.84,1.841-.654,1.532a4.031,4.031,0,0,0-1.217.809c-.024.023-.044.048-.067.072a7.49,7.49,0,0,0-12.72.035,4.068,4.068,0,0,0-1.272-.9ZM7.5,16.022V14.2l-.288-.166a2.892,2.892,0,0,1-1.442-2.494V10.381A2.884,2.884,0,0,1,8.74,7.5a2.982,2.982,0,0,1,2.794,3.027v1.008a2.9,2.9,0,0,1-1.444,2.5L9.8,14.2l0,1.825,1.979.495a2.87,2.87,0,0,0-.826,2.01v.427l-1.8.4.047-.163.022-1.066L6.185,16.35ZM1.153,15h.42l4.148,2.419L3.628,25.786l-2.475-.825ZM5.86,26.53l-1.135-.378L6.758,18.02l1.315.767v.165L5.909,26.53ZM9.8,28.19a.651.651,0,0,1,.189-.457l1.014-1.014a.647.647,0,0,1,.915.915l-1.014,1.014a.647.647,0,0,1-1.1-.457Zm1.73,1.73a.651.651,0,0,1,.189-.457l1.014-1.014a.647.647,0,0,1,.915.915l-1.014,1.014a.647.647,0,0,1-1.1-.457Zm1.73,1.73a.651.651,0,0,1,.189-.457l1.014-1.014a.647.647,0,0,1,.915.915l-1.014,1.014a.647.647,0,0,1-1.1-.457Zm2.377,2.377a.647.647,0,0,1-.457-1.1L16.2,31.91a.647.647,0,0,1,.915.915L16.1,33.838A.651.651,0,0,1,15.641,34.028Zm2.789.577h-.107a.6.6,0,0,1-.4-.151l-.431-.38.433-.433a1.793,1.793,0,0,0,.363-.536l.524.436A.6.6,0,0,1,18.43,34.6ZM23.6,29.414h-.1a.619.619,0,0,1-.4-.144l-3.128-2.606-.739.887,3.037,2.531a.6.6,0,0,1-.386,1.064h-.126A.6.6,0,0,1,21.38,31l-3.133-2.61-.739.887,3.037,2.531a.6.6,0,0,1-.385,1.063.953.953,0,0,1-.607-.22l-1.287-1.073a1.794,1.794,0,0,0-1.549-1.008,1.8,1.8,0,0,0-1.73-1.73,1.8,1.8,0,0,0-1.73-1.73,1.8,1.8,0,0,0-3.066-1.21L9.178,26.918a1.777,1.777,0,0,0-.162.2L7.244,26.052,8.8,20.616l3.894-.866a5.941,5.941,0,0,1,3.094.14l.85.272-2.88,1.44a1.922,1.922,0,0,0-1.067,1.728v.114A1.931,1.931,0,0,0,15.613,25.1l2.148-1.288a1.19,1.19,0,0,1,1.383.133l4.873,4.385a.621.621,0,0,1-.415,1.082Zm11-6.7-9.716,4.859c-.032-.034-.064-.065-.1-.1L19.916,23.09a2.321,2.321,0,0,0-2.749-.266l-2.148,1.288a.778.778,0,0,1-1.178-.668V23.33a.774.774,0,0,1,.43-.7l3.217-1.609a2.507,2.507,0,0,1,1.8-.167l3.624,1.035.878.022L34.6,16.224Zm0,0"/>
  </g>
</svg>
