<svg xmlns="http://www.w3.org/2000/svg" width="17.906" height="16.421" viewBox="0 0 17.906 16.421">
  <g id="Group_6617" data-name="Group 6617" transform="translate(223.968 -813.204)">
    <path id="Path_13524" data-name="Path 13524" d="M199.857,63.527a2.047,2.047,0,0,0-2.088-1.737q-6.837,0-13.673,0a2.055,2.055,0,0,0-2.115,2.121q0,2.474,0,4.949a2.566,2.566,0,0,0,4.506,1.737c.108-.119.142-.1.237,0a2.731,2.731,0,0,0,4.115-.082c.07-.082.1-.109.185-.008a2.726,2.726,0,0,0,4.136.07c.1-.11.131-.08.214.012a2.567,2.567,0,0,0,4.414-.963,1.741,1.741,0,0,1,.1-.362v-5.7c-.01-.013-.026-.024-.028-.038m-15.308,6.848A1.451,1.451,0,0,1,183.1,68.95c-.007-.548,0-1.1,0-1.643h0c0-.548,0-1.1,0-1.643,0-.112.025-.145.142-.144q1.3.008,2.6,0c.126,0,.151.038.151.157,0,1.083,0,2.167,0,3.251a1.46,1.46,0,0,1-1.446,1.448m5.824-3.12c0,.489,0,.979,0,1.468a1.628,1.628,0,0,1-3.234.29,1.288,1.288,0,0,1-.017-.226c0-1.036,0-2.074,0-3.11,0-.14.044-.157.166-.156q1.468.008,2.935,0c.134,0,.161.035.159.163-.008.524,0,1.048,0,1.573m4.371,1.532a1.617,1.617,0,0,1-1.532,1.583,1.635,1.635,0,0,1-1.685-1.3,7.586,7.586,0,0,1-.034-1.185c-.006-.21,0-.42,0-.629,0-.53,0-1.06,0-1.59,0-.111.025-.145.141-.144q1.485.008,2.97,0c.129,0,.147.042.147.157,0,1.037,0,2.074,0,3.11m4.024-3.108c-.005.553,0,1.107,0,1.66h0c0,.536.006,1.072,0,1.608a1.445,1.445,0,0,1-2.843.345,1.381,1.381,0,0,1-.051-.362c0-1.083,0-2.167,0-3.251,0-.115.017-.16.148-.159q1.3.009,2.6,0c.132,0,.146.046.145.159m0-1.337c0,.044-.016.064-.061.062s-.081,0-.122,0h-7.659q-3.82,0-7.641,0c-.152,0-.2-.032-.188-.188s-.008-.34.014-.506a.933.933,0,0,1,.881-.8c.046,0,.093,0,.14,0h13.6a.94.94,0,0,1,1.011.753,4.039,4.039,0,0,1,.021.68" transform="translate(-405.947 751.414)" fill="#fff"/>
    <path id="Path_13525" data-name="Path 13525" d="M199.169,92.725a.547.547,0,0,0-.4.549c0,1.084,0,2.168,0,3.252a.944.944,0,0,1-1.019,1.027H184.125a.945.945,0,0,1-1.027-1.036q0-1.6,0-3.2a.562.562,0,1,0-1.118,0q0,1.653,0,3.305a1.863,1.863,0,0,0,.052.45,2.057,2.057,0,0,0,2.063,1.6q4.424,0,8.848,0,2.422,0,4.843,0a2.062,2.062,0,0,0,2-1.415,1.149,1.149,0,0,1,.1-.325V93.12a2.2,2.2,0,0,0-.112-.191.546.546,0,0,0-.6-.2" transform="translate(-405.947 730.952)" fill="#fff"/>
  </g>
</svg>
