<svg id="Layer_1" data-name="Layer 1" xmlns="http://www.w3.org/2000/svg" xmlns:xlink="http://www.w3.org/1999/xlink" viewBox="0 0 156 94"><defs><style>.cls-1{fill:url(#linear-gradient);}.cls-2{fill:url(#linear-gradient-2);}.cls-3{fill:none;}</style><linearGradient id="linear-gradient" x1="47.1" y1="24.91" x2="122.86" y2="78.69" gradientUnits="userSpaceOnUse"><stop offset="0" stop-color="#67016f"/><stop offset="1" stop-color="#e90075"/></linearGradient><linearGradient id="linear-gradient-2" x1="57.31" y1="23.26" x2="69.63" y2="35.58" xlink:href="#linear-gradient"/></defs><path class="cls-1" d="M115.73,12H40.24a8.71,8.71,0,0,0-8.71,8.71V73a8.71,8.71,0,0,0,8.71,8.71h75.49A8.71,8.71,0,0,0,124.44,73V20.71A8.71,8.71,0,0,0,115.73,12ZM40.24,17.81h75.49a2.9,2.9,0,0,1,2.9,2.9V60.15l-27-27a2.9,2.9,0,0,0-4.1,0L67.82,52.9l-8.1-8.11a2.9,2.9,0,0,0-4.11,0L37.34,63.06V20.71A2.9,2.9,0,0,1,40.24,17.81Zm75.49,58.06H40.24a2.9,2.9,0,0,1-2.9-2.9v-1.7L57.66,51,70.13,63.41a2.91,2.91,0,0,0,2.05.85H83.79a2.91,2.91,0,1,0,0-5.81H73.38L71.93,57,89.6,39.33l29,29V73A2.9,2.9,0,0,1,115.73,75.87Z"/><path class="cls-2" d="M63.47,38.13a8.71,8.71,0,1,0-8.71-8.71A8.71,8.71,0,0,0,63.47,38.13Zm0-11.61a2.9,2.9,0,1,1-2.9,2.9A2.9,2.9,0,0,1,63.47,26.52Z"/><rect class="cls-3" width="156" height="94"/></svg>