<svg xmlns="http://www.w3.org/2000/svg" width="16.859" height="19.357" viewBox="0 0 16.859 19.357"><defs><style>.a{fill:#e90075;}</style></defs><path class="a" d="M47.191,26.277l-6.663-6.663a1.767,1.767,0,0,0-2.714,2.238l-.009.046a12.327,12.327,0,0,1-3.382,6.32l-3.056,3.056a1.766,1.766,0,0,0,0,2.5l1.666,1.666a1.766,1.766,0,0,0,2.5,0l.416-.416,2.915,2.915a1.767,1.767,0,0,0,2.5-2.5l-1.249-1.249.416-.416a1.766,1.766,0,0,0,0-2.5l-.283-.283A12.329,12.329,0,0,1,44.907,29l.047-.009a1.769,1.769,0,0,0,2.237-.215h0A1.769,1.769,0,0,0,47.191,26.277ZM34.7,34.606a.589.589,0,0,1-.833,0L32.2,32.94a.589.589,0,0,1,0-.833l2.915-2.915,2.5,2.5Zm5.83,1.666a.589.589,0,0,1-.833.833l-2.915-2.915.833-.833Zm-2.082-3.748c.177-.177.442-.448.86-.805l.389.389a.589.589,0,0,1,0,.833l-.416.416Zm.025-1.641-2.549-2.549a13.486,13.486,0,0,0,2.867-5.461l5.143,5.143A13.486,13.486,0,0,0,38.471,30.883Zm7.887-2.94a.589.589,0,0,1-.833,0L38.863,21.28a.589.589,0,0,1,.833-.833l6.663,6.663A.59.59,0,0,1,46.359,27.943Z" transform="translate(-30.849 -19.098)"/></svg>