<svg xmlns="http://www.w3.org/2000/svg" width="12.711" height="16.687" viewBox="0 0 12.711 16.687"><defs><style>.a{fill:#e90075;}</style></defs><path class="a" d="M73.568,4.054,69.657.143A.49.49,0,0,0,69.311,0H62.467A1.468,1.468,0,0,0,61,1.467V15.221a1.468,1.468,0,0,0,1.467,1.467h9.778a1.468,1.468,0,0,0,1.467-1.467V4.4A.493.493,0,0,0,73.568,4.054ZM69.8,1.669l2.242,2.242H70.289a.489.489,0,0,1-.489-.489Zm2.444,14.04H62.467a.489.489,0,0,1-.489-.489V1.467a.489.489,0,0,1,.489-.489h6.355V3.422a1.468,1.468,0,0,0,1.467,1.467h2.444V15.221A.489.489,0,0,1,72.244,15.709Z" transform="translate(-61 0)"/></svg>