<svg xmlns="http://www.w3.org/2000/svg" width="14.357" height="14.357" viewBox="0 0 14.357 14.357"><defs><style>.a{fill:#a1a0ae;fill-rule:evenodd;}</style></defs><path class="a" d="M7.178,14.357A7.178,7.178,0,1,0,0,7.178,7.178,7.178,0,0,0,7.178,14.357Zm.835-8.445-2.055.258-.073.341.4.075c.264.063.316.158.258.421l-.662,3.112c-.174.8.094,1.184.725,1.184a1.858,1.858,0,0,0,1.314-.536L8,10.391a.994.994,0,0,1-.616.221c-.247,0-.337-.173-.273-.478Zm-.835-.976a.9.9,0,1,0-.9-.9A.9.9,0,0,0,7.178,4.935Z"/></svg>