<svg xmlns="http://www.w3.org/2000/svg" width="17.703" height="17.704" viewBox="0 0 17.703 17.704"><defs><style>.a{fill:#e90075;}</style></defs><path class="a" d="M17.4,14.528a2.177,2.177,0,0,0-.416-.478L15.37,12.641a.343.343,0,0,0-.138-.12l-.977-.852L9.733,7.723a1.035,1.035,0,0,0-.3-1.651l.418-.418A1.384,1.384,0,0,0,11.183,5.3a1.383,1.383,0,0,0,0-1.956L8.249.406A1.383,1.383,0,0,0,5.936,1.741L1.761,5.916A1.392,1.392,0,0,0,1.4,5.869,1.383,1.383,0,0,0,.425,8.23l2.934,2.934A1.383,1.383,0,0,0,5.673,9.829l.418-.418a1.038,1.038,0,0,0,1.652.3l4.817,5.534a.347.347,0,0,0,.047.059l.019.017,1.435,1.649c.036.042.074.084.113.123a2.057,2.057,0,0,0,1.462.608,2.123,2.123,0,0,0,.291-.02,2.092,2.092,0,0,0,1.544-1.069A2.046,2.046,0,0,0,17.4,14.528ZM6.782.9A.691.691,0,0,1,7.76.9l2.934,2.934a.691.691,0,0,1-.978.978L6.782,1.873h0A.692.692,0,0,1,6.782.9Zm-1.956,9.78a.692.692,0,0,1-.978,0L.914,7.741a.691.691,0,0,1,.978-.978L4.826,9.7A.692.692,0,0,1,4.826,10.675ZM6.282,8.241l-.967.967L2.381,6.274,6.293,2.362,9.227,5.3l-.969.969-.01.009L6.294,8.229Zm1.235.721,0,0-.243.243a.346.346,0,0,1-.493-.485L8.742,6.759a.346.346,0,0,1,.587.248.343.343,0,0,1-.1.244l-.242.242,0,0Zm.716.262L9.243,8.214l4.279,3.732-1.561,1.561Zm4.183,4.806L14.045,12.4l.522.456-1.7,1.7Zm4.451,2.248A1.406,1.406,0,0,1,15.832,17a1.374,1.374,0,0,1-1.169-.392c-.027-.027-.052-.054-.076-.082l0,0-1.258-1.445,1.763-1.763,1.444,1.259,0,0a1.489,1.489,0,0,1,.285.328A1.365,1.365,0,0,1,16.867,16.278Z" transform="translate(-0.021 -0.001)"/></svg>