<svg xmlns="http://www.w3.org/2000/svg" width="18.004" height="16.504" viewBox="0 0 18.004 16.504"><defs><style>.a{fill:#e90075;}</style></defs><path class="a" d="M17.629,30.327A.375.375,0,0,0,18,29.952V28.077a1.5,1.5,0,0,0-1.5-1.5H13.681a1.815,1.815,0,0,1-.177-.75,1.872,1.872,0,0,1,.984-1.638.376.376,0,0,0,.146-.516l-.914-1.6a1.484,1.484,0,0,0-2.037-.549L.744,27.9A1.506,1.506,0,0,0,.2,29.941l.945,1.652a.375.375,0,0,0,.519.135,1.843,1.843,0,0,1,.962-.275A1.867,1.867,0,0,1,4.4,32.772a1.872,1.872,0,0,1-1.777,1.306.375.375,0,0,0-.375.375v1.875a1.5,1.5,0,0,0,1.5,1.5H16.5a1.5,1.5,0,0,0,1.5-1.5V34.453a.375.375,0,0,0-.375-.375,1.875,1.875,0,1,1,0-3.751Zm-15,.375a2.575,2.575,0,0,0-1.008.208L.85,29.568a.754.754,0,0,1,.271-1.025l1.15-.669a1.482,1.482,0,0,0-.021.2v1.875a.375.375,0,0,0,.375.375,1.869,1.869,0,0,1,1.613.936A2.605,2.605,0,0,0,2.626,30.7Zm9.434-8.527a.724.724,0,0,1,.557-.075.735.735,0,0,1,.451.348l.737,1.288a2.615,2.615,0,0,0-1.052,2.09,2.579,2.579,0,0,0,.116.75H4.5Zm-4.558,15a.375.375,0,0,1-.75,0v-.75a.375.375,0,1,1,.75,0Zm0-3a.375.375,0,0,1-.75,0v-.75a.375.375,0,1,1,.75,0Zm0-3a.375.375,0,0,1-.75,0v-.75a.375.375,0,1,1,.75,0Zm0-3a.375.375,0,0,1-.75,0v-.844a.375.375,0,1,1,.75,0Zm2.626.656c.631,0,1.125.659,1.125,1.5s-.494,1.5-1.125,1.5S9,31.169,9,30.327,9.5,28.827,10.128,28.827Zm-.751,6.751a.375.375,0,0,1-.3-.6l4.5-6a.375.375,0,0,1,.6.45l-4.5,6A.373.373,0,0,1,9.377,35.578Zm3.751,0c-.631,0-1.125-.659-1.125-1.5s.494-1.5,1.125-1.5,1.125.659,1.125,1.5S13.759,35.578,13.128,35.578Z" transform="translate(-0.001 -21.325)"/></svg>