<svg id="pdf-file-format" xmlns="http://www.w3.org/2000/svg" width="40.445" height="45.018" viewBox="0 0 40.445 45.018">
  <defs>
    <style>
      .cls-1 {
        fill: #e8eaf0;
      }

      .cls-1, .cls-2, .cls-3 {
        fill-rule: evenodd;
      }

      .cls-2, .cls-4 {
        fill: #fff;
      }

      .cls-3 {
        fill: #e90075;
      }
    </style>
  </defs>
  <g id="Group_3036" data-name="Group 3036" transform="translate(0 0)">
    <g id="Group_3034" data-name="Group 3034" transform="translate(0.879 0.879)">
      <g id="Group_3033" data-name="Group 3033" transform="translate(4.233)">
        <path id="Path_13517" data-name="Path 13517" class="cls-1" d="M368.105,393.149a.96.96,0,0,0-.957.957v8.614l9.571-9.571Z" transform="translate(-342.265 -359.461)"/>
        <path id="Path_13518" data-name="Path 13518" class="cls-2" d="M109.024,44.645a.96.96,0,0,1,.957-.957H118.6V10.957a.96.96,0,0,0-.957-.957H85.1a.96.96,0,0,0-.957.957V52.3a.96.96,0,0,0,.957.957h23.926Z" transform="translate(-84.141 -10)"/>
      </g>
      <path id="Path_13519" data-name="Path 13519" class="cls-3" d="M67.755,118.912A1.764,1.764,0,0,0,66,117.154H37.759A1.764,1.764,0,0,0,36,118.912v12.31a1.764,1.764,0,0,0,1.758,1.758H66a1.764,1.764,0,0,0,1.758-1.758Z" transform="translate(-36.001 -107.733)"/>
    </g>
    <g id="Group_3035" data-name="Group 3035">
      <path id="Path_13520" data-name="Path 13520" class="cls-4" d="M273.968,157.153H271.33a.879.879,0,0,0-.879.879v7.034a.879.879,0,1,0,1.759,0v-2.638h.6a.879.879,0,1,0,0-1.758h-.6v-1.759h1.758a.879.879,0,1,0,0-1.758Z" transform="translate(-248.958 -143.335)"/>
      <path id="Path_13521" data-name="Path 13521" class="cls-4" d="M115.336,157.153h-1.758a.879.879,0,0,0-.879.879v7.034a.879.879,0,1,0,1.758,0v-2.638h.879a2.638,2.638,0,0,0,0-5.275Zm0,3.517h-.879v-1.758h.879a.879.879,0,0,1,0,1.758Z" transform="translate(-105.075 -143.335)"/>
      <path id="Path_13522" data-name="Path 13522" class="cls-4" d="M193.088,157.153h-1.758a.879.879,0,0,0-.879.879v7.034a.879.879,0,0,0,.879.879h1.758a2.641,2.641,0,0,0,2.638-2.638v-3.517A2.641,2.641,0,0,0,193.088,157.153Zm.879,6.155a.88.88,0,0,1-.879.879h-.879v-5.275h.879a.88.88,0,0,1,.879.879Z" transform="translate(-175.991 -143.335)"/>
      <path id="Path_13523" data-name="Path 13523" d="M66.262,35.1a.881.881,0,0,0,.184-.537V1.836A1.838,1.838,0,0,0,64.61,0H32.07a1.838,1.838,0,0,0-1.836,1.836V9.421H28.639A2.641,2.641,0,0,0,26,12.059V24.369a2.641,2.641,0,0,0,2.638,2.638h1.6V43.181a1.838,1.838,0,0,0,1.836,1.836H56a.886.886,0,0,0,.622-.258l9.571-9.571a.877.877,0,0,0,.073-.085Zm-38.5-10.736V12.059a.88.88,0,0,1,.879-.879H56.876a.88.88,0,0,1,.879.879V24.369a.88.88,0,0,1-.879.879H28.639A.88.88,0,0,1,27.759,24.369Zm4.233,18.813V30.523h3.956a.879.879,0,0,0,0-1.758H31.992V27.006H56.876a2.641,2.641,0,0,0,2.638-2.638V12.059a2.641,2.641,0,0,0-2.638-2.638H31.992V1.836a.081.081,0,0,1,.078-.078H64.61a.081.081,0,0,1,.078.078V33.688H56.953a1.838,1.838,0,0,0-1.836,1.836v7.735H32.07A.081.081,0,0,1,31.992,43.181Zm31.452-7.735-6.569,6.569V35.525a.081.081,0,0,1,.078-.078Z" transform="translate(-26.001 0)"/>
      <path id="Path_13524" data-name="Path 13524" d="M175.013,327.155a.879.879,0,1,0,0,1.759h0a.879.879,0,1,0,0-1.759Z" transform="translate(-161.109 -298.39)"/>
    </g>
  </g>
</svg>
