<svg xmlns="http://www.w3.org/2000/svg" xmlns:xlink="http://www.w3.org/1999/xlink" width="31.831" height="31.829" viewBox="0 0 31.831 31.829">
  <defs>
    <style>
      .cls-1 {
        fill: url(#linear-gradient);
      }
    </style>
    <linearGradient id="linear-gradient" x1="0.608" y1="0.092" x2="0.599" y2="1.106" gradientUnits="objectBoundingBox">
      <stop offset="0" stop-color="#e90075"/>
      <stop offset="1" stop-color="#67016f"/>
    </linearGradient>
  </defs>
  <path id="Path_13488" data-name="Path 13488" class="cls-1" d="M31.831,15.806v5.533a1.243,1.243,0,0,1-2.487,0V18.883L25.387,22.84a1.243,1.243,0,0,1-.879.364H18.233L9.956,31.481A1.243,1.243,0,0,1,8.2,29.723l8.641-8.641a1.243,1.243,0,0,1,.879-.364h6.274L27.66,17.05H24.992a1.243,1.243,0,0,1,0-2.487h5.6A1.243,1.243,0,0,1,31.831,15.806Zm-1.243,9.263a1.243,1.243,0,0,0-1.243,1.243V30.6a1.243,1.243,0,0,0,2.487,0v-4.29A1.243,1.243,0,0,0,30.587,25.069Zm-4.973,0a1.243,1.243,0,0,0-1.243,1.243V30.6a1.243,1.243,0,0,0,2.487,0v-4.29A1.243,1.243,0,0,0,25.614,25.069Zm-4.973,0A1.243,1.243,0,0,0,19.4,26.313V30.6a1.243,1.243,0,0,0,2.487,0v-4.29A1.243,1.243,0,0,0,20.64,25.069Zm-4.973,3.792A1.243,1.243,0,0,0,14.423,30.1v.5a1.243,1.243,0,0,0,2.487,0v-.5A1.243,1.243,0,0,0,15.667,28.862Zm-2.549-7.771a1.243,1.243,0,0,0,1.243-1.243v-.764a3.74,3.74,0,0,0-1.243-7.256,1.239,1.239,0,0,1,0-2.478,1.143,1.143,0,0,1,1.094.726A1.243,1.243,0,0,0,16.5,9.1a3.625,3.625,0,0,0-2.139-2.031v-.84a1.243,1.243,0,0,0-2.487,0v.844a3.729,3.729,0,0,0,1.243,7.238,1.248,1.248,0,0,1,0,2.5,1.322,1.322,0,0,1-1.166-.767,1.243,1.243,0,0,0-2.268,1.019,3.842,3.842,0,0,0,2.191,2.014v.771a1.243,1.243,0,0,0,1.243,1.243Zm-4.29,4.257a1.244,1.244,0,0,0,.445-2.4C-1.552,18.571,1.355,2.7,13.056,2.5a10.544,10.544,0,0,1,10.41,8.732,1.243,1.243,0,0,0,2.449-.429A13.07,13.07,0,0,0,21.5,3.111C13.115-4.053-.037,2.032,0,13.071A13.1,13.1,0,0,0,8.383,25.265,1.24,1.24,0,0,0,8.828,25.347Z" transform="translate(0 -0.017)"/>
</svg>
