<svg xmlns="http://www.w3.org/2000/svg" xmlns:xlink="http://www.w3.org/1999/xlink" width="31.702" height="31.702" viewBox="0 0 31.702 31.702">
  <defs>
    <style>
      .cls-1 {
        fill: url(#linear-gradient);
      }
    </style>
    <linearGradient id="linear-gradient" x1="0.5" y1="1" x2="0.5" gradientUnits="objectBoundingBox">
      <stop offset="0" stop-color="#67016f"/>
      <stop offset="1" stop-color="#e90075"/>
    </linearGradient>
  </defs>
  <path id="consumer" class="cls-1" d="M3.045,19.407h.511V30.656a2.037,2.037,0,0,0,3.579,1.339A2.033,2.033,0,0,0,8.67,32.7H20.43V17.362H19.3l-8.589,3.617V19.407h.511a2.047,2.047,0,0,0,2.045-2.045v-.511h6.347L28.1,8.37l1.875,1.875,1.3-7.822-7.822,1.3L25.331,5.6,18.173,12.76H13.245A6.143,6.143,0,0,0,9.2,7.5a3.579,3.579,0,1,0-4.124,0A6.141,6.141,0,0,0,1,13.272v4.091a2.047,2.047,0,0,0,2.045,2.045ZM18.6,13.783,26.777,5.6,25.585,4.409l4.45-.742-.742,4.45L28.1,6.924l-8.9,8.9H13.272V13.783Zm.811,4.645V31.679H10.431a2.024,2.024,0,0,0,.284-1.023V22.088ZM7.136,8.158a5.119,5.119,0,0,1,1.012.1,1.017,1.017,0,0,1-2.025,0A5.119,5.119,0,0,1,7.136,8.158ZM4.579,4.579A2.557,2.557,0,1,1,7.136,7.136,2.559,2.559,0,0,1,4.579,4.579ZM2.023,13.272a5.12,5.12,0,0,1,3.109-4.7,2.045,2.045,0,0,0,4.008,0,5.12,5.12,0,0,1,3.109,4.7v4.091a1.024,1.024,0,0,1-1.023,1.023h-.511V11.226H9.692v19.43a1.023,1.023,0,0,1-2.045,0V16.851H6.624V30.656a1.023,1.023,0,0,1-2.045,0V11.226H3.557v7.158H3.045a1.024,1.024,0,0,1-1.023-1.023Zm23.009,9.715A1.534,1.534,0,1,0,23.5,21.453,1.536,1.536,0,0,0,25.032,22.987Zm0-2.045a.511.511,0,1,1-.511.511A.512.512,0,0,1,25.032,20.941Zm4.091,3.068a1.534,1.534,0,1,0,1.534,1.534A1.536,1.536,0,0,0,29.122,24.009Zm0,2.045a.511.511,0,1,1,.511-.511A.512.512,0,0,1,29.122,26.054Zm1.384-5.263-6.136,6.136-.723-.723,6.136-6.136ZM21.453,32.7H32.7V12.249H31.576L21.453,16.511ZM22.475,17.19l9.2-3.875V31.679h-9.2Zm-7.158,10.4v-.511a.512.512,0,0,0-.511-.511,1.536,1.536,0,0,1-1.534-1.534V23.5h1.023V22.475h1.023v1.117a1.532,1.532,0,0,1,1.023,1.44H15.317a.512.512,0,0,0-.511-.511h-.511v.511a.512.512,0,0,0,.511.511,1.536,1.536,0,0,1,1.534,1.534v1.534H15.317v1.023H14.294V28.517a1.532,1.532,0,0,1-1.023-1.44h1.023a.512.512,0,0,0,.511.511Zm3.068,3.068H17.362V29.634h1.023Zm0-2.045H17.362V27.588h1.023Zm0-2.045H17.362V25.543h1.023Zm11.249,3.068h1.023v1.023H29.634Zm-2.045,0h1.023v1.023H27.588Zm-2.045,0h1.023v1.023H25.543Z" transform="translate(-1 -1)"/>
</svg>
