<svg xmlns="http://www.w3.org/2000/svg" width="17.962" height="17.16" viewBox="0 0 17.962 17.16"><defs><style>.a{fill:none;stroke:#707070;stroke-width:0.5px;}</style></defs><path class="a" d="M18.7,9.975a1.167,1.167,0,0,0-.678-2.1l-4.731-.179a.121.121,0,0,1-.105-.079L11.553,3.2a1.167,1.167,0,0,0-2.192,0L7.731,7.63a.121.121,0,0,1-.105.079l-4.731.179a1.167,1.167,0,0,0-.678,2.1l3.712,2.918a.121.121,0,0,1,.042.126L4.692,17.561a1.167,1.167,0,0,0,1.777,1.288l3.922-2.629a.116.116,0,0,1,.131,0l3.922,2.629a1.153,1.153,0,0,0,1.777-1.262l-1.288-4.542a.116.116,0,0,1,.042-.126Z" transform="translate(-1.478 -2.182)"/></svg>