<svg id="property" xmlns="http://www.w3.org/2000/svg" xmlns:xlink="http://www.w3.org/1999/xlink" width="32.962" height="32.962" viewBox="0 0 32.962 32.962">
  <defs>
    <style>
      .cls-1 {
        fill: url(#linear-gradient);
      }
    </style>
    <linearGradient id="linear-gradient" x1="0.5" x2="0.5" y2="1" gradientUnits="objectBoundingBox">
      <stop offset="0" stop-color="#e90075"/>
      <stop offset="1" stop-color="#67016f"/>
    </linearGradient>
  </defs>
  <path id="Path_13489" data-name="Path 13489" class="cls-1" d="M31.023,17.58H21.587a1.941,1.941,0,0,0-1.933,1.8l-2.2-.551V5.916a3.038,3.038,0,1,0-1.939,0V18.342l-2.2-.549V17.45a1.941,1.941,0,0,0-1.939-1.939H1.939A1.941,1.941,0,0,0,0,17.45v2.2a1.941,1.941,0,0,0,1.939,1.939h9.436a1.941,1.941,0,0,0,1.933-1.8l2.2.551v6.546H9.178a1.941,1.941,0,0,0-1.939,1.939v2.2a1.941,1.941,0,0,0,1.939,1.939H23.784a1.941,1.941,0,0,0,1.939-1.939v-2.2a1.941,1.941,0,0,0-1.939-1.939H17.45V20.825l2.2.549v.342a1.941,1.941,0,0,0,1.939,1.939h9.436a1.941,1.941,0,0,0,1.939-1.939v-2.2A1.941,1.941,0,0,0,31.023,17.58ZM11.375,19.648H1.939v-2.2h9.436C11.376,19.7,11.381,19.648,11.375,19.648Zm12.409,9.178c0,2.245.006,2.2,0,2.2H9.178v-2.2Zm-7.3-24.689a1.1,1.1,0,1,1,1.1-1.1A1.1,1.1,0,0,1,16.481,4.136Zm14.542,17.58H21.587v-2.2h9.436C31.024,21.763,31.029,21.716,31.023,21.716Z"/>
  <path id="Path_13490" data-name="Path 13490" class="cls-1" d="M329.871,59.889H336.2a1.941,1.941,0,0,0,1.939-1.939c0-5.69.02-5.328-.048-5.535-.089-.274.071-.042-3.609-4.182a1.939,1.939,0,0,0-2.9,0c-3.7,4.168-3.488,3.894-3.575,4.094-.116.264-.081-.045-.081,5.623A1.941,1.941,0,0,0,329.871,59.889Zm3.167-10.368,1.978,2.225H331.06Zm-3.167,4.164H336.2V57.95c-.007,0-.379,0-6.335,0Z" transform="translate(-306.733 -44.507)"/>
  <path id="Path_13491" data-name="Path 13491" class="cls-1" d="M44.665,11.3a5.115,5.115,0,0,0,2.266.725v.348a.971.971,0,0,0,1.036.967h0a.967.967,0,0,0,.585-.249c.368-.319.317-.74.317-1.146,3.316-.741,4.1-4.912.709-6.156-.224-.082-2.774-.793-3.1-1.294a.7.7,0,0,1,.065-.721c.414-.691,1.7-.725,2.451-.451.491.171.558.371.9.44a.976.976,0,0,0,.672-1.8,4.391,4.391,0,0,0-1.7-.668,1.833,1.833,0,0,0-.04-.575A.97.97,0,0,0,46.951.8a2.547,2.547,0,0,0-.021.555,2.819,2.819,0,0,0-1.883,4.46,7.173,7.173,0,0,0,2.919,1.5c.774.25,1.369.35,1.7.808.5.691-.167,1.941-1.7,1.989A3.785,3.785,0,0,1,45.6,9.6a.97.97,0,1,0-.938,1.7Z" transform="translate(-41.31 -0.027)"/>
</svg>
