<svg xmlns="http://www.w3.org/2000/svg" width="125.26" height="180" viewBox="0 0 125.26 180">
  <defs>
    <style>
      .cls-1 {
        fill: #ffdfba;
      }

      .cls-2 {
        fill: #ac6ab1;
      }

      .cls-3 {
        fill: #ffebd2;
      }

      .cls-4 {
        fill: #42434d;
      }

      .cls-5 {
        fill: #ffd6a6;
      }

      .cls-6 {
        fill: #4d4e59;
      }

      .cls-7 {
        fill: #fff3e4;
      }

      .cls-8 {
        fill: #67016f;
      }
    </style>
  </defs>
  <g id="woman" transform="translate(-72.987)">
    <path id="Path_13592" data-name="Path 13592" class="cls-1" d="M198.373,164.277V179a3,3,0,0,1-3,3H85.873a3,3,0,0,1-3-3V164.277A27.975,27.975,0,0,1,99.283,138.8c-3.949-3.142-9.968-7.365-14.348-16.451a39.65,39.65,0,0,1,2.715-39.214,38.569,38.569,0,0,0,6.473-21.39V45.5A37.5,37.5,0,0,1,131.623,8h18a37.5,37.5,0,0,1,37.5,37.5c0,17.208-.42,20.577,1.654,27.42,2.927,9.675,6.793,10.872,9.772,20.719a39.674,39.674,0,0,1-13.264,42.521l-3.322,2.644A27.975,27.975,0,0,1,198.373,164.277Z" transform="translate(-5.006 -5)"/>
    <path id="Path_13593" data-name="Path 13593" class="cls-2" d="M201.5,375.815v14.722a3,3,0,0,1-3,3H89a3,3,0,0,1-3-3V375.815a27.965,27.965,0,0,1,27.964-27.964,15.518,15.518,0,0,0,6.442-1.391l.094.2,21.414,16.578a3,3,0,0,0,3.673,0L167,346.663l.094-.2a15.518,15.518,0,0,0,6.442,1.391A27.965,27.965,0,0,1,201.5,375.815Z" transform="translate(-8.134 -216.537)"/>
    <path id="Path_13594" data-name="Path 13594" class="cls-3" d="M212.412,132.284a3,3,0,0,1,2.839,2.995v17.957a37.125,37.125,0,1,1-74.25,0v-17.7a3,3,0,0,1,3.257-2.989,77.616,77.616,0,0,0,50.6-12.937,2.99,2.99,0,0,1,4.557,1.674c1.851,6.823,6.9,10.649,13,11Z" transform="translate(-42.509 -74.438)"/>
    <path id="Path_13595" data-name="Path 13595" class="cls-4" d="M185.292,136.16l-3.323,2.644a27.894,27.894,0,0,0-11.554-2.49,15.514,15.514,0,0,1-15.536-15.5V118.25l-.056-.139A37.129,37.129,0,0,0,177.754,83.8V65.841a3,3,0,0,0-2.839-2.995c-6.063-.345-11.137-4.13-13-11a2.99,2.99,0,0,0-4.557-1.674,77.621,77.621,0,0,1-50.6,12.937A3,3,0,0,0,103.5,66.1V83.8a37.129,37.129,0,0,0,22.931,34.312l-.056.139v2.561a15.514,15.514,0,0,1-15.536,15.5A27.894,27.894,0,0,0,99.29,138.8l-3.323-2.644a39.674,39.674,0,0,1-8.31-53.021,38.57,38.57,0,0,0,6.473-21.39V45.5A37.5,37.5,0,0,1,131.63,8h18a37.5,37.5,0,0,1,37.5,37.5V61.749a38.591,38.591,0,0,0,6.473,21.39A39.675,39.675,0,0,1,185.292,136.16Z" transform="translate(-5.012 -5)"/>
    <path id="Path_13596" data-name="Path 13596" class="cls-5" d="M230.219,307.926a37.227,37.227,0,0,1-29.348,0,23.239,23.239,0,0,0,.424-6.158l.056-.139a37.2,37.2,0,0,0,28.387,0l.056.139A23.216,23.216,0,0,0,230.219,307.926Z" transform="translate(-79.928 -188.519)"/>
    <path id="Path_13597" data-name="Path 13597" class="cls-6" d="M166.567,12.036a3.911,3.911,0,0,1-2.11,7.383q-1.768-.168-3.581-.169h-18a37.5,37.5,0,0,0-37.5,37.5v4.563c0,2.694-1.875,2.607-1.875,4.79,0,19.808.08,18.554-.21,19.409-2.942,8.654-6.475,9.907-9.341,19.377a39.64,39.64,0,0,0-1.482,15.626,3.915,3.915,0,0,1-7.53,1.838,39.657,39.657,0,0,1,2.715-39.214,38.57,38.57,0,0,0,6.473-21.39V45.5A37.5,37.5,0,0,1,131.626,8h18a37.341,37.341,0,0,1,16.941,4.036Z" transform="translate(-5.009 -5)"/>
    <path id="Path_13598" data-name="Path 13598" class="cls-7" d="M171.01,200.5c5.6,3.75,1.332,12.424-5.029,10.191A36.889,36.889,0,0,1,141,175.634v-17.7a3,3,0,0,1,3.259-2.989c1.437.131,3.015.233,4.718.285a5.715,5.715,0,0,1,5.523,5.723v8.678A36.993,36.993,0,0,0,171.01,200.5Z" transform="translate(-42.509 -96.835)"/>
    <path id="Path_13599" data-name="Path 13599" class="cls-8" d="M126.687,351.451a2.386,2.386,0,0,1-1.411,4.275A27.958,27.958,0,0,0,97.252,383.69v9.848H89a3,3,0,0,1-3-3V375.815a27.965,27.965,0,0,1,27.964-27.964,15.519,15.519,0,0,0,6.443-1.391l.094.2Z" transform="translate(-8.134 -216.537)"/>
    <path id="Path_13600" data-name="Path 13600" class="cls-8" d="M283.958,351.451a2.386,2.386,0,0,0,1.411,4.275,27.958,27.958,0,0,1,28.023,27.964v9.848h8.25a3,3,0,0,0,3-3V375.815a27.965,27.965,0,0,0-27.964-27.964,15.519,15.519,0,0,1-6.442-1.391l-.094.2Z" transform="translate(-131.275 -216.537)"/>
    <path id="Path_13601" data-name="Path 13601" d="M196.367,159.279V177a3,3,0,0,1-6,0V159.279A24.95,24.95,0,0,0,165.4,134.315a18.419,18.419,0,0,1-15.847-8.9,3,3,0,1,1,5.124-3.121,12.464,12.464,0,0,0,10.723,6.019A30.947,30.947,0,0,1,196.367,159.279Zm-50.051-23.23-10.7,8.283-18.19-14.083A18.379,18.379,0,0,0,124.3,117.3a40.13,40.13,0,0,0,51.439-38.5c0-.233.005-21-.01-21.237a3,3,0,0,0-2.99-2.81,12.346,12.346,0,0,1-7.828-1.446c-5.643-3.395-5.672-10.836-5.672-10.911a3,3,0,0,0-4.733-2.467A96.682,96.682,0,0,1,111.972,56.8a3,3,0,0,0,.413,5.971,98.706,98.706,0,0,0,21.258-5.207,102.862,102.862,0,0,0,20.35-10.062c2.211,8.3,8.413,12.913,15.75,13.33V78.8a34.125,34.125,0,0,1-68.25,0V57.75a3,3,0,0,0-6,0V78.8a40.175,40.175,0,0,0,22.875,36.223v.791a12.507,12.507,0,0,1-12.535,12.5,30.95,30.95,0,0,0-11.072,2.039l-1.937-1.542A36.642,36.642,0,0,1,85.143,79.8a41.446,41.446,0,0,0,6.975-23.048V40.5A34.54,34.54,0,0,1,126.618,6h18a34.539,34.539,0,0,1,34.5,34.5V56.75a41.234,41.234,0,0,0,6.942,23,36.647,36.647,0,0,1-.293,41.183,3,3,0,1,0,4.94,3.4,42.642,42.642,0,0,0,.341-47.922,35.253,35.253,0,0,1-5.93-19.667V40.5A40.546,40.546,0,0,0,144.618,0h-18a40.547,40.547,0,0,0-40.5,40.5V56.75a35.462,35.462,0,0,1-5.968,19.724A42.631,42.631,0,0,0,88.9,133.35a30.879,30.879,0,0,0-14.029,25.928V177a3,3,0,0,0,6,0V159.279a24.95,24.95,0,0,1,24.965-24.964,18.6,18.6,0,0,0,5.836-.937L133.781,150.5a3,3,0,0,0,3.673,0l12.535-9.7a3,3,0,0,0-3.673-4.744Z" transform="translate(0)"/>
  </g>
</svg>
