<svg id="cloud-computing_1_" data-name="cloud-computing (1)" xmlns="http://www.w3.org/2000/svg" width="31.959" height="29.091" viewBox="0 0 31.959 29.091">
  <defs>
    <style>
      .cls-1 {
        fill: #67016f;
      }
    </style>
  </defs>
  <g id="Group_3542" data-name="Group 3542" transform="translate(0 0)">
    <g id="Group_3541" data-name="Group 3541">
      <path id="Path_15238" data-name="Path 15238" class="cls-1" d="M26.628,63.345a10.985,10.985,0,0,0-21.61,1.877,5.992,5.992,0,0,0,1,11.9h4.993v-2H6.016a3.994,3.994,0,1,1,0-7.989,1,1,0,0,0,1-1A8.988,8.988,0,0,1,24.82,64.394a1,1,0,0,0,.849.8,4.993,4.993,0,0,1-.679,9.936H21v2H24.99a6.99,6.99,0,0,0,1.638-13.781Z" transform="translate(0 -55.032)"/>
      <path id="Path_15239" data-name="Path 15239" class="cls-1" d="M185.029,261.7l-3.994-3.995,1.408-1.408,2.3,2.287v-9.577h2v9.577l2.287-2.287,1.408,1.408-3.994,3.995A1,1,0,0,1,185.029,261.7Z" transform="translate(-169.736 -232.903)"/>
    </g>
  </g>
</svg>
