<svg id="XMLID_281_" xmlns="http://www.w3.org/2000/svg" width="26.75" height="26.75" viewBox="0 0 26.75 26.75">
  <path id="XMLID_283_" d="M251.46,188.547a.64.64,0,0,1,.688.576.522.522,0,1,0,1.045,0,1.64,1.64,0,0,0-1.211-1.546V187.5a.522.522,0,1,0-1.045,0v.073a1.64,1.64,0,0,0-1.21,1.546,1.682,1.682,0,0,0,1.733,1.621.585.585,0,1,1-.688.576.522.522,0,1,0-1.045,0,1.64,1.64,0,0,0,1.21,1.546v.073a.522.522,0,0,0,1.045,0v-.073a1.64,1.64,0,0,0,1.211-1.546,1.682,1.682,0,0,0-1.733-1.621.585.585,0,1,1,0-1.152Z" transform="translate(-236.679 -177.213)"/>
  <path id="XMLID_1217_" d="M26.672,17.455a2,2,0,0,0-2.86-1.209,9.207,9.207,0,0,0-.377-4.441.523.523,0,1,0-.988.339,8.156,8.156,0,0,1,.016,5.225l-4.164,3.7a4.2,4.2,0,0,1-.838.579,2,2,0,0,0-1.08-2.291l-3.689-1.767a6.705,6.705,0,0,0-5.178-.246l-.375.138A8.07,8.07,0,0,1,9.05,9.051l3.689-3.689h4.084l3.125,3.125a.523.523,0,0,0,.739-.739L17.7,4.762l1.08-3.107A.94.94,0,0,0,17.228.683l-.006.006a.554.554,0,0,1-.783,0,2.355,2.355,0,0,0-3.326,0,.554.554,0,0,1-.783,0,.94.94,0,0,0-1.552.975l1.084,3.1L8.311,8.312A9.151,9.151,0,0,0,6.156,17.84l-.824.3a1.5,1.5,0,0,0-1.188-.587H1.5a1.5,1.5,0,0,0-1.5,1.5v6.2a1.5,1.5,0,0,0,1.5,1.5H15.269a8.221,8.221,0,0,0,5.76-2.338l5.116-4.972A2,2,0,0,0,26.672,17.455ZM12.72,1.9a1.589,1.589,0,0,0,1.131-.468,1.308,1.308,0,0,1,1.848,0,1.6,1.6,0,0,0,1.975.228l-.925,2.661H12.812l-.93-2.657a1.589,1.589,0,0,0,.838.237ZM1.045,25.254v-6.2A.453.453,0,0,1,1.5,18.6H4.145a.453.453,0,0,1,.453.453v6.2a.453.453,0,0,1-.453.453H1.5a.453.453,0,0,1-.453-.453Zm24.371-6.561L20.3,23.664a7.182,7.182,0,0,1-5.031,2.042h-9.7a1.492,1.492,0,0,0,.07-.453V19.142l2.23-.819a5.654,5.654,0,0,1,4.367.207L15.928,20.3a.962.962,0,0,1,.4,1.37.96.96,0,0,1-1.111.413l-4.9-1.558a.523.523,0,0,0-.317,1l4.9,1.558a2.012,2.012,0,0,0,.61.095l.073,0a5.233,5.233,0,0,0,3.4-1.32L24.118,17.3a.957.957,0,0,1,.831-.22.954.954,0,0,1,.466,1.616Z" transform="translate(0 -0.001)"/>
  <path id="XMLID_1298_" d="M409.262,180.035a.523.523,0,1,0-.369-.153A.524.524,0,0,0,409.262,180.035Z" transform="translate(-387.383 -169.638)"/>
</svg>
