<svg id="Group_3508" data-name="Group 3508" xmlns="http://www.w3.org/2000/svg" width="26.045" height="23.875" viewBox="0 0 26.045 23.875">
  <g id="Group_3507" data-name="Group 3507" transform="translate(0 0)">
    <path id="Path_15228" data-name="Path 15228" d="M81.364,32.728V31.1a7.607,7.607,0,0,0-5.426-7.277V23.5a2.17,2.17,0,1,0-4.341,0v.32A7.608,7.608,0,0,0,66.17,31.1v1.628c0,3.612-.85,4.881-1.471,5.808a3.072,3.072,0,0,0-.7,1.788c0,1.769,3.688,2.39,6.678,2.6a3.233,3.233,0,0,0,6.179,0c2.99-.214,6.678-.835,6.678-2.6a3.072,3.072,0,0,0-.7-1.788C82.214,37.609,81.364,36.34,81.364,32.728ZM72.682,23.5a1.085,1.085,0,1,1,2.17,0v.087a6.836,6.836,0,0,0-2.17,0Zm1.085,20.619A2.152,2.152,0,0,1,71.874,43c.769.032,1.437.041,1.893.041s1.125-.009,1.894-.041A2.152,2.152,0,0,1,73.767,44.123Zm0-2.17c-4.969,0-8.682-.86-8.682-1.628A2.065,2.065,0,0,1,65.6,39.14c.658-.984,1.654-2.47,1.654-6.412V31.1a6.511,6.511,0,1,1,13.023,0v1.628c0,3.942,1,5.429,1.654,6.412a2.065,2.065,0,0,1,.516,1.184C82.449,41.093,78.736,41.952,73.767,41.952Z" transform="translate(-60.744 -21.333)"/>
    <path id="Path_15229" data-name="Path 15229" d="M479.554,171.536a.543.543,0,0,0-1.03.343,11.26,11.26,0,0,1,0,7.2.543.543,0,0,0,1.03.343,12.358,12.358,0,0,0,0-7.889Z" transform="translate(-454.155 -163.543)"/>
    <path id="Path_15230" data-name="Path 15230" d="M438.429,184.691a.543.543,0,0,0-.343.686,9.133,9.133,0,0,1,0,5.832.543.543,0,0,0,.343.686.554.554,0,0,0,.172.028.543.543,0,0,0,.515-.371,10.225,10.225,0,0,0,0-6.517A.545.545,0,0,0,438.429,184.691Z" transform="translate(-415.774 -176.356)"/>
    <path id="Path_15231" data-name="Path 15231" d="M1.085,175.5a11.363,11.363,0,0,1,.59-3.6.543.543,0,1,0-1.03-.343,12.367,12.367,0,0,0,0,7.889.543.543,0,0,0,1.03-.343A11.357,11.357,0,0,1,1.085,175.5Z" transform="translate(0 -163.563)"/>
    <path id="Path_15232" data-name="Path 15232" d="M44.23,191.205a9.134,9.134,0,0,1,0-5.832.543.543,0,1,0-1.03-.342,10.225,10.225,0,0,0,0,6.517.543.543,0,0,0,.515.371.553.553,0,0,0,.172-.028A.543.543,0,0,0,44.23,191.205Z" transform="translate(-40.497 -176.352)"/>
  </g>
</svg>
