<svg id="Group_3509" data-name="Group 3509" xmlns="http://www.w3.org/2000/svg" width="23.841" height="23.875" viewBox="0 0 23.841 23.875">
  <path id="Path_15233" data-name="Path 15233" d="M19.2,40.815a2.348,2.348,0,0,0-1.7-.781,2.428,2.428,0,0,0-1.723.776L14.177,42.4c-.131-.071-.262-.136-.388-.2-.181-.091-.353-.176-.5-.267a17.307,17.307,0,0,1-4.147-3.779A10.21,10.21,0,0,1,7.783,36c.413-.378.8-.771,1.169-1.149.141-.141.282-.287.423-.428a2.312,2.312,0,0,0,0-3.487L8,29.563c-.156-.156-.317-.317-.469-.479-.3-.312-.62-.635-.947-.937A2.385,2.385,0,0,0,4.9,27.406a2.468,2.468,0,0,0-1.713.741l-.01.01L1.459,29.885A3.687,3.687,0,0,0,.365,32.228a8.834,8.834,0,0,0,.645,3.739A21.7,21.7,0,0,0,4.865,42.4a23.713,23.713,0,0,0,7.9,6.183A12.3,12.3,0,0,0,17.2,49.89c.106.005.217.01.317.01a3.8,3.8,0,0,0,2.908-1.25c.005-.01.015-.015.02-.025a11.454,11.454,0,0,1,.882-.912c.217-.207.438-.423.655-.65a2.514,2.514,0,0,0,.761-1.744,2.422,2.422,0,0,0-.776-1.728ZM21,46.121c-.005,0-.005.005,0,0-.2.212-.4.4-.615.615a13.251,13.251,0,0,0-.973,1.008,2.429,2.429,0,0,1-1.895.8c-.076,0-.156,0-.232-.005a10.929,10.929,0,0,1-3.93-1.179,22.384,22.384,0,0,1-7.438-5.825C4.2,39.464,7.309,38.023,8.075,39L8.08,39a18.5,18.5,0,0,0,4.475,4.072,6.878,6.878,0,0,0,.62.338c.181.091.353.176.5.267.02.01.04.025.06.035a1.092,1.092,0,0,0,.5.126A1.077,1.077,0,0,0,15,43.491l1.723-1.723a1.14,1.14,0,0,1,.761-.378,1.026,1.026,0,0,1,.726.368l.01.01L21,44.544A1,1,0,0,1,21,46.121Z" transform="translate(-0.344 -26.025)" fill="#67016f"/>
  <path id="Path_15234" data-name="Path 15234" d="M245.5,87.275a6.485,6.485,0,0,1,5.281,5.281.676.676,0,0,0,.67.564.9.9,0,0,0,.116-.01.681.681,0,0,0,.559-.786,7.842,7.842,0,0,0-6.389-6.39.684.684,0,0,0-.786.554A.673.673,0,0,0,245.5,87.275Z" transform="translate(-232.618 -81.595)" fill="#67016f"/>
  <path id="Path_15235" data-name="Path 15235" d="M260.087,10.532A12.912,12.912,0,0,0,249.566.011a.679.679,0,1,0-.222,1.34,11.533,11.533,0,0,1,9.4,9.4.676.676,0,0,0,.67.564.9.9,0,0,0,.116-.01A.668.668,0,0,0,260.087,10.532Z" transform="translate(-236.257 0)" fill="#67016f"/>
</svg>
