<svg xmlns="http://www.w3.org/2000/svg" width="29.993" height="30.101" viewBox="0 0 29.993 30.101">
  <g id="Group_3514" data-name="Group 3514" transform="translate(-5645 -2544.125)">
    <path id="Path_15220" data-name="Path 15220" d="M28.108,36.15H22.72V34.382a.441.441,0,0,0-.881,0V36.15H20.013a.441.441,0,0,0,0,.881h1.825V38.9h-.331a.839.839,0,0,0-.838.838v5.188a.839.839,0,0,0,.838.838h.331v3.5a.441.441,0,1,0,.881,0v-3.5h.331a.839.839,0,0,0,.838-.838V39.735a.839.839,0,0,0-.838-.838H22.72V37.032h5.388a1.923,1.923,0,0,1,1.92,1.92V54.035H1.8V38.952a1.923,1.923,0,0,1,1.92-1.92h7.725v.86h-.331a.839.839,0,0,0-.838.838v5.188a.839.839,0,0,0,.838.838h.331v3.894a.441.441,0,1,0,.881,0V44.755h.331a.839.839,0,0,0,.838-.838V38.729a.839.839,0,0,0-.838-.838h-.331v-.86h1.825a.441.441,0,0,0,0-.881H12.325v-.218a.441.441,0,1,0-.881,0v.218H3.719a2.805,2.805,0,0,0-2.8,2.8V54.476a2.805,2.805,0,0,0,2.8,2.8h6.708v2.241l-1.42,1.648H8.443a.441.441,0,0,0,0,.881h14.9a.441.441,0,0,0,0-.881H22.82L21.4,59.518V57.278h6.708a2.805,2.805,0,0,0,2.8-2.8V38.952a2.805,2.805,0,0,0-2.8-2.8Zm-5.1,8.729H21.551v-5.1h1.455v5.1ZM12.612,43.874H11.157v-5.1h1.455ZM28.108,56.4H19.189a.441.441,0,0,0,0,.881h1.329v1.964h-1.1a.441.441,0,1,0,0,.881h1.336l.9,1.043H10.171l.9-1.043h1.336a.441.441,0,0,0,0-.881h-1.1V57.278h6a.441.441,0,1,0,0-.881H3.719a1.923,1.923,0,0,1-1.869-1.48H29.977A1.923,1.923,0,0,1,28.108,56.4Z" transform="translate(5644.083 2512.178)"/>
    <path id="Path_15221" data-name="Path 15221" d="M72.18,128.191a.441.441,0,0,0-.441.441V129.7a.838.838,0,0,0,.838.838h.331v2.347a.441.441,0,0,0,.881,0v-2.347h.331a.838.838,0,0,0,.838-.838v-5.188a.839.839,0,0,0-.838-.838h-.331v-.7a.441.441,0,1,0-.881,0v.7h-.331a.839.839,0,0,0-.838.838v2.246a.441.441,0,0,0,.881,0v-2.2h1.455v5.1H72.62v-1.02A.441.441,0,0,0,72.18,128.191Z" transform="translate(5577.422 2428.801)"/>
    <path id="Path_15222" data-name="Path 15222" d="M249.477,11.936h.331v2.347a.441.441,0,0,0,.881,0V11.936h.331a.839.839,0,0,0,.838-.838V7.642a.441.441,0,0,0-.881,0v3.413H249.52V3.075h1.455V5.764a.441.441,0,0,0,.881,0V3.031a.839.839,0,0,0-.838-.838h-.331V.441a.441.441,0,0,0-.881,0V2.194h-.331a.839.839,0,0,0-.838.838V11.1a.838.838,0,0,0,.838.838Z" transform="translate(5410.917 2544.125)"/>
    <path id="Path_15223" data-name="Path 15223" d="M406.908,163.238a.44.44,0,0,0,.6.179l2.03-1.095-.146.383a.441.441,0,1,0,.824.314l.5-1.3a.441.441,0,0,0-.255-.569l-1.382-.527a.441.441,0,0,0-.314.824l.321.122-1.991,1.074A.441.441,0,0,0,406.908,163.238Z" transform="translate(5261.997 2392.969)"/>
    <path id="Path_15224" data-name="Path 15224" d="M44.692,247.858a.44.44,0,0,0,.579.232l5.687-2.434.517,1.354a.441.441,0,0,0,.621.231l9.395-5.065a.441.441,0,1,0-.418-.776l-8.953,4.827-.5-1.313a.441.441,0,0,0-.585-.248l-6.108,2.614A.441.441,0,0,0,44.692,247.858Z" transform="translate(5602.914 2316.959)"/>
  </g>
</svg>
