<svg xmlns="http://www.w3.org/2000/svg" width="30.128" height="30.589" viewBox="0 0 30.128 30.589">
  <g id="Group_3515" data-name="Group 3515" transform="translate(-11.42 1.162)">
    <g id="Group_3511" data-name="Group 3511" transform="translate(11.42 -1.162)">
      <path id="Path_15220" data-name="Path 15220" d="M28.231,36.432H22.818V34.655a.443.443,0,0,0-.885,0v1.777H20.1a.443.443,0,0,0,0,.885h1.834v1.874H21.6a.842.842,0,0,0-.841.841v5.211a.842.842,0,0,0,.841.841h.332V49.6a.443.443,0,0,0,.885,0V46.086h.332a.842.842,0,0,0,.841-.841V40.033a.842.842,0,0,0-.841-.841h-.332V37.317h.892v.737c1.178,0,1.207.741,1.207,1.492v5.7c0,1.167.037,1.752-1.207,1.752v2.6s.28,1.374-1.334,1.349c-1.26,0-1.331-.78-1.331-1.349V47c-.04-.074-1.332-.023-1.263-1.752,0-1.936-.019-3.372-.019-6.053a1.73,1.73,0,0,1-.488.011c0-1.852.022-1.691,0-3.611-.018-1.546-.959-1.6-1.348-1.6,0-2.1-.159-2.134-.777-2.134-1.042,0-.807.709-.807,2.134-1.134.089-1.231.8-1.269,1.6v3.6c-.53,0-.113.011-.52.011.017,2.086,0,2.563,0,4.944,0,1.271-.211,1.94-1.16,1.94V49c0,.676.023,1.372-1.457,1.372-1.5.015-1.464-.857-1.464-1.372,0-2.1.015-1.657,0-2.918-1.246-.2-1.095-.86-1.095-1.9V39.2c0-1.064.534-1.885,1.6-1.885h.519v.864h-.332a.842.842,0,0,0-.841.841v5.211a.842.842,0,0,0,.841.841h.332v3.912a.443.443,0,1,0,.885,0V45.075h.332a.842.842,0,0,0,.841-.841V39.023a.842.842,0,0,0-.841-.841h-.332v-.864H14.21a.443.443,0,1,0,0-.885H12.377v-.219a.443.443,0,1,0-.885,0v.219H3.731A2.818,2.818,0,0,0,.917,39.246V54.84a2.818,2.818,0,0,0,2.814,2.814H10.47v2.251L9.043,61.56H8.477a.443.443,0,0,0,0,.885H23.444a.443.443,0,0,0,0-.885h-.526l-1.427-1.655V57.655h6.739a2.818,2.818,0,0,0,2.814-2.814V39.247a2.818,2.818,0,0,0-2.814-2.815ZM23.106,45.2H21.644V40.077h1.462V45.2ZM12.665,44.19H11.2V39.067h1.462ZM28.231,56.769H19.271a.443.443,0,0,0,0,.885h1.335v1.973H19.5a.443.443,0,1,0,0,.885h1.342l.9,1.048H10.212l.9-1.048h1.342a.443.443,0,1,0,0-.885h-1.1V57.655h6.029a.443.443,0,0,0,0-.885H3.731a1.932,1.932,0,0,1-1.877-1.486H30.108A1.932,1.932,0,0,1,28.231,56.769Z" transform="translate(-0.917 -31.856)" fill="#67016f"/>
      <path id="Path_15221" data-name="Path 15221" d="M72.182,128.216a.443.443,0,0,0-.443.443v1.069a.842.842,0,0,0,.841.841h.332v2.357a.443.443,0,0,0,.885,0v-2.357h.332a.842.842,0,0,0,.841-.841v-5.211a.842.842,0,0,0-.841-.841H73.8v-.708a.443.443,0,1,0-.885,0v.708H72.58a.842.842,0,0,0-.841.841v2.256a.443.443,0,0,0,.885,0V124.56h1.462v5.123H72.624v-1.025A.443.443,0,0,0,72.182,128.216Z" transform="translate(-67.559 -114.939)" fill="#fff"/>
      <path id="Path_15222" data-name="Path 15222" d="M249.48,11.99h.332v2.357a.443.443,0,0,0,.885,0V11.99h.332a.842.842,0,0,0,.841-.841V7.676a.443.443,0,0,0-.885,0V11.1h-1.462V3.089h1.462v2.7a.443.443,0,0,0,.885,0V3.045a.842.842,0,0,0-.841-.841H250.7V.443a.443.443,0,0,0-.885,0V2.2h-.332a.842.842,0,0,0-.841.841v8.1a.842.842,0,0,0,.841.841Z" transform="translate(-234.018 0.353)" fill="#fff"/>
      <path id="Path_15223" data-name="Path 15223" d="M406.908,163.25a.442.442,0,0,0,.6.18l2.039-1.1-.147.385a.443.443,0,1,0,.827.315l.5-1.308a.443.443,0,0,0-.256-.571l-1.389-.529a.443.443,0,0,0-.315.827l.322.123-2,1.079A.443.443,0,0,0,406.908,163.25Z" transform="translate(-381.765 -149.631)" fill="#fff"/>
      <path id="Path_15224" data-name="Path 15224" d="M44.691,247.566a.431.431,0,0,0,.562.221l5.522-2.325.5,1.293a.425.425,0,0,0,.251.244.434.434,0,0,0,.352-.024L61,242.139a.417.417,0,0,0,.174-.57.432.432,0,0,0-.58-.171L51.9,246.008l-.487-1.255a.424.424,0,0,0-.233-.237.435.435,0,0,0-.335,0l-5.931,2.5A.418.418,0,0,0,44.691,247.566Z" transform="translate(-42.075 -225.284)" fill="#fff"/>
    </g>
  </g>
</svg>
