<svg xmlns="http://www.w3.org/2000/svg" xmlns:xlink="http://www.w3.org/1999/xlink" width="315.328" height="315.328" viewBox="0 0 315.328 315.328">
  <defs>
    <style>
      .cls-1 {
        fill: url(#linear-gradient);
      }
    </style>
    <linearGradient id="linear-gradient" x1="0.57" y1="0.043" x2="0.589" y2="1" gradientUnits="objectBoundingBox">
      <stop offset="0" stop-color="#e90075"/>
      <stop offset="1" stop-color="#67016f"/>
    </linearGradient>
  </defs>
  <g id="bank" transform="translate(0 0)">
    <path id="Path_13602" data-name="Path 13602" class="cls-1" d="M311.808,147.448,220.73,115.569V47.3a5.262,5.262,0,0,0-1.3-3.459L182.643,1.8A5.255,5.255,0,0,0,178.686,0H5.255A5.256,5.256,0,0,0,0,5.255V283.8a5.256,5.256,0,0,0,5.255,5.255h99.854v10.511a15.767,15.767,0,0,0,15.766,15.766H289.051a15.767,15.767,0,0,0,15.766-15.766V283.8a5.256,5.256,0,0,0-5.255-5.255h-5.255V262.773a5.256,5.256,0,0,0-5.255-5.255V215.474a5.256,5.256,0,0,0,5.255-5.255V194.452h5.255a5.256,5.256,0,0,0,5.255-5.255V178.686h5.255a5.256,5.256,0,0,0,5.255-5.255V152.408a5.252,5.252,0,0,0-3.521-4.96ZM183.942,19.246l19.97,22.8h-19.97ZM10.511,278.54V10.511h162.92V47.3a5.256,5.256,0,0,0,5.255,5.255h31.533v59.334L206.7,110.66a5.257,5.257,0,0,0-3.469,0L98.119,147.448a5.252,5.252,0,0,0-3.521,4.96v21.022a5.256,5.256,0,0,0,5.255,5.255h5.255V189.2a5.256,5.256,0,0,0,5.255,5.255h5.255v15.766a5.256,5.256,0,0,0,5.255,5.255v42.044a5.256,5.256,0,0,0-5.255,5.255V278.54Zm168.175-84.088v15.766a5.256,5.256,0,0,0,5.255,5.255v42.044a5.256,5.256,0,0,0-5.255,5.255V278.54H168.175V262.774a5.256,5.256,0,0,0-5.255-5.255V215.474a5.256,5.256,0,0,0,5.255-5.255V194.452Zm63.066,0v15.766a5.256,5.256,0,0,0,5.255,5.255v42.044a5.256,5.256,0,0,0-5.255,5.255V278.54H231.241V262.774a5.256,5.256,0,0,0-5.255-5.255V215.474a5.256,5.256,0,0,0,5.255-5.255V194.452Zm-47.3,21.022h21.022v42.044H194.453ZM189.2,268.029H220.73V278.54H189.2Zm31.533-63.066H189.2V194.452H220.73Zm-89.343,10.511h21.022v42.044H131.387Zm-5.255,52.555h31.533V278.54H126.131Zm31.533-63.066H126.131V194.452h31.533Zm136.642,94.6a5.256,5.256,0,0,1-5.255,5.255H120.876a5.256,5.256,0,0,1-5.255-5.255V289.051H294.307ZM252.263,278.54V268.029H283.8V278.54Zm26.277-21.022H257.518V215.474H278.54Zm5.255-52.555H252.263V194.452H283.8Zm10.511-21.022H115.62v-5.255H294.307Zm10.511-15.766H105.109V156.14l99.854-34.948,99.854,34.948Zm0,0"/>
    <path id="Path_13603" data-name="Path 13603" class="cls-1" d="M288,215.766A15.766,15.766,0,1,0,303.766,200,15.767,15.767,0,0,0,288,215.766Zm21.022,0a5.255,5.255,0,1,1-5.255-5.255A5.256,5.256,0,0,1,309.022,215.766Zm0,0" transform="translate(-98.803 -68.613)"/>
    <path id="Path_13604" data-name="Path 13604" class="cls-1" d="M87.3,134.6A47.3,47.3,0,1,0,40,87.3,47.3,47.3,0,0,0,87.3,134.6Zm-25.41-20.765a15.634,15.634,0,0,1,14.9-10.768H97.81a15.635,15.635,0,0,1,14.9,10.768A36.615,36.615,0,0,1,61.889,113.833Zm14.9-31.789A10.511,10.511,0,1,1,87.3,92.555,10.511,10.511,0,0,1,76.788,82.044ZM87.3,50.511a36.754,36.754,0,0,1,32.469,54.043,25.982,25.982,0,0,0-14.943-10.947,21.022,21.022,0,1,0-35.054,0A25.99,25.99,0,0,0,54.83,104.559,36.753,36.753,0,0,1,87.3,50.511Zm0,0" transform="translate(-13.723 -13.723)"/>
    <path id="Path_13605" data-name="Path 13605" class="cls-1" d="M240,96h10.511v10.511H240Zm0,0" transform="translate(-82.336 -32.934)"/>
    <path id="Path_13606" data-name="Path 13606" class="cls-1" d="M272,96h21.022v10.511H272Zm0,0" transform="translate(-93.314 -32.934)"/>
    <path id="Path_13607" data-name="Path 13607" class="cls-1" d="M240,128h42.044v10.511H240Zm0,0" transform="translate(-82.336 -43.913)"/>
    <path id="Path_13608" data-name="Path 13608" class="cls-1" d="M32,200H47.766v10.511H32Zm0,0" transform="translate(-10.978 -68.613)"/>
    <path id="Path_13609" data-name="Path 13609" class="cls-1" d="M72,200h36.788v10.511H72Zm0,0" transform="translate(-24.701 -68.613)"/>
    <path id="Path_13610" data-name="Path 13610" class="cls-1" d="M32,232H95.066v10.511H32Zm0,0" transform="translate(-10.978 -79.591)"/>
    <path id="Path_13611" data-name="Path 13611" class="cls-1" d="M32,264H95.066v10.511H32Zm0,0" transform="translate(-10.978 -90.569)"/>
    <path id="Path_13612" data-name="Path 13612" class="cls-1" d="M32,296H42.511v10.511H32Zm0,0" transform="translate(-10.978 -101.548)"/>
    <path id="Path_13613" data-name="Path 13613" class="cls-1" d="M64,296h42.044v10.511H64Zm0,0" transform="translate(-21.956 -101.548)"/>
    <path id="Path_13614" data-name="Path 13614" class="cls-1" d="M32,328H53.022v10.511H32Zm0,0" transform="translate(-10.978 -112.526)"/>
    <path id="Path_13615" data-name="Path 13615" class="cls-1" d="M80,328h31.533v10.511H80Zm0,0" transform="translate(-27.445 -112.526)"/>
  </g>
</svg>
