<svg xmlns="http://www.w3.org/2000/svg" width="24" height="24" viewBox="0 0 24 24">
  <g id="Group_9073" data-name="Group 9073" transform="translate(6156 -3066)">
    <rect id="Rectangle_7635" data-name="Rectangle 7635" width="24" height="24" transform="translate(-6156 3066)" fill="none"/>
    <path id="Icon_awesome-whatsapp" data-name="Icon awesome-whatsapp" d="M18.652,5.438A10.874,10.874,0,0,0,1.542,18.556L0,24.188l5.763-1.513A10.838,10.838,0,0,0,10.959,24h0A10.975,10.975,0,0,0,21.938,13.126a10.914,10.914,0,0,0-3.286-7.688ZM10.964,22.165a9.019,9.019,0,0,1-4.6-1.258l-.328-.2-3.418.9.911-3.335-.215-.343a9.053,9.053,0,1,1,16.791-4.8A9.136,9.136,0,0,1,10.964,22.165ZM15.919,15.4c-.269-.137-1.606-.793-1.856-.881s-.431-.137-.612.137-.7.881-.862,1.067-.318.206-.588.069a7.394,7.394,0,0,1-3.7-3.232c-.279-.48.279-.446.8-1.484a.5.5,0,0,0-.024-.475c-.069-.137-.612-1.474-.837-2.017s-.446-.455-.612-.465-.338-.01-.519-.01a1.006,1.006,0,0,0-.725.338,3.052,3.052,0,0,0-.95,2.267,5.321,5.321,0,0,0,1.107,2.811,12.138,12.138,0,0,0,4.642,4.1,5.315,5.315,0,0,0,3.261.681,2.782,2.782,0,0,0,1.831-1.293,2.272,2.272,0,0,0,.157-1.293C16.37,15.6,16.189,15.53,15.919,15.4Z" transform="translate(-6154.938 3064.75)" fill="#02c408"/>
  </g>
</svg>
