<svg xmlns="http://www.w3.org/2000/svg" width="24" height="24" viewBox="0 0 24 24">
  <g id="Group_9074" data-name="Group 9074" transform="translate(6224 -3116)">
    <rect id="Rectangle_7636" data-name="Rectangle 7636" width="24" height="24" transform="translate(-6224 3116)" fill="none"/>
    <path id="linkedin" d="M4.963,7.252V21.344H.27V7.252H4.962Zm.3-4.351a2.251,2.251,0,0,1-.718,1.735,2.682,2.682,0,0,1-1.926.7H2.588a2.567,2.567,0,0,1-1.877-.7A2.33,2.33,0,0,1,0,2.9,2.291,2.291,0,0,1,.732,1.159,2.676,2.676,0,0,1,2.645.469a2.6,2.6,0,0,1,1.891.69A2.373,2.373,0,0,1,5.262,2.9ZM21.842,13.267v8.077H17.164V13.807a4.113,4.113,0,0,0-.576-2.339,2.024,2.024,0,0,0-1.8-.846,2.3,2.3,0,0,0-1.5.491,3.026,3.026,0,0,0-.9,1.216,3.434,3.434,0,0,0-.157,1.152v7.864H7.551q.029-5.674.029-9.2T7.565,7.934l-.014-.683H12.23V9.3H12.2a6.225,6.225,0,0,1,.583-.8,6.037,6.037,0,0,1,.8-.74,3.7,3.7,0,0,1,1.237-.619,5.6,5.6,0,0,1,1.628-.22,5.05,5.05,0,0,1,3.91,1.614,6.775,6.775,0,0,1,1.479,4.729Z" transform="translate(-6223 3117.531)" fill="#0077b7"/>
  </g>
</svg>
