<svg xmlns="http://www.w3.org/2000/svg" width="671.49" height="650.673" viewBox="0 0 671.49 650.673">
  <defs>
    <style>
      .cls-1 {
        fill: #b4aab5;
      }

      .cls-2 {
        fill: #f6f5f5;
      }

      .cls-3 {
        fill: #fbfbfb;
      }

      .cls-4 {
        fill: #eee;
      }

      .cls-18, .cls-5 {
        fill: #fff;
      }

      .cls-5 {
        stroke: #707070;
      }

      .cls-13, .cls-6 {
        fill: #4d4f5c;
      }

      .cls-6 {
        font-size: 17px;
      }

      .cls-6, .cls-7, .cls-9 {
        font-family: SourceSansPro-Regular, Source Sans Pro;
      }

      .cls-7, .cls-9 {
        fill: #979797;
      }

      .cls-7 {
        font-size: 14px;
      }

      .cls-8 {
        fill: #67016f;
      }

      .cls-9 {
        font-size: 15px;
      }

      .cls-10, .cls-20 {
        fill: none;
      }

      .cls-10 {
        stroke: #e5e5e5;
      }

      .cls-11 {
        fill: #2f2e41;
      }

      .cls-12 {
        fill: #ffb9b9;
      }

      .cls-14 {
        fill: #fb64a5;
      }

      .cls-15 {
        fill: #d25d5d;
        opacity: 0.1;
      }

      .cls-16 {
        fill: #f6f6f6;
      }

      .cls-17 {
        fill: #d1cccc;
      }

      .cls-19 {
        stroke: none;
      }
    </style>
  </defs>
  <g id="Group_3760" data-name="Group 3760" transform="translate(-200.254 -161.834)">
    <g id="OBJECTS" transform="translate(119.256 161.834)">
      <path id="Path_15267" data-name="Path 15267" class="cls-1" d="M745.693,388.511c0,6.771-108.8,12.249-243.014,12.249S259.69,395.282,259.69,388.511s108.8-12.271,242.989-12.271S745.693,381.74,745.693,388.511Z" transform="translate(-36.282 249.913)"/>
      <path id="Path_15268" data-name="Path 15268" class="cls-2" d="M151.628,625.471S1.588,606.868.049,516.638c-2.258-133.951,73.7-104.147,79.886-145.877s-60.043-99.208-54.959-230.91c3.98-103.515,104.386-186.458,213.5-110.122S383.753,66.738,447.3,62.474c44.5-3,65.438-56.4,122.564-19.541,59.451,38.355,98.776,256.764,35.161,384.225C559.723,517.9,409.6,627.58,409.6,627.58Z" transform="matrix(1, -0.017, 0.017, 1, 80.999, 11.127)"/>
      <path id="Path_15269" data-name="Path 15269" class="cls-3" d="M531.967,390.724c0,4.645-17.771,8.414-39.684,8.414S452.6,395.37,452.6,390.724s17.771-8.414,39.684-8.414S531.967,386.013,531.967,390.724Z" transform="translate(220.522 247.689)"/>
      <path id="Path_15270" data-name="Path 15270" class="cls-4" d="M566.58,388.693c0,3.769-14.331,6.793-32.036,6.793s-32.014-3.024-32.014-6.793,14.331-6.793,32.014-6.793S566.58,384.9,566.58,388.693Z" transform="translate(-333.35 243.126)"/>
    </g>
    <g id="Group_3744" data-name="Group 3744" transform="translate(89.773 -5.802)">
      <g id="Rectangle_2083" data-name="Rectangle 2083" class="cls-5" transform="translate(264 181.874)">
        <rect class="cls-19" width="456.396" height="615.856" rx="18"/>
        <rect class="cls-20" x="0.5" y="0.5" width="455.396" height="614.856" rx="17.5"/>
      </g>
      <g id="Group_3742" data-name="Group 3742" transform="translate(386.748 508.933)">
        <text id="Driven_by_Technology" data-name="Driven by Technology" class="cls-6" transform="translate(29.252 83.752)"><tspan x="0" y="0">Driven by Technology</tspan></text>
        <text id="Get_data_to_make_sound_investment_decisions" data-name="Get data to make sound investment decisions" class="cls-7" transform="translate(105.252 109.253)"><tspan x="-132.377" y="0">Get data to make sound investment decisions</tspan></text>
        <g id="driven_technology" transform="translate(84.252 14)">
          <g id="Group_3627" data-name="Group 3627" transform="translate(36.536 4.444)">
            <g id="Group_3626" data-name="Group 3626">
              <path id="Path_15349" data-name="Path 15349" class="cls-8" d="M446.8,54a2.8,2.8,0,1,0,2.8,2.8A2.8,2.8,0,0,0,446.8,54Zm0,3.95A1.152,1.152,0,1,1,447.95,56.8,1.153,1.153,0,0,1,446.8,57.95Z" transform="translate(-444 -54)"/>
            </g>
          </g>
          <g id="Group_3629" data-name="Group 3629" transform="translate(33.698 6.416)">
            <g id="Group_3628" data-name="Group 3628">
              <path id="Path_15350" data-name="Path 15350" class="cls-8" d="M410.925,78.211a.823.823,0,1,0,.241.582A.83.83,0,0,0,410.925,78.211Z" transform="translate(-409.52 -77.97)"/>
            </g>
          </g>
          <g id="Group_3631" data-name="Group 3631" transform="translate(2.466)">
            <g id="Group_3630" data-name="Group 3630">
              <path id="Exclusion_1" data-name="Exclusion 1" class="cls-8" d="M32.422,42.13a2.8,2.8,0,0,1-.817-5.472V26.991H26.662v1.315a.824.824,0,0,1-.823.823H19.42v5.065A2.8,2.8,0,1,1,15.8,36.868a2.778,2.778,0,0,1,1.973-2.673V29.129H14.321v5.762a.824.824,0,0,1-.823.823H8.067a.823.823,0,1,1,0-1.645h4.608v-4.94H11.358a.823.823,0,0,1-.822-.823V21.888H5.472A2.8,2.8,0,1,1,2.8,18.269a2.819,2.819,0,0,1,2.673,1.974h5.063V16.787H4.773a.824.824,0,0,1-.823-.823V5.47A2.8,2.8,0,1,1,7.572,2.8,2.823,2.823,0,0,1,5.6,5.473v9.668h4.94V13.824A.823.823,0,0,1,11.358,13h6.419V7.938A2.8,2.8,0,1,1,21.4,5.265,2.822,2.822,0,0,1,19.42,7.938V13H22.88V7.239a.824.824,0,0,1,.823-.823h5.431a.823.823,0,0,1,0,1.645H24.525V13h1.314a.824.824,0,0,1,.823.823v6.418h5.065a2.8,2.8,0,1,1,0,1.645H26.662v3.455h5.765a.826.826,0,0,1,.823.826V36.66a2.8,2.8,0,0,1-.828,5.47Zm0-3.947a1.151,1.151,0,1,0,1.153,1.151A1.153,1.153,0,0,0,32.422,38.182ZM18.6,35.714a1.152,1.152,0,1,0,1.155,1.154A1.154,1.154,0,0,0,18.6,35.714Zm-2.96-18.432a.824.824,0,0,0-.823.823v5.924a.824.824,0,0,0,.823.823h5.923a.824.824,0,0,0,.823-.823V18.1a.824.824,0,0,0-.823-.823ZM34.4,19.914a1.152,1.152,0,1,0,1.155,1.151A1.152,1.152,0,0,0,34.4,19.914Zm-31.6,0A1.152,1.152,0,1,0,3.95,21.065,1.154,1.154,0,0,0,2.8,19.914Zm15.8-15.8a1.152,1.152,0,1,0,1.155,1.153A1.154,1.154,0,0,0,18.6,4.111ZM4.774,1.645A1.152,1.152,0,1,0,5.925,2.8,1.152,1.152,0,0,0,4.774,1.645Zm15.964,21.56H16.461V18.928h4.277V23.2Z"/>
            </g>
          </g>
          <g id="Group_3633" data-name="Group 3633" transform="translate(0 32.092)">
            <g id="Group_3632" data-name="Group 3632">
              <path id="Path_15352" data-name="Path 15352" class="cls-8" d="M2.8,390a2.8,2.8,0,1,0,2.8,2.8A2.8,2.8,0,0,0,2.8,390Zm0,3.95A1.152,1.152,0,1,1,3.95,392.8,1.153,1.153,0,0,1,2.8,393.95Z" transform="translate(0 -390)"/>
            </g>
          </g>
          <g id="Group_3635" data-name="Group 3635" transform="translate(6.789 34.069)">
            <g id="Group_3634" data-name="Group 3634">
              <path id="Path_15353" data-name="Path 15353" class="cls-8" d="M83.9,414.271a.822.822,0,1,0,.241.582A.829.829,0,0,0,83.9,414.271Z" transform="translate(-82.5 -414.03)"/>
            </g>
          </g>
        </g>
      </g>
      <g id="Group_3740" data-name="Group 3740" transform="translate(373.313 202.863)">
        <text id="Partner_Signup" data-name="Partner Signup" class="cls-6" transform="translate(118.686 75.152)"><tspan x="-52.972" y="0">Partner Signup</tspan></text>
        <text id="for_Accredited_Investors_InstitutionalInvestors" data-name="for Accredited Investors &amp; InstitutionalInvestors" class="cls-9" transform="translate(118.687 101.652)"><tspan x="-147.923" y="0">for Accredited Investors &amp; InstitutionalInvestors</tspan></text>
        <g id="XMLID_1321_" transform="translate(96.686 12)">
          <g id="XMLID_396_" transform="translate(0 0)">
            <path id="XMLID_429_" class="cls-8" d="M45.276,69.646,44.09,67.59a.89.89,0,1,0-1.541.89l1.187,2.056a.347.347,0,0,1-.127.474L40.47,72.822A.348.348,0,0,1,40,72.695L33.682,61.759a.348.348,0,0,1,.127-.475l3.138-1.812a.348.348,0,0,1,.475.127l1.122,1.944a.89.89,0,0,0,1.541-.89L38.963,58.71a2.129,2.129,0,0,0-2.906-.779l-3.138,1.812a2.119,2.119,0,0,0-.962,1.2h-8.9a4.646,4.646,0,0,0-3.307,1.37l-.912.912a10.528,10.528,0,0,0-2.442-.288H13.638a2.121,2.121,0,0,0-.994-1.309L9.5,59.811a2.127,2.127,0,0,0-2.906.779L.286,71.525a2.127,2.127,0,0,0,.779,2.906L4.2,76.242a2.114,2.114,0,0,0,1.06.285,2.141,2.141,0,0,0,.391-.037l2.569,2.569a3.237,3.237,0,0,0-.06.619,3.2,3.2,0,0,0,3.023,3.194,3.25,3.25,0,0,0-.018.338,3.2,3.2,0,0,0,3.2,3.2l.069,0c0,.023,0,.046,0,.069a3.2,3.2,0,0,0,3.2,3.2l.069,0c0,.023,0,.046,0,.069a3.2,3.2,0,0,0,5.465,2.264l1.266-1.266a3.181,3.181,0,0,0,.781-1.28,3.2,3.2,0,0,0,4.957-1.627A3.2,3.2,0,0,0,35.058,85.8a3.2,3.2,0,0,0,3.273-5.3l-2.077-2.077,3.791-3.791a2.144,2.144,0,0,0,.254.016,2.114,2.114,0,0,0,1.06-.284L44.5,72.551a2.127,2.127,0,0,0,.779-2.905ZM9.942,79.678a1.412,1.412,0,0,1,.416-1.005l.768-.768a1.422,1.422,0,1,1,2.01,2.01l-.768.768a1.422,1.422,0,0,1-2.427-1.005Zm4.427,4.954a1.421,1.421,0,0,1-1.005-2.427L14.63,80.94a1.422,1.422,0,1,1,2.01,2.01l-1.266,1.266A1.412,1.412,0,0,1,14.369,84.632ZM17.638,87.9a1.422,1.422,0,0,1-1.005-2.427L17.9,84.209a1.422,1.422,0,1,1,2.01,2.01l-1.266,1.266A1.412,1.412,0,0,1,17.638,87.9Zm5.54,1.587-1.266,1.266a1.422,1.422,0,1,1-2.01-2.01l1.266-1.266a1.422,1.422,0,1,1,2.01,2.01Zm13.895-5.719a1.421,1.421,0,0,1-2.01,0l-8.494-8.494a.89.89,0,0,0-1.259,1.258l7.617,7.617a1.422,1.422,0,1,1-2.01,2.01l-9.153-9.153a.89.89,0,1,0-1.259,1.258l7.617,7.617a1.422,1.422,0,1,1-2.01,2.01l-1.675-1.675-.007-.006a3.191,3.191,0,0,0-2.326-.928c0-.024,0-.047,0-.071a3.2,3.2,0,0,0-3.271-3.2c0-.024,0-.047,0-.071a3.2,3.2,0,0,0-3.507-3.185,3.2,3.2,0,0,0-5.461-2.113l-.768.768,0,0L7.121,75.441l6.195-10.729H16.4a8.738,8.738,0,0,1,.9.047l-1.017,1.017A3.2,3.2,0,0,0,20.813,70.3l2.4-2.4L37.073,81.758a1.423,1.423,0,0,1,0,2.01Zm-8.55-13.077A5.05,5.05,0,0,0,30.612,66.6a.89.89,0,1,0-1.78,0,3.27,3.27,0,0,1-1.594,2.808l-3.389-3.389a.889.889,0,0,0-1.258-.009l-3.036,3.036a1.422,1.422,0,1,1-2.01-2.01l3.467-3.467a2.878,2.878,0,0,1,2.048-.848h9.121l6.273,10.865c.015.026.031.05.047.075l-3.5,3.5Z" transform="translate(0 -57.647)"/>
            <path id="XMLID_436_" class="cls-8" d="M455.2,127.194a.89.89,0,1,0-.629-.261A.9.9,0,0,0,455.2,127.194Z" transform="translate(-413.881 -119.384)"/>
          </g>
        </g>
      </g>
      <g id="Group_3743" data-name="Group 3743" transform="translate(376.031 660.109)">
        <text id="Unique_Insights" data-name="Unique Insights" class="cls-6" transform="translate(60.969 80.185)"><tspan x="0" y="0">Unique Insights</tspan></text>
        <text id="Review_and_analyze_the_stocks_before_investment" data-name="Review and analyze the stocks before investment" class="cls-9" transform="translate(115.969 106.686)"><tspan x="-152.85" y="0">Review and analyze the stocks before investment</tspan></text>
        <g id="Insights" transform="translate(95.969 13)">
          <g id="Group_3636" data-name="Group 3636" transform="translate(0 0)">
            <path id="Path_15354" data-name="Path 15354" class="cls-8" d="M24.82.005a14.6,14.6,0,0,0-7.8,2.247.771.771,0,0,0,.822,1.3,13.1,13.1,0,1,1-4.119,4.119.771.771,0,1,0-1.3-.822,14.631,14.631,0,0,0,.542,16.383l-1.318,1.318a2.316,2.316,0,0,0-2.631.451L.676,33.344a2.315,2.315,0,0,0,0,3.27l2.18,2.18a2.317,2.317,0,0,0,3.27,0l8.338-8.338a2.322,2.322,0,0,0,.452-2.632l1.318-1.318A14.643,14.643,0,1,0,24.82.005Zm-10.9,26.636-1.09-1.09,1.11-1.11a14.779,14.779,0,0,0,1.09,1.09Z" transform="translate(0 -0.005)"/>
            <path id="Path_15355" data-name="Path 15355" class="cls-8" d="M192.7,57.378a.771.771,0,0,0,1.045-.31,11.557,11.557,0,1,0-4.671,4.671.771.771,0,1,0-.735-1.355,10.015,10.015,0,1,1,4.05-4.05A.771.771,0,0,0,192.7,57.378Z" transform="translate(-158.752 -36.922)"/>
            <path id="Path_15356" data-name="Path 15356" class="cls-8" d="M185.5,54.263a.771.771,0,1,0-.518-1.341h0a.771.771,0,0,0,.519,1.341Z" transform="translate(-170.492 -48.658)"/>
            <path id="Path_15357" data-name="Path 15357" class="cls-8" d="M411.775,280.539a.771.771,0,1,0-.494-1.363h0a.771.771,0,0,0,.494,1.363Z" transform="translate(-379.324 -257.493)"/>
            <path id="Path_15358" data-name="Path 15358" class="cls-8" d="M231.723,139.211a.771.771,0,0,0,0-.891,10.417,10.417,0,0,0-16.146,0,.771.771,0,0,0,0,.891,10.417,10.417,0,0,0,16.146,0Zm-5.335-.446a2.738,2.738,0,1,1-2.738-2.738A2.741,2.741,0,0,1,226.388,138.765Zm-9.206,0a7.5,7.5,0,0,1,2.656-1.94,4.263,4.263,0,0,0,0,3.881A7.5,7.5,0,0,1,217.182,138.765Zm10.28,1.94a4.263,4.263,0,0,0,0-3.881,7.5,7.5,0,0,1,2.656,1.94A7.5,7.5,0,0,1,227.463,140.706Z" transform="translate(-198.83 -124.12)"/>
            <path id="Path_15359" data-name="Path 15359" class="cls-8" d="M312.778,181.547h0a.771.771,0,1,0-.771-.771A.771.771,0,0,0,312.778,181.547Z" transform="translate(-287.958 -166.131)"/>
          </g>
        </g>
      </g>
      <g id="Group_3741" data-name="Group 3741" transform="translate(369.596 347.844)">
        <text id="Premier_Investments" data-name="Premier Investments" class="cls-6" transform="translate(48.404 91.426)"><tspan x="0" y="0">Premier Investments</tspan></text>
        <text id="Be_the_first_to_invest_in_exclusive_PreIPOstocks" data-name="Be the first to invest in exclusive PreIPOstocks" class="cls-9" transform="translate(122.404 117.927)"><tspan x="-142.14" y="0">Be the first to invest in exclusive PreIPOstocks</tspan></text>
        <g id="investment" transform="translate(99.404 13)">
          <path id="Path_15342" data-name="Path 15342" class="cls-8" d="M189.654,159.372a.792.792,0,0,0-.285-.01,1.888,1.888,0,0,1-1.67-1.872.831.831,0,1,0-1.661,0,3.553,3.553,0,0,0,2.612,3.421v.831a.831.831,0,1,0,1.661,0v-.78a3.547,3.547,0,0,0-.727-7.018,1.886,1.886,0,1,1,1.886-1.886.83.83,0,1,0,1.661,0,3.553,3.553,0,0,0-2.82-3.472v-.756a.831.831,0,1,0-1.661,0v.807a3.546,3.546,0,0,0,.934,6.967,1.885,1.885,0,0,1,.069,3.768Zm0,0" transform="translate(-166.762 -131.739)"/>
          <path id="Path_15343" data-name="Path 15343" class="cls-8" d="M104.195,118.535a12.043,12.043,0,1,0,12.043-12.043A12.043,12.043,0,0,0,104.195,118.535Zm12.043-10.382a10.382,10.382,0,1,1-10.382,10.382A10.382,10.382,0,0,1,116.238,108.153Zm0,0" transform="translate(-93.415 -95.436)"/>
          <path id="Path_15344" data-name="Path 15344" class="cls-8" d="M39.321,329.665l-6.506,3.074a5.3,5.3,0,0,0-4.518-2.788l-6.006-.165a6.342,6.342,0,0,1-2.73-.7l-.611-.317a10.779,10.779,0,0,0-9.985.011L9,327.391a.83.83,0,0,0-.807-.853l-6.586-.181a.83.83,0,0,0-.853.807l-.4,14.452a.83.83,0,0,0,.807.853l6.586.181h.023a.83.83,0,0,0,.831-.808l.019-.691,1.711-.916a2.934,2.934,0,0,1,2.19-.24l10.217,2.868.054.013a10.933,10.933,0,0,0,2.245.232,11.081,11.081,0,0,0,4.629-1.01.778.778,0,0,0,.1-.057l14.814-9.582a.831.831,0,0,0,.272-1.106,4.2,4.2,0,0,0-5.54-1.688Zm-10.4,10.949a9.416,9.416,0,0,1-5.759.643L12.976,338.4a4.592,4.592,0,0,0-3.423.374l-.874.468.234-8.505a9.129,9.129,0,0,1,9.274-.495l.611.317a8.021,8.021,0,0,0,3.448.891l6.006.165a3.643,3.643,0,0,1,3.462,2.9l-8.946-.247a.831.831,0,0,0-.046,1.661l9.873.272h.023a.831.831,0,0,0,.83-.808,5.27,5.27,0,0,0-.08-1.077l6.673-3.153.019-.009a2.538,2.538,0,0,1,2.87.4Zm0,0" transform="translate(-0.36 -292.475)"/>
          <path id="Path_15345" data-name="Path 15345" class="cls-8" d="M213.864,8.721V.831a.831.831,0,1,0-1.661,0v7.89a.831.831,0,1,0,1.661,0Zm0,0" transform="translate(-190.21)"/>
          <path id="Path_15346" data-name="Path 15346" class="cls-8" d="M273.864,44.568V40.831a.831.831,0,0,0-1.661,0v3.737a.831.831,0,0,0,1.661,0Zm0,0" transform="translate(-243.981 -35.847)"/>
          <path id="Path_15347" data-name="Path 15347" class="cls-8" d="M153.864,44.568V40.831a.831.831,0,0,0-1.661,0v3.737a.831.831,0,1,0,1.661,0Zm0,0" transform="translate(-136.439 -35.847)"/>
        </g>
      </g>
      <line id="Line_163" data-name="Line 163" class="cls-10" x2="437" transform="translate(273.5 336.072)"/>
      <line id="Line_164" data-name="Line 164" class="cls-10" x2="437" transform="translate(273.5 495.921)"/>
      <line id="Line_165" data-name="Line 165" class="cls-10" x2="437" transform="translate(273.5 648.336)"/>
    </g>
    <g id="Group_3745" data-name="Group 3745" transform="translate(194.563 192.091)">
      <path id="Path_16031" data-name="Path 16031" class="cls-11" d="M263.546,564.506s12.8-7.313,11.884,3.656a72.278,72.278,0,0,1-5.485,21.025s11.884,31.08,0,33.822-21.025-3.656-21.025-8.227S263.546,564.506,263.546,564.506Z" transform="translate(-115.891 -169.952)"/>
      <path id="Path_16027" data-name="Path 16027" class="cls-12" d="M153.949,708.867l-2.742,26.509,15.54-1.828,1.828-21.939Z" transform="translate(-34.632 -180.852)"/>
      <path id="Path_16028" data-name="Path 16028" class="cls-13" d="M152.681,470.055s-79.528,76.786-29.252,100.553h15.54s33.822-55.761,50.277-54.847l4.571,53.019-2.742,106.952,20.111.914s11.884-53.933,10.969-84.1l21.025-111.523Z" transform="translate(-74.5 -143.146)"/>
      <path id="Path_16029" data-name="Path 16029" class="cls-13" d="M136.723,595.49l10.969,3.656s42.964-10.055,45.706-9.141l8.506-.059-.279-21.88H165.061Z" transform="translate(-83.222 -171.684)"/>
      <path id="Path_16030" data-name="Path 16030" class="cls-11" d="M241.512,782.1s-16.454-7.313-19.2,0-1.828,28.338-1.828,28.338a20.333,20.333,0,0,1,1.828,13.712c-1.828,7.313,7.313,10.969,19.2,7.313s11.884-12.8,11.884-12.8Z" transform="translate(-107.57 -233.058)"/>
      <path id="Path_16032" data-name="Path 16032" class="cls-12" d="M138.31,166.851l1.829,34.737,15.54,13.712,17.368-24.681V165.937Z" transform="translate(-30.877 -22.766)"/>
      <path id="Path_16033" data-name="Path 16033" class="cls-14" d="M209.3,255.186l-10.464-7.776-6.9,10.518-31.08,18.282,18.282,47.534.914,46.62S146.23,405.1,166.34,409.672s91.412,14.626,95.069,6.4-4.571-93.24-4.571-93.24l2.743-72.215L232.157,240.7Z" transform="translate(-89.987 -76.364)"/>
      <path id="Path_16034" data-name="Path 16034" class="cls-12" d="M150.108,342.688s-7.313,51.8,6.4,51.8a62.963,62.963,0,0,0,23.767-4.571L169.3,361.579l4.571-19.2Z" transform="translate(-86.552 -105.972)"/>
      <path id="Path_16035" data-name="Path 16035" class="cls-12" d="M176.815,392.969,186.87,394.8s29.252-18.282,31.08-19.2S188.7,359.147,188.7,359.147l-21.025,8.227Z" transform="translate(-92.234 -110.853)"/>
      <path id="Path_16036" data-name="Path 16036" class="cls-15" d="M183.017,354.266l-13.2,5.165,4.059-17.049-23.767.306s-7.313,51.8,6.4,51.8a62.964,62.964,0,0,0,23.767-4.571l-.069-.179.983.179s29.252-18.282,31.08-19.2S183.017,354.266,183.017,354.266Z" transform="translate(-86.553 -105.971)"/>
      <circle id="Ellipse_1393" data-name="Ellipse 1393" class="cls-12" cx="26.103" cy="26.103" r="26.103" transform="translate(102.478 109.212)"/>
      <path id="Path_16037" data-name="Path 16037" class="cls-11" d="M206.027,150.771l-5.1-2.042s10.664-11.74,25.5-10.719l-4.173-4.594s10.2-4.083,19.473,6.636c4.874,5.635,10.514,12.258,14.03,19.72h5.462l-2.28,5.019,7.978,5.019-8.189-.9a27.774,27.774,0,0,1-.775,13l.219,3.967s-9.492-14.686-9.492-16.728v5.1s-5.1-4.594-5.1-7.657l-2.782,3.573-1.391-5.615-17.155,5.615,2.782-4.594-10.664,1.531,4.173-5.615s-12.055,6.636-12.518,12.251-6.491,12.761-6.491,12.761l-2.782-5.1S192.582,158.428,206.027,150.771Z" transform="translate(-100.524 -44.904)"/>
      <path id="Path_16038" data-name="Path 16038" class="cls-12" d="M246.549,319.618a32.856,32.856,0,0,0-7.313,20.111L190.788,337.9s-12.8-1.828-12.8,7.313v9.141s6.4-2.742,10.055,0,42.964,26.509,62.16,17.368,23.767-44.792,23.767-44.792S256.6,312.3,246.549,319.618Z" transform="translate(-95.238 -98.747)"/>
      <path id="Path_16039" data-name="Path 16039" class="cls-14" d="M283.8,255.6l7.313-.914s14.626,1.828,12.8,30.166-2.742,30.166-2.742,30.166-19.2-17.368-32.908-9.141Z" transform="translate(-121.524 -80.437)"/>
      <path id="Path_16040" data-name="Path 16040" class="cls-14" d="M160.564,290.8h-3.656a33.864,33.864,0,0,0-7.313,21.025,101.18,101.18,0,0,1-3.2,24.224l28.795-5.028Z" transform="translate(-86.039 -90.951)"/>
    </g>
    <g id="Group_3746" data-name="Group 3746" transform="translate(831.973 561.093)">
      <rect id="Rectangle_2404" data-name="Rectangle 2404" class="cls-16" width="2.307" height="59.892" transform="translate(9.815 13.921)"/>
      <path id="Path_16041" data-name="Path 16041" class="cls-16" d="M808.458,442c2.431,6.55,6.578,14.678,10.97,19.716l-10.97-3.968-10.968,3.968C801.883,456.678,806.03,448.551,808.458,442Z" transform="translate(-797.49 -442)"/>
    </g>
    <g id="Group_3747" data-name="Group 3747" transform="translate(248.006 273.094)">
      <rect id="Rectangle_2405" data-name="Rectangle 2405" class="cls-17" width="2.307" height="59.892" transform="translate(9.815 13.921)"/>
      <path id="Path_16042" data-name="Path 16042" class="cls-17" d="M568.458,397c2.431,6.55,6.578,14.678,10.97,19.716l-10.97-3.968-10.968,3.968C561.883,411.678,566.03,403.551,568.458,397Z" transform="translate(-557.49 -397)"/>
    </g>
    <g id="Group_3748" data-name="Group 3748" transform="translate(821.004 161.834)">
      <rect id="Rectangle_2406" data-name="Rectangle 2406" class="cls-18" width="2.307" height="59.892" transform="translate(9.815 13.921)"/>
      <path id="Path_16043" data-name="Path 16043" class="cls-18" d="M900.458,357c2.431,6.55,6.578,14.678,10.97,19.716l-10.97-3.968-10.968,3.968C893.883,371.678,898.03,363.551,900.458,357Z" transform="translate(-889.49 -357)"/>
    </g>
  </g>
</svg>
