<svg xmlns="http://www.w3.org/2000/svg" width="415.796" height="350.762" viewBox="0 0 415.796 350.762">
  <g id="Group_4132" data-name="Group 4132" transform="translate(18809.793 14844.762)">
    <g id="Group_4092" data-name="Group 4092" transform="translate(-18467.988 -14533.105)">
      <rect id="Rectangle_2646" data-name="Rectangle 2646" width="2.704" height="7.855" transform="matrix(0.248, 0.969, -0.969, 0.248, 19.254, 0)" fill="#e31093"/>
      <rect id="Rectangle_2647" data-name="Rectangle 2647" width="2.704" height="7.855" transform="translate(15.372 3.787) rotate(75.627)" fill="#e31093"/>
      <rect id="Rectangle_2648" data-name="Rectangle 2648" width="2.704" height="7.855" transform="translate(11.491 7.573) rotate(75.627)" fill="#e31093"/>
      <rect id="Rectangle_2649" data-name="Rectangle 2649" width="2.704" height="7.855" transform="translate(7.609 11.359) rotate(75.624)" fill="#e31093"/>
    </g>
    <g id="Group_4120" data-name="Group 4120" transform="translate(-18779.857 -14841.712)">
      <path id="Path_16235" data-name="Path 16235" d="M442.669,137.13l-71.414,41.9c-18.106-5.556-41.175-3.839-56.4,5.093-18.521,10.866-18.4,28.275.272,38.882a56.977,56.977,0,0,0,14.049,5.51,74.941,74.941,0,0,0,11.165,1.926c14.853,1.445,30.7-1.2,42.132-7.907,13.841-8.121,17.266-19.893,10.322-29.752L402.652,187l-.279-6.256,10.37-.072-.262-5.858,10.372-.072-.262-5.86,10.372-.072-.262-5.858,10.37-.072-.261-5.86,11.072-.078,3.378-1.981,3.728-15.383ZM342.173,217.3c-4.822,2.829-12.672,2.884-17.532.123s-4.893-7.294-.071-10.122,12.672-2.884,17.532-.123S346.994,214.474,342.173,217.3Z" transform="translate(-279.247 -62.15)" fill="#fb64a5" opacity="0.19"/>
      <path id="Path_16236" data-name="Path 16236" d="M458.191,361.7l-96.314-55.377c-6.485-3.744-5.671-10.284,1.817-14.606l93.479-53.97c7.488-4.324,18.815-4.793,25.3-1.049l96.314,55.377c6.485,3.744,5.671,10.282-1.815,14.606l-93.48,53.97C476,364.978,464.675,365.447,458.191,361.7Z" transform="translate(-255.701 -21.674)" fill="#eca9de"/>
      <g id="Group_4095" data-name="Group 4095" transform="translate(75.049 112.288)">
        <g id="Group_4093" data-name="Group 4093" transform="translate(133.818)">
          <path id="Path_16237" data-name="Path 16237" d="M539.594,265.645l-16.652-9.614,61.394-35.446c2.9-1.675,2.9-4.4,0-6.072L521.617,178.3a11.635,11.635,0,0,0-10.518,0L449.7,213.748l-16.651-9.614,61.394-35.446c12.081-6.975,31.739-6.975,43.819,0L600.987,204.9c12.081,6.975,12.081,18.324,0,25.3Z" transform="translate(-433.054 -163.458)" fill="#ff2c9c"/>
        </g>
        <g id="Group_4094" data-name="Group 4094" transform="translate(0 17.656)">
          <path id="Path_16238" data-name="Path 16238" d="M604.892,264.681c0-8.9-5.412-19.243-12.089-23.1L481.569,177.361c-2.99-1.726-5.722-1.848-7.832-.669l-.006,0L340.918,253.866l128.434,96.779L600.2,274.7a6.06,6.06,0,0,0,1.156-.67h0C603.54,272.374,604.892,269.128,604.892,264.681Z" transform="translate(-337.666 -175.917)" fill="#e8cada"/>
          <path id="Path_16239" data-name="Path 16239" d="M436.516,328.305l130.846-75.944a6.06,6.06,0,0,0,1.156-.67h0c2.184-1.655,3.536-4.9,3.536-9.349a29.657,29.657,0,0,0-3.258-12.864L419.644,315.591Z" transform="translate(-304.829 -153.577)" fill="#e31093"/>
          <path id="Path_16240" data-name="Path 16240" d="M461.946,327.792,350.711,263.571c-6.676-3.855-12.088-14.2-12.088-23.1h0c0-8.9,5.412-12.993,12.088-9.139l111.235,64.221c6.676,3.854,12.088,14.2,12.088,23.1h0C474.033,327.556,468.622,331.647,461.946,327.792Z" transform="translate(-338.623 -153.407)" fill="#fb64a5"/>
        </g>
        <path id="Path_16241" data-name="Path 16241" d="M418.537,287.938l-13.373-7.715a5.77,5.77,0,0,1-2.411-4.6h0c0-1.774,1.08-2.589,2.411-1.821l13.373,7.715a5.771,5.771,0,0,1,2.409,4.6h0C420.946,287.891,419.867,288.706,418.537,287.938Z" transform="translate(-311.875 -117.556)" fill="#fff"/>
      </g>
      <g id="Group_4119" data-name="Group 4119">
        <g id="Group_4118" data-name="Group 4118">
          <path id="Path_16242" data-name="Path 16242" d="M343.029,140.02,365.882,153,389.2,139.32l-.062-5.952-.2.117-.019-.42,10.371-.072-.061-5.86,10.17-.071-.061-5.86,10.17-.071-.061-5.86,10.17-.071-.061-5.86,10.872-.076,3.378-1.982L447.538,91.9l-.062-5.952-1.8,5.7-16.458-2.2Z" transform="translate(-261.736 -83.499)" fill="#e31093"/>
          <g id="Group_4117" data-name="Group 4117">
            <g id="Group_4116" data-name="Group 4116">
              <g id="Group_4111" data-name="Group 4111" transform="translate(25.797)">
                <g id="Group_4097" data-name="Group 4097" transform="translate(55.433)">
                  <g id="Group_4096" data-name="Group 4096">
                    <path id="Path_16243" data-name="Path 16243" d="M365.839,147.77l23.319-13.682-.279-6.255,10.371-.073-.262-5.858,10.371-.073-.262-5.859,10.371-.073-.262-5.859,10.371-.073-.262-5.859,11.073-.078,3.378-1.982,3.728-15.383-18.319-2.447-86.19,50.57Z" transform="translate(-342.985 -84.219)" fill="#ffeff8"/>
                  </g>
                </g>
                <g id="Group_4099" data-name="Group 4099" transform="translate(55.433 40.688)">
                  <g id="Group_4098" data-name="Group 4098">
                    <path id="Path_16244" data-name="Path 16244" d="M381.368,126.684a32.132,32.132,0,0,0-10.593-9.132,54.671,54.671,0,0,0-10.947-4.621l-16.844,9.881,22.854,12.982Z" transform="translate(-342.985 -112.931)" fill="#e31093"/>
                  </g>
                </g>
                <g id="Group_4101" data-name="Group 4101" transform="translate(84.045 2.036)">
                  <g id="Group_4100" data-name="Group 4100">
                    <path id="Path_16245" data-name="Path 16245" d="M438.448,88.648l.626-2.582L436,85.656l-72.824,42.727,3.835,2.178Z" transform="translate(-363.176 -85.656)" fill="#e31093"/>
                  </g>
                </g>
                <g id="Group_4103" data-name="Group 4103" transform="translate(0.006 66.836)">
                  <g id="Group_4102" data-name="Group 4102">
                    <path id="Path_16246" data-name="Path 16246" d="M304.123,139.843l-.252-8.46,2.708,5.714Z" transform="translate(-303.872 -131.383)" fill="#d3d0cf"/>
                  </g>
                </g>
                <path id="Path_16247" data-name="Path 16247" d="M318.131,164.669c18.672,10.607,48.823,10.4,67.345-.47,9.286-5.449,13.883-12.541,13.808-19.6v0l-.259-8.965-1.522,1.7c-2.148-4.419-6.242-8.579-12.3-12.021-18.673-10.607-48.823-10.4-67.345.47S299.458,154.063,318.131,164.669ZM345.1,148.844c4.861,2.762,4.893,7.294.071,10.122s-12.672,2.884-17.532.123-4.893-7.294-.071-10.122S340.242,146.082,345.1,148.844Z" transform="translate(-303.793 -70.338)" fill="#e31093"/>
                <g id="Group_4105" data-name="Group 4105" transform="translate(0 38.703)">
                  <g id="Group_4104" data-name="Group 4104">
                    <path id="Path_16248" data-name="Path 16248" d="M317.951,158.7c18.673,10.607,48.825,10.4,67.346-.47s18.4-28.275-.273-38.882-48.823-10.4-67.345.472S299.28,148.095,317.951,158.7Zm26.973-15.825c4.861,2.76,4.893,7.292.071,10.122s-12.672,2.884-17.532.122-4.893-7.292-.071-10.122S340.064,140.115,344.924,142.877Z" transform="translate(-303.867 -111.531)" fill="#f2f2f2"/>
                  </g>
                </g>
                <path id="Path_16249" data-name="Path 16249" d="M339.526,155.677a19.122,19.122,0,0,1-11.887-1.756c-3.486-1.981-4.474-4.869-2.984-7.39l-8.459-6.707s-4.421-4.988-8.8-9.934c-6.811,9.955-3.225,21.682,10.732,29.61,6.157,3.5,13.056,5.484,20.881,6.636Z" transform="translate(-303.791 -65.17)" fill="#e31093"/>
                <g id="Group_4107" data-name="Group 4107" transform="translate(0 38.703)">
                  <g id="Group_4106" data-name="Group 4106">
                    <path id="Path_16250" data-name="Path 16250" d="M317.951,158.7A56.866,56.866,0,0,0,332,164.212a74.759,74.759,0,0,0,11.165,1.927c14.853,1.445,30.7-1.2,42.132-7.907,18.521-10.868,18.4-28.275-.273-38.882s-48.823-10.4-67.345.472S299.28,148.095,317.951,158.7Zm26.973-15.825c4.861,2.76,4.893,7.292.071,10.122s-12.672,2.884-17.532.122-4.893-7.292-.071-10.122S340.064,140.115,344.924,142.877Z" transform="translate(-303.867 -111.531)" fill="#fb64a5"/>
                  </g>
                </g>
                <g id="Group_4110" data-name="Group 4110" transform="translate(5.261 41.736)">
                  <g id="Group_4109" data-name="Group 4109">
                    <g id="Group_4108" data-name="Group 4108">
                      <path id="Path_16251" data-name="Path 16251" d="M307.581,138.544c.908-5.419,4.926-10.713,12.079-14.911,16.479-9.669,43.3-9.856,59.918-.419,8.256,4.691,12.427,10.875,12.521,17.1,1.183-7.064-2.922-14.342-12.323-19.682-16.613-9.438-43.44-9.249-59.918.418C311.569,125.909,307.487,132.247,307.581,138.544Z" transform="translate(-307.58 -113.67)" fill="#e31093"/>
                    </g>
                  </g>
                </g>
              </g>
              <g id="Group_4115" data-name="Group 4115" transform="translate(0 65.142)">
                <g id="Group_4114" data-name="Group 4114">
                  <g id="Group_4113" data-name="Group 4113">
                    <g id="Group_4112" data-name="Group 4112">
                      <path id="Path_16252" data-name="Path 16252" d="M305.489,208.613a18.682,18.682,0,0,1-9.343-2.41c-6.692-3.8-10.416-11.427-10.482-21.487-.132-18.347,12.639-40.829,28.467-50.117,8.671-5.089,17.131-5.8,23.823-2a18.711,18.711,0,0,1,6.927,6.927,28.841,28.841,0,0,1,3.556,14.562c.13,18.347-12.642,40.831-28.469,50.117A28.937,28.937,0,0,1,305.489,208.613ZM328.6,136.932a22.3,22.3,0,0,0-11.058,3.473c-13.978,8.2-25.258,28.057-25.142,44.264.051,7.552,2.564,13.119,7.074,15.679s10.577,1.871,17.09-1.95c13.98-8.2,25.258-28.057,25.145-44.264a22.584,22.584,0,0,0-2.63-11.2h0a11.7,11.7,0,0,0-10.479-6Z" transform="translate(-285.663 -130.188)" fill="#e31093"/>
                    </g>
                  </g>
                </g>
              </g>
            </g>
          </g>
        </g>
        <path id="Path_16253" data-name="Path 16253" d="M322.848,147.4l13.294,3.258,1.909-9.864c-4.821,2.828-12.672,2.884-17.532.122Z" transform="translate(-271.126 -60.622)" fill="#d4ecff"/>
        <path id="Path_16254" data-name="Path 16254" d="M313.806,145.314a56.866,56.866,0,0,0,14.049,5.51,74.759,74.759,0,0,0,11.165,1.927c14.853,1.445,30.7-1.2,42.132-7.907l-54.137-1.216Z" transform="translate(-273.925 -59.44)" fill="#fb64a5"/>
        <path id="Path_16255" data-name="Path 16255" d="M331.383,150.533a78.607,78.607,0,0,1-11.758-3.03v8.307a64.487,64.487,0,0,0,11.615,2.977C343.635,160.424,331.383,150.533,331.383,150.533Z" transform="translate(-271.498 -57.824)" fill="#e31093"/>
      </g>
      <path id="Path_16256" data-name="Path 16256" d="M324.9,149.213a55.147,55.147,0,0,1-7.658-2.826c-7.241-3.39,1.919,9.169,1.919,9.169s2.467.983,5.739,1.987Z" transform="translate(-273.652 -58.531)" fill="#e31093"/>
    </g>
    <path id="Path_16257" data-name="Path 16257" d="M428.036,251.252l-23.687,15.276-11.53-1.872,28.164-13.615Z" transform="translate(-19020.828 -14856.35)" fill="#fb64a5" opacity="0.35"/>
    <g id="Group_4125" data-name="Group 4125" transform="translate(-18673.727 -14811.835)">
      <g id="Group_4122" data-name="Group 4122" transform="translate(5.138)">
        <path id="Path_16258" data-name="Path 16258" d="M403.754,305.951s-6.822-3.441-11.012,1.682-10.18,17.219-10.366,25.392,6.468,7.62,10.423,5.685,15.507-18.691,16.207-21.975-.825-7.725-1.937-8.593S403.754,305.951,403.754,305.951Z" transform="translate(-356.596 -22.083)" fill="#2f2e41"/>
        <path id="Path_16259" data-name="Path 16259" d="M402.314,304.938l.316,7.068a4.009,4.009,0,0,1-2,3.677,7.861,7.861,0,0,1-5.263.818c-5.14-.826-5.6-2.294-5.966-9.361S402.314,304.938,402.314,304.938Z" transform="translate(-353.666 -22.715)" fill="#ffb9b9"/>
        <g id="Group_4121" data-name="Group 4121" transform="translate(0 125.409)">
          <path id="Path_16260" data-name="Path 16260" d="M386.13,296.36s-6.822-3.441-11.012,1.682-10.18,17.218-10.366,25.39,6.468,7.621,10.423,5.687,15.507-18.691,16.207-21.976-.825-7.723-1.937-8.592S386.13,296.36,386.13,296.36Z" transform="translate(-363.947 -151.493)" fill="#2f2e41"/>
          <path id="Path_16261" data-name="Path 16261" d="M384.69,295.347l.316,7.068a4.01,4.01,0,0,1-2,3.677,7.87,7.87,0,0,1-5.263.818c-5.14-.826-5.6-2.294-5.966-9.361S384.69,295.347,384.69,295.347Z" transform="translate(-361.017 -152.124)" fill="#ffb9b9"/>
          <path id="Path_16262" data-name="Path 16262" d="M448.736,207.246c-2.019-32.857-35.583,4.834-35.583,4.834L390.181,234.6,369.494,257.32a20.389,20.389,0,0,0-5.138,16.38l8.368,63.718A6.262,6.262,0,0,0,379,342.86a21.138,21.138,0,0,0,3.1-.271c7.465-1.163,6.914-8.26,6.914-8.26l-1.529-59.6,43.442-26.188S450.755,240.1,448.736,207.246Z" transform="translate(-364.183 -193.799)" fill="#4d4f5c"/>
        </g>
        <path id="Path_16263" data-name="Path 16263" d="M397.229,243.632l-6.181-2.27c-.145,0-10.509,10.025-10.418,13.533l4.651,1.492,11.677-11.335Z" transform="translate(-357.323 -48.552)" fill="#eea8c8"/>
        <path id="Path_16264" data-name="Path 16264" d="M420.6,259.881S446.42,245.14,449.51,238.96c1.21-2.42,3.091-4.95-4.443-8.607L410.638,254.9l1.492,8.45Z" transform="translate(-344.806 -53.143)" fill="#efa7c8"/>
        <path id="Path_16265" data-name="Path 16265" d="M466.36,216.192c-2.153-32.848-35.583,4.835-35.583,4.835l-22.971,22.516-20.687,22.723a20.392,20.392,0,0,0-5.138,16.38l8.369,63.72a6.261,6.261,0,0,0,6.279,5.442,21.34,21.34,0,0,0,3.1-.271c7.465-1.163,6.914-8.262,6.914-8.262l-1.529-59.595,43.443-26.188S468.328,246.224,466.36,216.192Z" transform="translate(-356.832 -64.657)" fill="#4d4f5c"/>
        <path id="Path_16266" data-name="Path 16266" d="M441.91,138.77c25.447,10.549,24.937,25.591,24.937,25.591s-4.985,55.145-3.283,91.972c.711,15.4-81.8,16.572-69.493-24.5,14.508-48.429,9.069-87.636,15.862-93.548S435.328,136.041,441.91,138.77Z" transform="translate(-352.238 -92.867)" fill="#fb64a5"/>
        <path id="Path_16267" data-name="Path 16267" d="M440.787,150.986c-1.331,5.167-8.1,7.89-15.119,6.082s-11.63-7.462-10.3-12.629,8.1-7.889,15.119-6.081S442.117,145.821,440.787,150.986Z" transform="translate(-342.929 -91.747)" fill="#ffc2b0"/>
        <path id="Path_16268" data-name="Path 16268" d="M430.323,159.194a18.464,18.464,0,0,1-4.6-.591,16.937,16.937,0,0,1-8.922-5.464,9.719,9.719,0,0,1-2.253-8.646c1.494-5.809,8.943-8.932,16.6-6.957A16.94,16.94,0,0,1,440.07,143a9.718,9.718,0,0,1,2.253,8.644C441.133,156.273,436.165,159.194,430.323,159.194Zm-3.83-19.825c-4.726,0-8.678,2.2-9.588,5.731a7.364,7.364,0,0,0,1.784,6.5,14.491,14.491,0,0,0,7.641,4.645c6.359,1.632,12.476-.7,13.638-5.205a7.364,7.364,0,0,0-1.784-6.5,14.479,14.479,0,0,0-7.641-4.647A16.317,16.317,0,0,0,426.493,139.369Z" transform="translate(-343.288 -92.104)" fill="#fff"/>
        <path id="Path_16269" data-name="Path 16269" d="M420.326,138.377s.221,1.02-.22,9.084c-.139,2.535,8.738,4.9,11.032,2.609s1.376-4.681,1.927-13.308S420.326,138.377,420.326,138.377Z" transform="translate(-340.858 -93.621)" fill="#ffc2b0"/>
        <path id="Path_16270" data-name="Path 16270" d="M433.066,135.744s-2.187,8-12.961,11.068l.163-7.271Z" transform="translate(-340.858 -92.604)" fill="#ea9c92"/>
        <path id="Path_16271" data-name="Path 16271" d="M445.416,125.725a19.587,19.587,0,1,1-23.867-14.06A19.588,19.588,0,0,1,445.416,125.725Z" transform="translate(-346.382 -102.91)" fill="#ffc2b0"/>
        <path id="Path_16272" data-name="Path 16272" d="M430.991,126.762s-10.784,4.62-18.251,4.672-5.821-6.2-5.821-6.2l22.166-3.2Z" transform="translate(-346.422 -98.324)" fill="#ea9c92"/>
        <path id="Path_16273" data-name="Path 16273" d="M413.02,134.956s9.394-3.988,17.636-2.325a8.633,8.633,0,0,1,4.98,2.96,2.941,2.941,0,0,0,1.508,1.09c1.461.332,3.853-5.732,6.694-5.87s4.736,1.872,2.406,5.6-1.542,7.9-.469,8.5,12.438-8.107,2.412-27.969-35.5-9.164-39.458-5.138c0,0-4.173,3.635-7.566.4C401.163,112.2,397.358,140.7,413.02,134.956Z" transform="translate(-348.928 -105.302)" fill="#2f2e41"/>
        <path id="Path_16274" data-name="Path 16274" d="M444.578,186.68v14.9a6.074,6.074,0,0,1-1.981,4.487l-30.611,27.907,3.478,5.32,40.424-29.318a8.215,8.215,0,0,0,3.349-5.792l2.732-25.987Z" transform="translate(-344.244 -74.897)" fill="#ffc2b0"/>
        <path id="Path_16275" data-name="Path 16275" d="M447.763,150.495s9.286,13.965,12.745,50.728c0,0-15.863,5.13-24.866,2.218S447.763,150.495,447.763,150.495Z" transform="translate(-335.309 -86.452)" fill="#fb64a5"/>
        <path id="Path_16276" data-name="Path 16276" d="M434.919,162.956s-3.636,19.457-3.842,28.6a5.836,5.836,0,0,0,3.842,5.637h0Z" transform="translate(-336.282 -81.254)" fill="#e31093"/>
      </g>
      <g id="Group_4123" data-name="Group 4123" transform="translate(4.893 147.951)">
        <path id="Path_16277" data-name="Path 16277" d="M454.95,239.075l-6.765-.893-43.673-25.214a6.073,6.073,0,0,0-5.463.225L368.1,231.054l-4.09-.54v4.073h0a1.6,1.6,0,0,0,.94,1.434L414.449,264.6a6.07,6.07,0,0,0,5.462-.227l33.7-19.451a2.205,2.205,0,0,0,1.336-1.838h0Z" transform="translate(-364.009 -208.573)" fill="#e31093"/>
        <path id="Path_16278" data-name="Path 16278" d="M422.136,220.514l-3.1-1.791H384.92l-16.818,9.7-4.09-.54v4.073h0a1.6,1.6,0,0,0,.94,1.434l49.495,28.576a5.112,5.112,0,0,0,2.819.527Z" transform="translate(-364.009 -205.945)" fill="#e31093"/>
        <path id="Path_16279" data-name="Path 16279" d="M365.827,225.428l-1.815-.24v4.073h0a1.6,1.6,0,0,0,.94,1.434l.873.5Z" transform="translate(-364.009 -203.248)" fill="#5793ce"/>
        <path id="Path_16280" data-name="Path 16280" d="M399.955,251.527a6.344,6.344,0,0,0,4.642-.288v-6.93h-4.642Z" transform="translate(-349.018 -195.273)" fill="#e31093"/>
        <path id="Path_16281" data-name="Path 16281" d="M414.45,261.66l-49.495-28.576c-1.4-.809-1.224-2.221.393-3.154l33.7-19.451a6.073,6.073,0,0,1,5.463-.227l49.495,28.576c1.4.809,1.224,2.221-.393,3.154l-33.7,19.451A6.07,6.07,0,0,1,414.45,261.66Z" transform="translate(-364.01 -209.706)" fill="#fff"/>
        <path id="Path_16282" data-name="Path 16282" d="M411.357,254.254,370.2,230.494c-1.165-.672-1.019-1.845.326-2.622l18.059-10.156a5.048,5.048,0,0,1,4.542-.187l41.155,23.759c1.163.673,1.018,1.846-.327,2.623L415.9,254.066A5.044,5.044,0,0,1,411.357,254.254Z" transform="translate(-361.755 -206.633)" fill="#e8cada"/>
      </g>
      <path id="Path_16283" data-name="Path 16283" d="M390.32,210.094l-.513,3.415a25.249,25.249,0,0,0,.224,8.756l.609,3.01a4.231,4.231,0,0,0,3.391,3.324h0a2.335,2.335,0,0,0,2.738-2.038l.816-7.3s1.868,2.449,2.77,2.449-1.009-7.312-3.05-11.45S390.32,210.094,390.32,210.094Z" transform="translate(-348.473 -62.309)" fill="#ffc2b0"/>
      <path id="Path_16284" data-name="Path 16284" d="M407.811,174.321,402.5,184.833a20.6,20.6,0,0,0-2.172,7.978l-2.307,35.952-6.986-.166-3.171-40.374a14.841,14.841,0,0,1,.18-3.733l3.623-20.474Z" transform="translate(-349.187 -80.812)" fill="#ffc2b0"/>
      <g id="Group_4124" data-name="Group 4124" transform="translate(0 126.543)">
        <path id="Path_16285" data-name="Path 16285" d="M413.959,270.7l-4.151-5.418L366.167,240.02a6.071,6.071,0,0,1-2.528-4.848l.037-35.729-2.508-3.276,2.357-1.366,0,0a1.591,1.591,0,0,1,1.712.1L414.7,223.539a6.069,6.069,0,0,1,2.528,4.846l-.041,38.912a2.2,2.2,0,0,1-.925,2.075h0Z" transform="translate(-360.303 -194.599)" fill="#e31093"/>
        <path id="Path_16286" data-name="Path 16286" d="M383.778,250.216l-3.1-1.8-17.019-29.562.017-19.416-2.508-3.276,2.357-1.366,0,0a1.591,1.591,0,0,1,1.712.1L414.7,223.539a5.123,5.123,0,0,1,1.863,2.179Z" transform="translate(-360.303 -194.599)" fill="#e31093"/>
        <path id="Path_16287" data-name="Path 16287" d="M362.279,197.62l-1.112-1.454,2.357-1.366,0,0a1.591,1.591,0,0,1,1.712.1l.872.5Z" transform="translate(-360.303 -194.599)" fill="#e31093"/>
        <path id="Path_16288" data-name="Path 16288" d="M400.755,215.244a6.339,6.339,0,0,1,2.066,4.166l-4.834,2.79-2.316-4.022Z" transform="translate(-345.911 -185.988)" fill="#e31093"/>
        <path id="Path_16289" data-name="Path 16289" d="M412.6,224.5l-49.458-28.635c-1.4-.811-2.537.047-2.538,1.913l-.043,38.912a6.076,6.076,0,0,0,2.53,4.848l49.459,28.635c1.4.811,2.535-.047,2.538-1.913l.041-38.912A6.069,6.069,0,0,0,412.6,224.5Z" transform="translate(-360.557 -194.198)" fill="#ffeff8"/>
      </g>
      <path id="Path_16290" data-name="Path 16290" d="M419.24,222.877l-.792,1.641a10.992,10.992,0,0,1-4.134,4.583l-4.913,3.028a4.892,4.892,0,0,1-5.015.116l-.167-.1a2.957,2.957,0,0,1-.418-4.542l5.134-5.277s-2.884,2.209-3.693,1.319c-.592-.652,2.8-3.835,5.4-3.938a10.274,10.274,0,0,0,5.12-2.15Z" transform="translate(-342.883 -58.48)" fill="#ffc2b0"/>
      <path id="Path_16291" data-name="Path 16291" d="M413.028,137.295s-18.82,20.478-26.412,39.265c0,0,6.435,11.595,22.189,16.144S413.028,137.295,413.028,137.295Z" transform="translate(-349.688 -91.957)" fill="#fb64a5"/>
      <path id="Path_16292" data-name="Path 16292" d="M400.991,184.211l3.051-29.467-7.187,27.608A40.876,40.876,0,0,0,400.991,184.211Z" transform="translate(-345.418 -84.679)" fill="#e31093"/>
      <path id="Path_16293" data-name="Path 16293" d="M416.691,134.788l-5.058-1.389s2.415,3.8,5.939,4.766,4.073-2.015,4.073-2.015Z" transform="translate(-339.253 -93.582)" fill="#fff"/>
    </g>
    <path id="Path_16294" data-name="Path 16294" d="M351.637,110.773A14.166,14.166,0,1,1,365.8,96.608,14.182,14.182,0,0,1,351.637,110.773Zm0-25.24A11.074,11.074,0,1,0,362.71,96.608,11.086,11.086,0,0,0,351.637,85.533Z" transform="translate(-19043.912 -14926.672)" fill="#fb64a5"/>
    <path id="Path_16295" data-name="Path 16295" d="M552.511,180.379a10.045,10.045,0,1,1,10.044-10.044A10.058,10.058,0,0,1,552.511,180.379Zm0-17a6.953,6.953,0,1,0,6.952,6.954A6.961,6.961,0,0,0,552.511,163.381Z" transform="translate(-18958.41 -14894.202)" fill="#e31093"/>
    <path id="Path_16296" data-name="Path 16296" d="M319.146,308.615l-6.819-13.866,13.866-6.818,6.819,13.866Zm-2.681-12.458,4.09,8.321,8.32-4.09-4.09-8.32Z" transform="translate(-19054.4 -14840.963)" fill="#e31093"/>
    <path id="Path_16297" data-name="Path 16297" d="M461.172,156.942l-6.818-13.869,13.866-6.818,6.818,13.868Zm-2.681-12.459,4.09,8.321,8.32-4.09-4.088-8.321Z" transform="translate(-18995.162 -14904.227)" fill="#e31093"/>
    <rect id="Rectangle_2650" data-name="Rectangle 2650" width="7.104" height="7.104" transform="translate(-18760.252 -14613.779) rotate(-26.18)" fill="#e31093"/>
    <g id="Group_4128" data-name="Group 4128" transform="translate(-18548.705 -14844.762)">
      <g id="Group_4126" data-name="Group 4126">
        <path id="Path_16298" data-name="Path 16298" d="M493.122,104.3l-37.89-21.876a1.938,1.938,0,0,0-1.958-.157l0-.024L449.6,84.363l2.583.944V112.9a7.3,7.3,0,0,0,3.048,5.826l36.217,20.909v3.238l3.713-2.138-.02-.007a2.7,2.7,0,0,0,1.03-2.43V110.123A7.3,7.3,0,0,0,493.122,104.3Z" transform="translate(-448.439 -82.067)" fill="#d3008d"/>
        <path id="Path_16299" data-name="Path 16299" d="M489.721,142.128l-37.89-21.877a7.3,7.3,0,0,1-3.05-5.824V86.252c0-2.245,1.366-3.278,3.05-2.306l37.89,21.877a7.3,7.3,0,0,1,3.05,5.824v28.175C492.77,142.069,491.4,143.1,489.721,142.128Z" transform="translate(-448.781 -81.435)" fill="#ffeff8"/>
      </g>
      <g id="Group_4127" data-name="Group 4127" transform="translate(10.678 24.33)">
        <path id="Path_16300" data-name="Path 16300" d="M461.43,104.013c0,1.63-1.145,2.291-2.558,1.475a5.651,5.651,0,0,1-2.556-4.427c0-1.631,1.145-2.291,2.556-1.477A5.649,5.649,0,0,1,461.43,104.013Z" transform="translate(-456.316 -99.236)" fill="#4d4f5c"/>
        <path id="Path_16301" data-name="Path 16301" d="M466.895,107.168c0,1.631-1.145,2.291-2.556,1.477a5.65,5.65,0,0,1-2.556-4.428c0-1.63,1.144-2.291,2.556-1.477A5.655,5.655,0,0,1,466.895,107.168Z" transform="translate(-454.036 -97.92)" fill="#4d4f5c"/>
        <path id="Path_16302" data-name="Path 16302" d="M472.36,110.324c0,1.63-1.144,2.29-2.556,1.475a5.651,5.651,0,0,1-2.556-4.428c0-1.63,1.145-2.29,2.556-1.475A5.647,5.647,0,0,1,472.36,110.324Z" transform="translate(-451.757 -96.603)" fill="#4d4f5c"/>
      </g>
    </g>
    <g id="Group_4131" data-name="Group 4131" transform="translate(-18809.793 -14604.633)">
      <g id="Group_4129" data-name="Group 4129">
        <path id="Path_16303" data-name="Path 16303" d="M308.04,273.327l-37.172-21.46a1.9,1.9,0,0,0-1.922-.154l0-.024-3.607,2.083,2.534.925v27.071a7.16,7.16,0,0,0,2.991,5.714L306.4,307.995v3.176l3.643-2.1-.02-.007a2.651,2.651,0,0,0,1.01-2.384v-27.64A7.163,7.163,0,0,0,308.04,273.327Z" transform="translate(-264.205 -251.518)" fill="#e31093"/>
        <path id="Path_16304" data-name="Path 16304" d="M304.7,310.44l-37.172-21.462a7.161,7.161,0,0,1-2.991-5.715V255.624c0-2.2,1.339-3.215,2.991-2.262L304.7,274.825a7.161,7.161,0,0,1,2.992,5.714v27.64C307.695,310.381,306.356,311.394,304.7,310.44Z" transform="translate(-264.54 -250.898)" fill="#ffeff8"/>
      </g>
      <g id="Group_4130" data-name="Group 4130" transform="translate(10.475 23.869)">
        <path id="Path_16305" data-name="Path 16305" d="M276.948,273.049c0,1.6-1.122,2.247-2.508,1.447a5.545,5.545,0,0,1-2.508-4.343c0-1.6,1.124-2.248,2.508-1.448A5.542,5.542,0,0,1,276.948,273.049Z" transform="translate(-271.932 -268.361)" fill="#4d4f5c"/>
        <path id="Path_16306" data-name="Path 16306" d="M282.311,276.143c0,1.6-1.124,2.247-2.508,1.448a5.542,5.542,0,0,1-2.508-4.345c0-1.6,1.122-2.247,2.508-1.447A5.545,5.545,0,0,1,282.311,276.143Z" transform="translate(-269.696 -267.07)" fill="#4d4f5c"/>
        <path id="Path_16307" data-name="Path 16307" d="M287.673,279.24c0,1.6-1.124,2.247-2.508,1.447a5.539,5.539,0,0,1-2.508-4.343c0-1.6,1.122-2.248,2.508-1.448A5.548,5.548,0,0,1,287.673,279.24Z" transform="translate(-267.459 -265.779)" fill="#4d4f5c"/>
      </g>
    </g>
  </g>
</svg>
