<svg xmlns="http://www.w3.org/2000/svg" width="81.174" height="68.537" viewBox="0 0 81.174 68.537">
  <g id="Group_4086" data-name="Group 4086" transform="translate(-241.208 -6128)">
    <path id="Path_955" data-name="Path 955" d="M4.284,55.686q0,4.284,3.748,8.567t11.244,4.284a15.386,15.386,0,0,0,13.386-6.961,25.058,25.058,0,0,0,4.819-14.457,49.218,49.218,0,0,0-8.567-27.843Q20.347,6.425,4.284,0L0,5.354Q10.709,11.78,16.063,18.74T21.418,33.2q0,5.354-8.567,9.638T4.284,55.686Z" transform="translate(322.381 6196.536) rotate(180)" fill="#e90075"/>
    <path id="Path_956" data-name="Path 956" d="M4.284,55.686q0,4.284,3.748,8.567t11.244,4.284a15.386,15.386,0,0,0,13.386-6.961,25.058,25.058,0,0,0,4.819-14.457,49.218,49.218,0,0,0-8.567-27.843Q20.347,6.425,4.284,0L0,5.354Q10.709,11.78,16.063,18.74T21.418,33.2q0,5.354-8.567,9.638T4.284,55.686Z" transform="translate(278.688 6196.536) rotate(180)" fill="#e90075"/>
  </g>
</svg>
