<svg xmlns="http://www.w3.org/2000/svg" width="103.519" height="153.362" viewBox="0 0 103.519 153.362">
  <defs>
    <style>
      .cls-1 {
        fill: #ffdfba;
      }

      .cls-2 {
        fill: #42434d;
      }

      .cls-3 {
        fill: #ac6ab1;
      }

      .cls-4 {
        fill: #e8f8fc;
      }

      .cls-5 {
        fill: #ffebd2;
      }

      .cls-6 {
        fill: #4d4e59;
      }

      .cls-7 {
        fill: #ffd6a6;
      }

      .cls-8 {
        fill: #67016f;
      }

      .cls-9 {
        fill: #f1fafc;
      }

      .cls-10 {
        fill: #fff3e4;
      }

      .cls-11 {
        fill: #616161;
      }

      .cls-12 {
        fill: #303030;
        stroke: #303030;
      }
    </style>
  </defs>
  <g id="man" transform="translate(-78 0)">
    <path id="Path_13577" data-name="Path 13577" class="cls-1" d="M184.407,141.048v12.614a2.555,2.555,0,0,1-2.556,2.556H88.556A2.555,2.555,0,0,1,86,153.662V141.048a23.937,23.937,0,0,1,23.956-23.755,13.233,13.233,0,0,0,10.726-5.646c2.646-3.78,2.38-7.185,2.38-9.745l.048-.118A31.634,31.634,0,0,1,103.573,72.55v-1a7.938,7.938,0,0,1-6.46-3.214s0,0,0-.006a7.754,7.754,0,0,1-1.524-4.62V32.571a8.627,8.627,0,0,1,8.627-8.627,25.411,25.411,0,0,1,23.6-15.975c15.2,0,24.975-.114,25.79.294.192.029,1.954.343,2.093.412a25.41,25.41,0,0,1,19.451,24.707V63.243a8.307,8.307,0,0,1-8.307,8.307v1A31.634,31.634,0,0,1,147.3,101.785l.048.118c0,2.486-.287,5.934,2.38,9.745a13.231,13.231,0,0,0,10.726,5.646A23.937,23.937,0,0,1,184.407,141.048Z" transform="translate(-5.444 -5.413)"/>
    <path id="Path_13578" data-name="Path 13578" class="cls-2" d="M195.538,33.382V63.243a8.307,8.307,0,0,1-8.307,8.307V53.859a2.552,2.552,0,0,0-2.4-2.55,91.465,91.465,0,0,1-43.491-13.988,2.562,2.562,0,0,0-3.85,1.518,12.6,12.6,0,0,1-5.534,7.789c-3.094,1.863-5.49,1.495-6.39,1.866a2.544,2.544,0,0,0-1.6,2.364V71.55a7.938,7.938,0,0,1-6.46-3.214s0,0,0-.006a7.747,7.747,0,0,1-1.38-3.131c-.205-1.045-.144,1.313-.144-32.628a8.627,8.627,0,0,1,8.627-8.627A25.416,25.416,0,0,1,148.2,7.969c15.2,0,24.975-.114,25.79.294a25.352,25.352,0,0,1,6.873,2.083c.038.019.646.3.671.326a25.409,25.409,0,0,1,14,22.71Z" transform="translate(-25.841 -5.413)"/>
    <path id="Path_13579" data-name="Path 13579" class="cls-3" d="M184.407,361.9v12.614a2.555,2.555,0,0,1-2.556,2.556H88.556A2.555,2.555,0,0,1,86,374.515V361.9a23.937,23.937,0,0,1,23.956-23.755,13.233,13.233,0,0,0,10.726-5.646c11.107,12.342,8.552,9.5,12.62,14.026a2.559,2.559,0,0,0,3.8,0c3.648-4.056.67-.746,12.62-14.026a13.231,13.231,0,0,0,10.726,5.646A23.937,23.937,0,0,1,184.407,361.9Z" transform="translate(-5.444 -226.265)"/>
    <path id="Path_13580" data-name="Path 13580" class="cls-4" d="M270.409,337.078c-.04.084-3.193,14.43-3.173,14.339a2.352,2.352,0,0,1-4.072,1.036c-8.389-9.66-7.245-8.4-8.094-9.167l9.707-10.786A13.276,13.276,0,0,0,270.409,337.078Z" transform="translate(-120.496 -226.264)"/>
    <path id="Path_13581" data-name="Path 13581" class="cls-4" d="M182.553,332.5l9.476,10.531-7.861,9.315a2.351,2.351,0,0,1-4.093-1.011c-.02-.091-3.115-14.173-3.155-14.257A13.274,13.274,0,0,0,182.553,332.5Z" transform="translate(-67.315 -226.265)"/>
    <path id="Path_13582" data-name="Path 13582" class="cls-5" d="M204.262,134.246a31.631,31.631,0,1,1-63.262,0v-21.69A2.558,2.558,0,0,1,143.419,110c5.176-.295,9.534-3.538,11.1-9.47a2.561,2.561,0,0,1,3.849-1.518A91.453,91.453,0,0,0,201.862,113a2.553,2.553,0,0,1,2.4,2.551Z" transform="translate(-42.871 -67.108)"/>
    <path id="Path_13583" data-name="Path 13583" class="cls-6" d="M179.843,17.554H157.785a25.413,25.413,0,0,0-22.838,14.269,3.524,3.524,0,0,1-2.5,1.882,8.631,8.631,0,0,0-6.888,8.451v6.339a2.544,2.544,0,0,0-1.6,2.364V66.032a3.637,3.637,0,0,1-6.607,2.1,7.912,7.912,0,0,1-1.173-2.645c-.289-1.24-.208,1.159-.208-32.918a8.627,8.627,0,0,1,8.627-8.627A25.416,25.416,0,0,1,148.2,7.969c15.1,0,24.974-.114,25.79.294a25.56,25.56,0,0,1,6.288,1.821c.1.042,1.208.54,1.256.588A3.637,3.637,0,0,1,179.843,17.554Z" transform="translate(-25.837 -5.413)"/>
    <path id="Path_13584" data-name="Path 13584" class="cls-7" d="M225.874,306.995a31.718,31.718,0,0,1-25,0,19.8,19.8,0,0,0,.361-5.246l.048-.118a31.7,31.7,0,0,0,24.186,0l.048.118a19.808,19.808,0,0,0,.361,5.246Z" transform="translate(-83.613 -205.258)"/>
    <path id="Path_13585" data-name="Path 13585" class="cls-8" d="M116.711,354.313a23.827,23.827,0,0,0-22.723,23.8v8.71H88.556A2.556,2.556,0,0,1,86,384.266V371.672A23.961,23.961,0,0,1,109.965,347.9a13.236,13.236,0,0,0,5.085-1.067C115.089,346.914,116.691,354.222,116.711,354.313Z" transform="translate(-5.444 -236.017)"/>
    <path id="Path_13586" data-name="Path 13586" class="cls-8" d="M297.88,354.313a23.827,23.827,0,0,1,22.723,23.8v8.71h5.432a2.556,2.556,0,0,0,2.556-2.556V371.672A23.961,23.961,0,0,0,304.626,347.9a13.235,13.235,0,0,1-5.085-1.067C299.5,346.914,297.9,354.222,297.88,354.313Z" transform="translate(-149.628 -236.017)"/>
    <path id="Path_13587" data-name="Path 13587" class="cls-9" d="M182.754,345.919c.476,2.163.984,4.467,1.415,6.425a2.351,2.351,0,0,1-4.093-1.009c-1.229-5.579-3.129-14.2-3.156-14.257a13.277,13.277,0,0,0,5.633-4.578l2.729,3.035A12.336,12.336,0,0,0,182.754,345.919Z" transform="translate(-67.315 -226.265)"/>
    <path id="Path_13588" data-name="Path 13588" class="cls-10" d="M165.654,106.048c-.562,4.528-2.548,8.591-5.86,11.053a23.342,23.342,0,0,0-9.209,18.786v7.942a3.9,3.9,0,0,1-7.53,1.654A31.559,31.559,0,0,1,141,134.244v-21.69A2.558,2.558,0,0,1,143.419,110c5.191-.3,9.538-3.551,11.1-9.471a2.559,2.559,0,0,1,3.845-1.519c1.615,1.02,3.373,2.06,5.271,3.087a3.93,3.93,0,0,1,2.015,3.949Z" transform="translate(-42.871 -67.106)"/>
    <path id="Path_13589" data-name="Path 13589" class="cls-11" d="M224.4,365.716l4.77,33.784H210l4.54-34.04,3.145,3.494a2.556,2.556,0,0,0,3.8,0Z" transform="translate(-89.826 -248.694)"/>
    <path id="Path_13590" data-name="Path 13590" class="cls-12" d="M217.879,369.169l-4.045,30.33H210l4.54-34.04Z" transform="translate(-89.826 -248.694)"/>
    <path id="Path_13591" data-name="Path 13591" d="M155.137,109.325A10.619,10.619,0,0,1,146,104.2a2.556,2.556,0,1,0-4.366,2.659,15.778,15.778,0,0,0,5.346,5.327l-2.649,12.022-6.387-7.354a2.56,2.56,0,1,0-3.725-3.507l-4.494,5.168-11.321-12.579a15.612,15.612,0,0,0,1.714-6,34.224,34.224,0,0,0,43.827-32.8V46.008a2.556,2.556,0,1,0-5.112,0V67.136a29.075,29.075,0,0,1-58.15,0V45.444c6.231-.354,11.532-4.266,13.42-11.356A87.436,87.436,0,0,0,149.2,47.071a2.556,2.556,0,0,0,.709-5.063,82.372,82.372,0,0,1-36.242-14.381,2.559,2.559,0,0,0-4.033,2.1c0,.064-.024,6.4-4.832,9.3a10.521,10.521,0,0,1-6.645,1.233,2.558,2.558,0,0,0-2.562,2.261c-.028.247-.018-.595-.018,20.453A5.278,5.278,0,0,1,92.7,58.3V27.158a6.077,6.077,0,0,1,6.071-6.071,2.556,2.556,0,0,0,2.373-1.607A22.748,22.748,0,0,1,122.364,5.112h21.92A22.883,22.883,0,0,1,167.141,27.97V58.3a2.556,2.556,0,1,0,5.112,0V27.97A28,28,0,0,0,144.284,0h-21.92A27.825,27.825,0,0,0,97.032,16.11a11.2,11.2,0,0,0-9.447,11.048V58.3A10.43,10.43,0,0,0,95.6,68.4,34.238,34.238,0,0,0,115.062,98v.674a10.662,10.662,0,0,1-10.681,10.653A26.367,26.367,0,0,0,78,135.707v15.1a2.556,2.556,0,0,0,5.112,0v-15.1a21.258,21.258,0,0,1,21.27-21.27,15.953,15.953,0,0,0,3.339-.355l3.567,16.186a2.558,2.558,0,0,0,4.426,1.126l5.036-5.8-3.112,24.893a2.556,2.556,0,0,0,5.073.634l3.6-28.768c.163.181,1.583,1.774,1.766,1.935a2.555,2.555,0,0,0,3.6-.226c.505-.579-.8.924,1.533-1.761l3.6,28.82a2.556,2.556,0,0,0,5.073-.634L138.77,125.6l5.036,5.8a2.558,2.558,0,0,0,4.426-1.126l3.567-16.187a16.051,16.051,0,0,0,3.339.355,21.258,21.258,0,0,1,21.27,21.27v15.1a2.556,2.556,0,1,0,5.112,0v-15.1a26.367,26.367,0,0,0-26.382-26.382Zm-39.95,14.88-2.65-12.025a15.87,15.87,0,0,0,2.731-2.091l6.2,6.886Z"/>
  </g>
</svg>
