<svg xmlns="http://www.w3.org/2000/svg" width="106.358" height="152.838" viewBox="0 0 106.358 152.838">
  <defs>
    <style>
      .cls-1 {
        fill: #ffdfba;
      }

      .cls-2 {
        fill: #ac6ab1;
      }

      .cls-3 {
        fill: #ffebd2;
      }

      .cls-4 {
        fill: #42434d;
      }

      .cls-5 {
        fill: #ffd6a6;
      }

      .cls-6 {
        fill: #4d4e59;
      }

      .cls-7 {
        fill: #fff3e4;
      }

      .cls-8 {
        fill: #67016f;
      }
    </style>
  </defs>
  <g id="woman" transform="translate(-72.987 0)">
    <path id="Path_13592" data-name="Path 13592" class="cls-1" d="M180.661,140.7v12.5a2.547,2.547,0,0,1-2.547,2.547H85.138A2.547,2.547,0,0,1,82.59,153.2V140.7a23.754,23.754,0,0,1,13.934-21.63c-3.353-2.668-8.464-6.254-12.182-13.969a33.667,33.667,0,0,1,2.305-33.3,32.749,32.749,0,0,0,5.5-18.162v-13.8A31.841,31.841,0,0,1,123.984,8h15.284a31.841,31.841,0,0,1,31.841,31.841c0,14.611-.357,17.472,1.4,23.282,2.485,8.215,5.768,9.232,8.3,17.592a33.687,33.687,0,0,1-11.262,36.1l-2.821,2.245A23.754,23.754,0,0,1,180.661,140.7Z" transform="translate(-5.459 -5.453)"/>
    <path id="Path_13593" data-name="Path 13593" class="cls-2" d="M184.072,371.385v12.5a2.547,2.547,0,0,1-2.547,2.547H88.548A2.547,2.547,0,0,1,86,383.886v-12.5a23.745,23.745,0,0,1,23.744-23.744,13.176,13.176,0,0,0,5.47-1.181l.08.172,18.182,14.076a2.548,2.548,0,0,0,3.119,0l18.182-14.076.08-.172a13.176,13.176,0,0,0,5.47,1.181A23.745,23.745,0,0,1,184.072,371.385Z" transform="translate(-8.87 -236.143)"/>
    <path id="Path_13594" data-name="Path 13594" class="cls-3" d="M201.636,130.295a2.549,2.549,0,0,1,2.411,2.543v15.247a31.523,31.523,0,1,1-63.046,0V133.059a2.544,2.544,0,0,1,2.766-2.538,65.9,65.9,0,0,0,42.961-10.985,2.539,2.539,0,0,1,3.869,1.421c1.572,5.793,5.859,9.042,11.039,9.337Z" transform="translate(-46.357 -81.177)"/>
    <path id="Path_13595" data-name="Path 13595" class="cls-4" d="M169.555,116.821l-2.821,2.245a23.684,23.684,0,0,0-9.81-2.114,13.173,13.173,0,0,1-13.192-13.163v-2.175l-.048-.118a31.526,31.526,0,0,0,19.471-29.135V57.113a2.549,2.549,0,0,0-2.411-2.543c-5.148-.293-9.457-3.507-11.038-9.337a2.539,2.539,0,0,0-3.869-1.421A65.908,65.908,0,0,1,102.875,54.8a2.544,2.544,0,0,0-2.766,2.538V72.361A31.526,31.526,0,0,0,119.581,101.5l-.048.118v2.175a13.173,13.173,0,0,1-13.192,13.163,23.684,23.684,0,0,0-9.81,2.114l-2.821-2.245A33.687,33.687,0,0,1,86.653,71.8a32.749,32.749,0,0,0,5.5-18.162v-13.8A31.841,31.841,0,0,1,123.991,8h15.284a31.841,31.841,0,0,1,31.841,31.841v13.8a32.768,32.768,0,0,0,5.5,18.162A33.688,33.688,0,0,1,169.555,116.821Z" transform="translate(-5.465 -5.453)"/>
    <path id="Path_13596" data-name="Path 13596" class="cls-5" d="M225.791,306.976a31.609,31.609,0,0,1-24.919,0,19.732,19.732,0,0,0,.36-5.228l.048-.118a31.587,31.587,0,0,0,24.1,0l.048.118A19.713,19.713,0,0,0,225.791,306.976Z" transform="translate(-87.165 -205.587)"/>
    <path id="Path_13597" data-name="Path 13597" class="cls-6" d="M153.655,11.427a3.321,3.321,0,0,1-1.791,6.269q-1.5-.142-3.041-.143H133.539A31.841,31.841,0,0,0,101.7,49.394v3.874c0,2.287-1.592,2.214-1.592,4.067,0,16.819.068,15.754-.179,16.48-2.5,7.348-5.5,8.412-7.931,16.453a33.659,33.659,0,0,0-1.258,13.268,3.324,3.324,0,0,1-6.393,1.561A33.673,33.673,0,0,1,86.65,71.8a32.749,32.749,0,0,0,5.5-18.162v-13.8A31.841,31.841,0,0,1,123.987,8H139.27a31.706,31.706,0,0,1,14.385,3.427Z" transform="translate(-5.462 -5.453)"/>
    <path id="Path_13598" data-name="Path 13598" class="cls-7" d="M166.482,193.628c4.757,3.184,1.131,10.549-4.27,8.654A31.322,31.322,0,0,1,141,172.51V157.485a2.545,2.545,0,0,1,2.767-2.538c1.22.111,2.56.2,4.006.242a4.853,4.853,0,0,1,4.69,4.859v7.368a31.411,31.411,0,0,0,14.017,26.211Z" transform="translate(-46.358 -105.603)"/>
    <path id="Path_13599" data-name="Path 13599" class="cls-8" d="M120.547,350.7a2.026,2.026,0,0,1-1.2,3.63,23.74,23.74,0,0,0-23.795,23.744v8.362H88.549A2.547,2.547,0,0,1,86,383.886v-12.5a23.745,23.745,0,0,1,23.744-23.744,13.177,13.177,0,0,0,5.47-1.181l.08.172Z" transform="translate(-8.871 -236.143)"/>
    <path id="Path_13600" data-name="Path 13600" class="cls-8" d="M283.817,350.7a2.026,2.026,0,0,0,1.2,3.63,23.739,23.739,0,0,1,23.795,23.744v8.362h7.005a2.547,2.547,0,0,0,2.547-2.547v-12.5a23.745,23.745,0,0,0-23.744-23.744,13.177,13.177,0,0,1-5.47-1.181l-.08.172Z" transform="translate(-143.161 -236.143)"/>
    <path id="Path_13601" data-name="Path 13601" d="M177.749,135.243v15.047a2.547,2.547,0,0,1-5.095,0V135.243a21.185,21.185,0,0,0-21.2-21.2A15.64,15.64,0,0,1,138,106.491a2.547,2.547,0,1,1,4.351-2.65,10.583,10.583,0,0,0,9.1,5.111A26.277,26.277,0,0,1,177.749,135.243Zm-42.5-19.725-9.084,7.033-15.446-11.958a15.606,15.606,0,0,0,5.839-11,34.074,34.074,0,0,0,43.677-32.689c0-.2,0-17.835-.008-18.032a2.546,2.546,0,0,0-2.539-2.386,10.483,10.483,0,0,1-6.647-1.227c-4.791-2.883-4.816-9.2-4.816-9.265a2.549,2.549,0,0,0-4.019-2.095,82.092,82.092,0,0,1-36.118,14.332,2.548,2.548,0,0,0,.35,5.07,83.811,83.811,0,0,0,18.05-4.421,87.34,87.34,0,0,0,17.28-8.544c1.878,7.045,7.143,10.965,13.374,11.318v15.25a28.976,28.976,0,0,1-57.951,0V49.036a2.547,2.547,0,0,0-5.095,0V66.906A34.113,34.113,0,0,0,111.52,97.663v.672a10.62,10.62,0,0,1-10.644,10.616,26.279,26.279,0,0,0-9.4,1.731l-1.645-1.309a31.112,31.112,0,0,1-6.521-41.616,35.191,35.191,0,0,0,5.922-19.57V34.39a29.328,29.328,0,0,1,29.294-29.3h15.284A29.327,29.327,0,0,1,163.1,34.389v13.8A35.012,35.012,0,0,0,169,67.716a31.117,31.117,0,0,1-.249,34.969,2.547,2.547,0,1,0,4.194,2.891,36.208,36.208,0,0,0,.289-40.691,29.934,29.934,0,0,1-5.035-16.7v-13.8A34.428,34.428,0,0,0,133.809,0H118.525A34.428,34.428,0,0,0,84.136,34.39v13.8a30.111,30.111,0,0,1-5.068,16.748A36.2,36.2,0,0,0,86.5,113.228a26.219,26.219,0,0,0-11.912,22.016v15.047a2.547,2.547,0,0,0,5.095,0V135.243a21.185,21.185,0,0,1,21.2-21.2,15.794,15.794,0,0,0,4.955-.8l18.776,14.536a2.548,2.548,0,0,0,3.119,0l10.644-8.24a2.547,2.547,0,0,0-3.119-4.028Z"/>
  </g>
</svg>
