<svg xmlns="http://www.w3.org/2000/svg" width="23.083" height="33.171" viewBox="0 0 23.083 33.171">
  <defs>
    <style>
      .cls-1 {
        fill: #4d4f5c;
      }
    </style>
  </defs>
  <path id="woman_1_" data-name="woman (1)" class="cls-1" d="M95.724,29.353v3.266a.553.553,0,1,1-1.106,0V29.353a4.6,4.6,0,0,0-4.6-4.6,3.394,3.394,0,0,1-2.92-1.64.553.553,0,0,1,.944-.575,2.3,2.3,0,0,0,1.976,1.109A5.7,5.7,0,0,1,95.724,29.353ZM86.5,25.072,84.529,26.6,81.177,24a3.387,3.387,0,0,0,1.267-2.387,7.4,7.4,0,0,0,9.479-7.095c0-.043,0-3.871,0-3.914a.553.553,0,0,0-.551-.518,2.275,2.275,0,0,1-1.443-.266,2.516,2.516,0,0,1-1.045-2.011.553.553,0,0,0-.872-.455,17.817,17.817,0,0,1-7.839,3.11.553.553,0,0,0,.076,1.1,18.19,18.19,0,0,0,3.917-.96,18.956,18.956,0,0,0,3.75-1.854,3.122,3.122,0,0,0,2.9,2.456v3.31a6.289,6.289,0,0,1-12.577,0V10.642a.553.553,0,1,0-1.106,0v3.879A7.4,7.4,0,0,0,81.35,21.2v.146a2.3,2.3,0,0,1-2.31,2.3,5.7,5.7,0,0,0-2.04.376l-.357-.284a6.752,6.752,0,0,1-1.415-9.032,7.638,7.638,0,0,0,1.285-4.247V7.464A6.365,6.365,0,0,1,82.87,1.106h3.317a6.365,6.365,0,0,1,6.358,6.358v2.995A7.6,7.6,0,0,0,93.825,14.7a6.753,6.753,0,0,1-.054,7.589.553.553,0,1,0,.91.627,7.858,7.858,0,0,0,.063-8.831,6.5,6.5,0,0,1-1.093-3.624V7.464A7.472,7.472,0,0,0,86.188,0H82.87a7.472,7.472,0,0,0-7.464,7.464v2.994a6.535,6.535,0,0,1-1.1,3.635,7.856,7.856,0,0,0,1.612,10.481,5.69,5.69,0,0,0-2.585,4.778v3.266a.553.553,0,1,0,1.106,0V29.353a4.6,4.6,0,0,1,4.6-4.6,3.428,3.428,0,0,0,1.076-.173l4.075,3.155a.553.553,0,0,0,.677,0l2.31-1.788a.553.553,0,0,0-.677-.874Z" transform="translate(-72.987 0)"/>
</svg>
