<svg xmlns="http://www.w3.org/2000/svg" xmlns:xlink="http://www.w3.org/1999/xlink" width="24" height="24" viewBox="0 0 24 24">
  <defs>
    <clipPath id="clip-path">
      <rect id="Rectangle_7025" data-name="Rectangle 7025" width="17.562" height="22.487" fill="#fff"/>
    </clipPath>
  </defs>
  <g id="Group_7989" data-name="Group 7989" transform="translate(-2110 -201)">
    <rect id="Rectangle_7023" data-name="Rectangle 7023" width="24" height="24" transform="translate(2110 201)" fill="none"/>
    <g id="Group_7988" data-name="Group 7988" transform="translate(2113 201.715)">
      <g id="Group_7987" data-name="Group 7987" transform="translate(0 0)" clip-path="url(#clip-path)">
        <path id="Path_22906" data-name="Path 22906" d="M13.719,9.373H12.171a5.3,5.3,0,1,0-6.779,0H3.844A3.848,3.848,0,0,0,0,13.216v9.27H17.562v-9.27a3.848,3.848,0,0,0-3.844-3.844M8.781,1.8a3.5,3.5,0,1,1-3.5,3.5,3.5,3.5,0,0,1,3.5-3.5m-.97,12.306H9.786l.411,2L8.85,17.236,7.375,16.169Zm1.72-1.8H8.071l.011-1.132H9.531Zm6.23,8.379H1.8V13.216a2.044,2.044,0,0,1,2.042-2.042h2.44V12.62L5.37,16.943l3.559,2.574L12.184,16.8l-.851-4.027v-1.6h2.386a2.044,2.044,0,0,1,2.042,2.042Z" transform="translate(0 0)" fill="#fff"/>
      </g>
    </g>
  </g>
</svg>
