<svg xmlns="http://www.w3.org/2000/svg" width="22.52" height="33.364" viewBox="0 0 22.52 33.364">
  <defs>
    <style>
      .cls-1 {
        fill: #67016f;
      }
    </style>
  </defs>
  <path id="man_1_" data-name="man (1)" class="cls-1" d="M94.781,23.783a2.31,2.31,0,0,1-1.987-1.116.556.556,0,1,0-.95.579,3.432,3.432,0,0,0,1.163,1.159l-.576,2.615-1.389-1.6a.557.557,0,1,0-.81-.763l-.978,1.124L86.79,23.046a3.4,3.4,0,0,0,.373-1.3A7.445,7.445,0,0,0,96.7,14.605v-4.6a.556.556,0,0,0-1.112,0v4.6a6.325,6.325,0,0,1-12.65,0V9.886a3.14,3.14,0,0,0,2.92-2.471,19.022,19.022,0,0,0,7.634,2.825.556.556,0,0,0,.154-1.1A17.92,17.92,0,0,1,85.759,6.01a.557.557,0,0,0-.877.457A2.53,2.53,0,0,1,83.83,8.49a2.289,2.289,0,0,1-1.446.268.556.556,0,0,0-.557.492c-.006.054,0-.129,0,4.45a1.148,1.148,0,0,1-.626-1.017V5.908a1.322,1.322,0,0,1,1.321-1.321.556.556,0,0,0,.516-.35,4.949,4.949,0,0,1,4.617-3.126H92.42a4.978,4.978,0,0,1,4.973,4.973v6.6a.556.556,0,0,0,1.112,0v-6.6A6.092,6.092,0,0,0,92.42,0H87.651A6.053,6.053,0,0,0,82.14,3.5a2.437,2.437,0,0,0-2.055,2.4v6.774a2.269,2.269,0,0,0,1.743,2.2,7.448,7.448,0,0,0,4.234,6.439v.147a2.32,2.32,0,0,1-2.324,2.318A5.736,5.736,0,0,0,78,29.523v3.285a.556.556,0,0,0,1.112,0V29.523A4.625,4.625,0,0,1,83.739,24.9a3.471,3.471,0,0,0,.726-.077l.776,3.521a.556.556,0,0,0,.963.245l1.1-1.261-.677,5.415a.556.556,0,0,0,1.1.138l.782-6.259c.035.039.344.386.384.421a.556.556,0,0,0,.783-.049l.334-.383.784,6.27a.556.556,0,0,0,1.1-.138l-.677-5.415,1.1,1.261a.556.556,0,0,0,.963-.245l.776-3.521a3.492,3.492,0,0,0,.726.077,4.625,4.625,0,0,1,4.627,4.627v3.285a.556.556,0,0,0,1.112,0V29.523a5.736,5.736,0,0,0-5.739-5.739ZM86.09,27.021,85.514,24.4a3.453,3.453,0,0,0,.594-.455l1.348,1.5Z" transform="translate(-78 0)"/>
</svg>
